<svg width="791" height="1077" viewBox="0 0 791 1077" fill="none" xmlns="http://www.w3.org/2000/svg">
<mask id="mask0_166_10863" style="mask-type:alpha" maskUnits="userSpaceOnUse" x="-77" y="-90" width="678" height="993">
<ellipse cx="261.82" cy="406.896" rx="169.586" ry="575.846" transform="rotate(32.132 261.82 406.896)" fill="#D9D9D9"/>
</mask>
<g mask="url(#mask0_166_10863)">
<g opacity="0.2" filter="url(#filter0_f_166_10863)">
<path d="M-222.687 767.3C-219.369 765.257 -216.168 766.07 -213.148 766.065C-171.277 766.122 -129.368 766.716 -87.707 761.922C-62.5058 759.019 -65.0706 761.041 -70.7954 739.786C-82.1488 697.623 -101.243 657.997 -118 617.613C-131.435 585.235 -143.964 552.627 -149.996 518.26C-155.845 485.017 -154.703 452.285 -138.689 421.214C-121.656 388.157 -93.8984 365.778 -57.652 351.968C-44.9366 347.116 -44.9737 347.055 -44.8725 334.028C-44.4288 269.008 -1.65141 217.254 66.6378 198.561C106.389 187.677 147.184 185.022 188.275 184.265C231.256 183.478 274.293 184.915 317.222 181.698C328.506 180.855 339.686 179.453 350.86 177.665C357.171 176.665 358.654 174.439 357.372 168.724C351.356 142.169 341.283 116.812 330.97 91.5327C316.367 55.699 299.643 20.6063 287.77 -16.1564C277.762 -47.1611 269.698 -78.5236 272.895 -111.315C278.548 -169.256 311.501 -208.576 368.986 -230.31C377.888 -233.677 380.744 -237.362 380.726 -246.126C380.493 -314.292 426.121 -367.813 497.104 -385.25C537.761 -395.241 579.106 -397.075 620.716 -397.924C625.135 -398.02 629.105 -396.743 632.709 -394.516C643.766 -387.663 654.798 -380.749 665.769 -373.778C667.554 -372.656 670.612 -371.591 669.882 -369.328C668.959 -366.408 665.55 -367.751 663.237 -367.702C655.934 -367.534 648.643 -367.607 639.73 -367.595C647.17 -359.133 655.484 -353.833 662.981 -347.808C686.689 -328.761 710.73 -310.057 734.681 -291.257C743.312 -284.482 745.22 -284.538 753.02 -291.928C756.77 -295.488 760.46 -299.163 763.672 -303.138C767.207 -307.499 771.046 -307.446 775.405 -304.764C784.591 -299.086 793.663 -293.251 802.897 -287.639C808.133 -284.443 807.219 -281.479 803.817 -277.357C784.569 -254.101 758.632 -240.587 728.94 -232.324C692.753 -222.245 655.447 -220.631 618.087 -219.927C575.657 -219.136 533.176 -220.547 490.823 -217.558C471.371 -216.178 451.981 -214.151 432.926 -209.972C426.574 -208.579 423.81 -206.34 424.906 -199.22C429.929 -167.01 441.321 -136.581 453.62 -106.381C469.032 -68.5934 486.739 -31.5891 499.237 7.18316C507.521 32.881 513.908 58.985 512.887 86.1031C510.872 139.234 477.682 180.422 422.784 198.587C416.511 200.658 408.001 199.952 404.447 205.349C401.171 210.31 404.39 217.109 404.605 223.104C405.606 250.599 399.708 276.726 382.914 299.488C364.915 323.87 339.305 339.379 308.953 348.35C270.706 359.647 231.191 361.223 191.578 362.09C143.81 363.141 95.9517 361.339 48.2773 365.911C33.324 367.34 18.7555 370.685 4.00531 373.212C-3.14099 374.429 -0.938682 379.333 -0.34777 383.129C3.44709 407.109 10.7061 430.279 19.367 453.075C35.8127 496.383 56.3914 538.274 71.4907 582.049C82.9266 615.226 91.5988 648.817 85.8007 684.101C78.2984 729.693 49.9827 759.941 5.00383 777.699C-0.704778 779.953 -6.63691 781.895 -12.6307 783.304C-19.861 785.001 -22.5811 788.162 -21.6804 795.577C-19.0278 817.527 -21.4312 839.096 -30.2385 859.799C-31.9867 863.932 -34.111 867.963 -36.4787 871.821C-42.7373 882.044 -42.8312 882.004 -53.0621 875.594C-60.7949 870.734 -68.4419 865.757 -76.289 861.054C-80.8126 858.344 -82.0819 855.701 -79.4976 850.704C-69.8692 832.134 -70.2138 832.241 -89.3078 820.356C-98.686 814.519 -107.554 807.956 -116.39 801.433C-121.803 797.442 -127.665 795.946 -134.483 796.152C-145.786 796.488 -157.126 796.116 -168.43 796.565C-175.62 796.86 -181.559 794.936 -187.335 791.077C-198.579 783.554 -210.138 776.462 -221.548 769.139C-221.956 768.882 -222.083 768.27 -222.668 767.274L-222.687 767.3ZM182.702 217.446C181.203 216.352 180.857 216.04 175.881 216.28C154.091 217.351 132.55 220.215 111.402 225.209C103.567 227.059 103.322 228.293 109.194 233.144C146.777 264.089 184.431 294.963 222.019 325.929C224.097 327.635 226.152 328.584 228.869 328.179C250.663 324.884 272.36 321.301 292.546 312.373C296.636 310.566 297.843 308.605 294.011 305.511C289.752 302.074 285.522 298.597 281.225 295.212C248.968 269.727 216.705 244.276 182.716 217.455L182.702 217.446ZM649.276 -256.017C651.8 -253.632 655 -254.304 658.022 -254.65C677.768 -256.91 696.85 -261.547 715.134 -268.798C722.964 -271.907 723.145 -273.334 716.378 -278.728C680.832 -307.041 645.238 -335.289 609.749 -363.681C606.773 -366.065 603.735 -366.147 600.313 -365.844C579.789 -364.034 559.202 -362.645 539.252 -357.297C536.368 -356.522 532.006 -357.095 531.245 -353.976C530.422 -350.574 534.535 -348.903 536.991 -346.902C560.51 -327.708 584.048 -308.54 607.638 -289.414C621.453 -278.221 635.39 -267.141 649.267 -256.004L649.276 -256.017ZM-102.891 543.106C-101.127 543.949 -99.3762 544.782 -97.6214 545.637C-72.3789 557.924 -47.1458 570.223 -21.8937 582.497C-3.38407 591.504 15.1211 600.488 33.693 609.382C35.8373 610.406 38.2864 612.192 40.7844 610.851C42.8992 609.726 41.6925 607.502 41.2682 605.809C36.1398 585.367 29.8782 565.24 22.0069 545.548C20.5297 541.841 18.0726 539.308 14.427 537.531C-23.7357 518.78 -61.8463 499.986 -100.047 481.287C-107.122 477.83 -109.057 478.821 -109.874 486.033C-111.709 502.555 -110.585 519.016 -108.114 535.429C-107.608 538.753 -106.127 541.415 -102.877 543.115L-102.891 543.106ZM324.303 -17.1897C331.279 6.03069 339.045 26.513 347.335 46.868C350.226 53.9742 354.784 58.8553 361.735 62.4819C391.516 78.0199 421.268 93.597 450.834 109.457C457.053 112.794 459.759 111.393 462.053 105.586C468.377 89.6014 471.313 73.2567 470.495 56.2087C470.252 51.3184 468.341 48.8805 463.619 46.7505C435.427 34.0371 407.411 20.9404 379.334 8.01366C361.665 -0.122069 343.972 -8.1968 324.285 -17.2204L324.303 -17.1897ZM466.6 25.3734C461.833 2.24717 454.747 -17.846 446.688 -37.6751C445.414 -40.8163 442.284 -42.2886 439.258 -43.7908C400.928 -62.818 362.583 -81.7972 324.372 -101.016C318.639 -103.896 316.212 -103.1 315.494 -97.0631C313.67 -81.8465 314.442 -66.7298 316.504 -51.5822C317.247 -46.1685 319.522 -42.6839 325.036 -40.1508C354.152 -26.8193 383.071 -13.0785 412.1 0.427164C429.477 8.51279 446.974 16.4071 466.591 25.3865L466.6 25.3734ZM39.3926 634.882C37.5213 633.878 36.5697 633.299 35.5656 632.82C-7.31593 612.188 -50.1973 591.556 -93.0883 570.938C-94.571 570.215 -96.2042 568.884 -97.7709 569.821C-100.038 571.156 -98.3588 573.181 -97.8959 574.766C-91.781 595.543 -83.5692 615.639 -74.9086 635.599C-73.5492 638.737 -71.1328 640.484 -68.0088 642.104C-57.1591 647.724 -46.5436 653.749 -35.7701 659.473C-15.6677 670.146 4.47782 680.733 24.6088 691.367C30.9126 694.701 34.7229 693.613 37.3079 686.79C42.3476 673.518 44.6015 659.904 45.3038 645.942C45.5636 640.644 43.8859 636.679 39.3971 634.904L39.3926 634.882ZM194.39 329.039C176.609 314.992 158.724 301.031 141.052 286.862C122.679 272.138 104.386 257.331 86.3351 242.277C80.3508 237.298 74.9147 236.736 68.1373 240.677C55.8792 247.796 44.0752 255.275 34.1495 265.21C29.3767 269.974 29.9914 272.586 35.3163 276.389C59.0374 293.313 82.4686 310.55 106.033 327.661C108.927 329.765 111.833 332.048 115.771 332.05C141.721 332.052 167.684 332.233 194.4 329.026L194.39 329.039ZM529.664 -256.146C534.265 -253.121 538.549 -249.915 544.867 -250.054C566.916 -250.525 588.966 -250.633 611.014 -250.99C613.389 -251.039 616.833 -249.997 617.84 -252.694C618.817 -255.295 615.638 -256.589 613.776 -258.083C578.68 -286.113 543.512 -314.074 508.535 -342.239C504.941 -345.126 502.132 -345.521 497.994 -343.536C483.519 -336.612 470.761 -327.658 459.368 -316.895C455.575 -313.304 455.341 -310.597 459.902 -307.293C483.237 -290.345 506.424 -273.224 529.673 -256.159L529.664 -256.146ZM213.823 214.61C217.742 218.176 219.601 220.124 221.716 221.777C238.31 234.755 254.945 247.702 271.6 260.623C285.662 271.534 299.795 282.375 313.795 293.343C316.978 295.838 319.705 296.962 323.32 293.868C335.724 283.264 345.94 271.248 352.422 256.675C354.025 253.078 353.487 250.248 349.927 247.763C335.037 237.397 320.237 226.935 305.465 216.435C302.557 214.378 299.369 214.164 295.879 214.196C284.874 214.32 273.862 214.173 262.867 214.228C247.402 214.307 231.927 214.457 213.847 214.606L213.823 214.61ZM432.563 -69.7265C432.147 -72.4992 432.177 -73.2984 431.891 -73.9732C422.708 -96.2785 413.435 -118.545 404.318 -140.885C402.909 -144.32 400.455 -146.604 397.285 -148.444C385.316 -155.395 373.19 -162.16 361.392 -169.346C356.297 -172.452 352.736 -170.752 349.725 -167.164C340.734 -156.375 332.02 -145.431 325.8 -132.902C322.797 -126.855 324.937 -124.14 330.783 -121.246C349.986 -111.785 368.85 -101.718 387.919 -92.0176C402.246 -84.7265 416.677 -77.6357 432.563 -69.7265ZM6.3821 510.214C6.13562 508.08 6.22241 507.259 5.93132 506.563C-3.25226 484.314 -12.4595 462.07 -21.6666 439.826C-22.7013 437.311 -24.162 435.042 -26.8657 433.857C-39.4544 428.343 -50.4317 420.455 -61.9003 413.323C-67.5151 409.833 -71.6046 410.516 -75.8521 414.982C-84.485 424.074 -91.398 434.266 -97.34 444.954C-103.163 455.451 -102.054 456.909 -90.9013 462.395C-72.4864 471.475 -53.9377 480.316 -35.8431 489.975C-22.4949 497.089 -9.10542 504.343 6.35398 510.196L6.3821 510.214ZM365.565 89.6995C375.824 114.07 385.486 137.209 392.658 161.142C394.259 166.505 397.979 165.457 401.908 163.645C416.438 156.984 429.423 148.477 440.583 137.415C445.664 132.369 444.607 129.745 438.875 126.752C423.663 118.791 408.782 110.237 393.269 102.829C384.57 98.6746 377.128 92.2093 365.532 89.7167L365.565 89.6995ZM-58.886 670.67C-59.0607 671.892 -59.3244 672.449 -59.158 672.839C-49.6697 695.85 -40.3891 718.92 -32.5728 742.478C-30.9266 747.413 -27.5533 747.345 -23.2948 745.588C-7.54657 739.084 5.63665 729.408 17.2349 717.689C20.9158 713.971 19.4143 712.095 15.2815 709.974C4.1593 704.278 -6.75798 698.273 -17.78 692.412C-31.3818 685.196 -45.0025 678.006 -58.886 670.67ZM501.189 -249.857C482.742 -264.228 466.548 -277.583 448.999 -289.449C444.857 -292.261 440.875 -293.774 437.896 -288.321C431.188 -276.079 426.646 -263.179 424.641 -249.541C424.188 -246.477 424.679 -244.285 428.936 -244.806C452.173 -247.631 475.537 -248.779 501.189 -249.857ZM12.8455 293.414C5.76615 305.518 1.53426 318.499 -0.893389 332.042C-1.71775 336.68 0.450143 338.29 5.35523 337.529C25.4614 334.411 45.7886 333.657 66.1122 332.768C68.2091 332.678 71.291 333.683 72.0933 331.181C72.7989 328.979 70.186 327.642 68.4535 326.363C52.7768 314.798 36.9672 303.36 21.4284 291.635C17.2242 288.46 14.9806 289.79 12.8455 293.414ZM-87.1067 795.863C-82.9247 798.871 -79.2012 801.497 -75.5349 804.2C-72.3462 806.547 -69.5619 811.721 -65.5765 809.945C-61.9504 808.323 -63.6297 802.816 -63.3207 798.995C-63.0908 796.21 -62.3646 792.633 -67.452 793.222C-73.7558 793.96 -80.2795 793.342 -87.1067 795.863ZM338.471 213.013C343.431 217.119 346.591 220.095 350.146 222.557C353.172 224.649 356.304 229.376 359.577 227.761C363.058 226.029 361.57 220.68 362.039 216.865C362.609 212.238 359.945 210.83 355.457 211.301C350.488 211.813 345.528 212.311 338.471 213.013Z" fill="#19BFCD"/>
</g>
<path d="M-43.7181 629.693C-41.5963 631.576 -39.2925 632.712 -37.3984 635.084C-33.3799 640.115 -28.6635 644.531 -24.5049 649.442C-17.912 657.227 -9.75079 663.816 -1.63386 669.896C3.732 673.916 9.49807 677.56 15.4876 680.764C20.7126 683.558 24.6757 687.797 29.5494 691.024C39.974 697.927 47.0695 708.814 57.1374 716.204C64.7941 721.824 71.7579 728.257 78.8577 734.556C81.1402 736.581 84.2817 737.352 86.7683 739.197C89.0512 740.891 90.8466 743.248 92.977 745.138C96.6628 748.408 99.0938 753.645 103.393 756.109C106.793 758.057 109.198 761.476 112.144 764.089C117.246 768.616 121.869 773.691 126.981 778.226C130.582 781.421 133.889 784.782 137.224 788.233C138.622 789.679 139.644 791.407 141.144 792.738C141.46 793.018 144.259 795.903 143.966 794.269" stroke="url(#paint0_linear_166_10863)" stroke-width="4.31741" stroke-linecap="round"/>
<path d="M-42.5182 628.341C-40.3964 630.224 -38.9933 632.376 -36.4131 633.974C-30.939 637.365 -25.9928 641.522 -20.622 645.066C-12.1073 650.685 -4.59333 658.004 2.41006 665.339C7.03978 670.188 11.3446 675.48 15.2387 681.045C18.6358 685.9 23.3158 689.33 27.1005 693.785C35.1957 703.313 46.8495 709.062 55.3861 718.179C61.8782 725.112 69.0944 731.26 76.1941 737.559C78.4767 739.584 79.6158 742.612 81.7438 744.861C83.6973 746.926 86.2513 748.428 88.3818 750.318C92.0675 753.588 97.5568 755.378 100.515 759.354C102.854 762.497 106.535 764.479 109.481 767.092C114.583 771.619 120.172 775.605 125.284 780.141C128.885 783.336 132.615 786.219 136.439 789.119C138.041 790.334 139.878 791.144 141.378 792.475C141.694 792.755 144.892 795.191 143.234 795.094" stroke="url(#paint1_linear_166_10863)" stroke-width="4.31741" stroke-linecap="round"/>
<circle cx="163.583" cy="811.403" r="25.0697" transform="rotate(41.5808 163.583 811.403)" fill="#0ACDDD"/>
<circle cx="163.583" cy="811.403" r="25.0697" transform="rotate(41.5808 163.583 811.403)" fill="url(#paint2_radial_166_10863)" style="mix-blend-mode:overlay"/>
<circle cx="163.583" cy="811.403" r="25.0697" transform="rotate(41.5808 163.583 811.403)" fill="url(#paint3_radial_166_10863)" style="mix-blend-mode:screen"/>
<circle cx="163.583" cy="811.403" r="25.0697" transform="rotate(41.5808 163.583 811.403)" fill="url(#paint4_radial_166_10863)" style="mix-blend-mode:screen"/>
<circle cx="37.0191" cy="556.174" r="8.35418" transform="rotate(41.5808 37.0191 556.174)" fill="#0ACDDD"/>
<circle cx="37.0191" cy="556.174" r="8.35418" transform="rotate(41.5808 37.0191 556.174)" fill="url(#paint5_radial_166_10863)" style="mix-blend-mode:overlay"/>
<circle cx="37.0191" cy="556.174" r="8.35418" transform="rotate(41.5808 37.0191 556.174)" fill="url(#paint6_radial_166_10863)" style="mix-blend-mode:screen"/>
<circle cx="37.0191" cy="556.174" r="8.35418" transform="rotate(41.5808 37.0191 556.174)" fill="url(#paint7_radial_166_10863)" style="mix-blend-mode:screen"/>
<path d="M43.0533 562.808C44.6741 564.246 46.5403 564.995 47.9061 566.897C50.8038 570.934 54.3794 574.338 57.4129 578.251C62.2221 584.453 68.5326 589.4 74.8643 593.896C79.05 596.869 83.627 599.458 88.4496 601.626C92.6566 603.518 95.5992 606.851 99.4506 609.171C107.689 614.134 112.571 623.056 120.442 628.498C126.428 632.636 131.718 637.584 137.141 642.395C138.884 643.942 141.52 644.264 143.462 645.626C145.245 646.876 146.527 648.777 148.154 650.221C150.97 652.719 152.466 657.127 155.908 658.83C158.63 660.177 160.317 662.958 162.567 664.955C166.465 668.413 169.882 672.417 173.787 675.882C176.537 678.322 179.014 680.946 181.503 683.647C182.546 684.779 183.231 686.207 184.377 687.224C184.618 687.438 186.709 689.695 186.647 688.265" stroke="url(#paint8_linear_166_10863)" stroke-width="4.31741" stroke-linecap="round"/>
<path d="M44.2533 561.456C45.8741 562.894 46.8395 564.658 48.8914 565.788C53.2448 568.184 57.0501 571.329 61.2958 573.875C68.0268 577.911 73.69 583.588 78.9082 589.339C82.3578 593.141 85.4736 597.377 88.2007 601.907C90.5798 605.859 94.2393 608.384 97.0017 611.932C102.91 619.52 112.351 623.305 118.69 630.472C123.512 635.923 129.054 640.586 134.477 645.398C136.221 646.945 136.855 649.524 138.438 651.29C139.891 652.911 141.932 653.957 143.559 655.401C146.374 657.899 150.929 658.86 153.03 662.075C154.691 664.617 157.653 665.961 159.904 667.957C163.801 671.415 168.184 674.332 172.089 677.796C174.84 680.236 177.74 682.383 180.718 684.533C181.966 685.434 183.465 685.944 184.611 686.96C184.852 687.174 187.342 688.982 185.915 689.09" stroke="url(#paint9_linear_166_10863)" stroke-width="4.31741" stroke-linecap="round"/>
<circle cx="209.54" cy="709.24" r="31.7545" transform="rotate(41.5808 209.54 709.24)" fill="#0ACDDD"/>
<circle cx="209.54" cy="709.24" r="31.7545" transform="rotate(41.5808 209.54 709.24)" fill="url(#paint10_radial_166_10863)" style="mix-blend-mode:overlay"/>
<circle cx="209.54" cy="709.24" r="31.7545" transform="rotate(41.5808 209.54 709.24)" fill="url(#paint11_radial_166_10863)" style="mix-blend-mode:screen"/>
<circle cx="209.54" cy="709.24" r="31.7545" transform="rotate(41.5808 209.54 709.24)" fill="url(#paint12_radial_166_10863)" style="mix-blend-mode:screen"/>
<circle cx="246.777" cy="456.024" r="6.68479" transform="rotate(41.5808 246.777 456.024)" fill="#0ACDDD"/>
<circle cx="246.777" cy="456.024" r="6.68479" transform="rotate(41.5808 246.777 456.024)" fill="url(#paint13_radial_166_10863)" style="mix-blend-mode:overlay"/>
<circle cx="246.777" cy="456.024" r="6.68479" transform="rotate(41.5808 246.777 456.024)" fill="url(#paint14_radial_166_10863)" style="mix-blend-mode:screen"/>
<circle cx="246.777" cy="456.024" r="6.68479" transform="rotate(41.5808 246.777 456.024)" fill="url(#paint15_radial_166_10863)" style="mix-blend-mode:screen"/>
<path d="M251.223 461.682C251.439 461.873 252.077 461.532 251.961 462.12C251.715 463.368 252.091 463.933 251.969 465.045C251.775 466.809 252.894 467.15 254.219 467.204C255.094 467.239 256.336 466.869 257.886 466.133C259.237 465.492 259.318 466.285 260.302 466.061C262.407 465.583 261.079 468.996 262.789 468.971C264.09 468.952 264.684 469.733 265.405 470.373C265.636 470.578 266.855 469.643 267.268 469.648C267.648 469.654 267.49 470.277 267.706 470.469C268.08 470.801 266.953 472.881 267.992 472.452C268.814 472.113 268.485 473.106 268.784 473.371C269.302 473.831 269.338 474.835 269.857 475.296C270.222 475.62 270.368 476.176 270.487 476.774C270.537 477.024 270.275 477.612 270.427 477.747C270.459 477.776 270.564 478.271 271.147 477.414" stroke="url(#paint16_linear_166_10863)" stroke-width="4.31741" stroke-linecap="round"/>
<path d="M252.423 460.33C252.639 460.521 252.376 461.196 252.947 461.01C254.156 460.618 254.762 460.923 255.852 460.67C257.58 460.267 258.052 461.338 258.263 462.646C258.402 463.511 258.183 464.789 257.637 466.415C257.16 467.833 257.958 467.818 257.853 468.822C257.628 470.969 260.859 469.245 261.038 470.946C261.174 472.239 262.02 472.736 262.741 473.375C262.973 473.581 262.189 474.902 262.244 475.312C262.294 475.689 262.894 475.457 263.111 475.649C263.485 475.981 265.416 474.614 265.114 475.697C264.875 476.553 265.822 476.109 266.121 476.374C266.639 476.834 267.64 476.749 268.159 477.21C268.525 477.534 269.094 477.612 269.702 477.66C269.956 477.679 270.509 477.349 270.661 477.484C270.693 477.512 271.197 477.558 270.416 478.239" stroke="url(#paint17_linear_166_10863)" stroke-width="4.31741" stroke-linecap="round"/>
<circle cx="289.14" cy="493.611" r="36.7699" transform="rotate(41.5808 289.14 493.611)" fill="#0ACDDD"/>
<circle cx="289.14" cy="493.611" r="36.7699" transform="rotate(41.5808 289.14 493.611)" fill="url(#paint18_radial_166_10863)" style="mix-blend-mode:overlay"/>
<circle cx="289.14" cy="493.611" r="36.7699" transform="rotate(41.5808 289.14 493.611)" fill="url(#paint19_radial_166_10863)" style="mix-blend-mode:screen"/>
<circle cx="289.14" cy="493.611" r="36.7699" transform="rotate(41.5808 289.14 493.611)" fill="url(#paint20_radial_166_10863)" style="mix-blend-mode:screen"/>
<circle cx="36.7676" cy="36.7676" r="36.7676" transform="matrix(0.748021 0.663675 0.663675 -0.748021 318.492 314.094)" fill="#0ACDDD"/>
<circle cx="36.7676" cy="36.7676" r="36.7676" transform="matrix(0.748021 0.663675 0.663675 -0.748021 318.492 314.094)" fill="url(#paint21_radial_166_10863)" style="mix-blend-mode:overlay"/>
<circle cx="36.7676" cy="36.7676" r="36.7676" transform="matrix(0.748021 0.663675 0.663675 -0.748021 318.492 314.094)" fill="url(#paint22_radial_166_10863)" style="mix-blend-mode:screen"/>
<circle cx="36.7676" cy="36.7676" r="36.7676" transform="matrix(0.748021 0.663675 0.663675 -0.748021 318.492 314.094)" fill="url(#paint23_radial_166_10863)" style="mix-blend-mode:screen"/>
<path d="M388.454 327.789C388.669 327.98 389.308 327.64 389.192 328.228C388.946 329.476 389.322 330.041 389.199 331.153C389.005 332.917 390.125 333.258 391.449 333.311C392.325 333.347 393.567 332.977 395.116 332.241C396.468 331.599 396.548 332.393 397.532 332.169C399.637 331.691 398.31 335.104 400.02 335.079C401.32 335.06 401.914 335.841 402.635 336.48C402.867 336.686 404.085 335.75 404.499 335.756C404.879 335.761 404.72 336.385 404.936 336.577C405.311 336.909 404.184 338.989 405.223 338.56C406.044 338.221 405.716 339.214 406.015 339.479C406.533 339.939 406.568 340.943 407.087 341.403C407.453 341.728 407.598 342.284 407.718 342.881C407.767 343.132 407.505 343.72 407.658 343.855C407.69 343.883 407.795 344.378 408.378 343.521" stroke="url(#paint24_linear_166_10863)" stroke-width="4.31741" stroke-linecap="round"/>
<path d="M389.654 326.438C389.869 326.629 389.607 327.303 390.177 327.118C391.387 326.726 391.992 327.031 393.082 326.777C394.81 326.375 395.282 327.446 395.493 328.754C395.632 329.619 395.413 330.896 394.867 332.523C394.391 333.941 395.188 333.926 395.083 334.93C394.859 337.077 398.09 335.353 398.269 337.054C398.405 338.347 399.251 338.844 399.971 339.483C400.203 339.689 399.419 341.01 399.474 341.42C399.525 341.796 400.125 341.565 400.341 341.757C400.715 342.089 402.647 340.722 402.344 341.805C402.105 342.661 403.052 342.217 403.351 342.482C403.869 342.942 404.871 342.857 405.39 343.318C405.755 343.642 406.324 343.72 406.932 343.767C407.187 343.787 407.739 343.457 407.892 343.592C407.924 343.62 408.428 343.666 407.646 344.347" stroke="url(#paint25_linear_166_10863)" stroke-width="4.31741" stroke-linecap="round"/>
<circle cx="6.68502" cy="6.68502" r="6.68502" transform="matrix(0.748021 0.663675 0.663675 -0.748021 404.123 349.854)" fill="#0ACDDD"/>
<circle cx="6.68502" cy="6.68502" r="6.68502" transform="matrix(0.748021 0.663675 0.663675 -0.748021 404.123 349.854)" fill="url(#paint26_radial_166_10863)" style="mix-blend-mode:overlay"/>
<circle cx="6.68502" cy="6.68502" r="6.68502" transform="matrix(0.748021 0.663675 0.663675 -0.748021 404.123 349.854)" fill="url(#paint27_radial_166_10863)" style="mix-blend-mode:screen"/>
<circle cx="6.68502" cy="6.68502" r="6.68502" transform="matrix(0.748021 0.663675 0.663675 -0.748021 404.123 349.854)" fill="url(#paint28_radial_166_10863)" style="mix-blend-mode:screen"/>
<circle cx="33.4251" cy="33.4251" r="33.4251" transform="matrix(0.748021 0.663675 0.663675 -0.748021 379.188 215.855)" fill="#0ACDDD"/>
<circle cx="33.4251" cy="33.4251" r="33.4251" transform="matrix(0.748021 0.663675 0.663675 -0.748021 379.188 215.855)" fill="url(#paint29_radial_166_10863)" style="mix-blend-mode:overlay"/>
<circle cx="33.4251" cy="33.4251" r="33.4251" transform="matrix(0.748021 0.663675 0.663675 -0.748021 379.188 215.855)" fill="url(#paint30_radial_166_10863)" style="mix-blend-mode:screen"/>
<circle cx="33.4251" cy="33.4251" r="33.4251" transform="matrix(0.748021 0.663675 0.663675 -0.748021 379.188 215.855)" fill="url(#paint31_radial_166_10863)" style="mix-blend-mode:screen"/>
<path d="M451.505 236.48C452.429 237.3 453.686 237.509 454.318 238.76C455.657 241.415 457.647 243.411 459.116 245.936C461.446 249.938 465.183 252.602 469.033 254.896C471.578 256.413 474.502 257.536 477.702 258.265C480.494 258.9 482.018 260.975 484.448 262.034C489.646 264.3 491.45 270.492 496.268 273.224C499.932 275.301 502.894 278.184 505.986 280.927C506.981 281.81 508.914 281.508 510.098 282.198C511.186 282.831 511.754 284.099 512.682 284.922C514.287 286.347 514.483 289.601 516.734 290.247C518.514 290.758 519.202 292.653 520.485 293.791C522.708 295.763 524.449 298.281 526.675 300.256C528.244 301.648 529.565 303.247 530.88 304.905C531.43 305.6 531.646 306.612 532.299 307.192C532.437 307.314 533.544 308.697 533.801 307.551" stroke="url(#paint32_linear_166_10863)" stroke-width="4.31741" stroke-linecap="round"/>
<path d="M452.704 235.128C453.629 235.948 453.986 237.172 455.303 237.65C458.098 238.664 460.318 240.402 462.999 241.56C467.25 243.396 470.341 246.79 473.077 250.339C474.886 252.685 476.348 255.455 477.453 258.546C478.417 261.242 480.658 262.508 481.999 264.795C484.868 269.686 491.23 270.74 494.517 275.198C497.016 278.589 500.23 281.186 503.323 283.93C504.317 284.812 504.248 286.768 505.074 287.862C505.832 288.866 507.158 289.279 508.086 290.102C509.692 291.527 512.946 291.334 513.856 293.492C514.575 295.198 516.538 295.656 517.822 296.794C520.044 298.766 522.751 300.195 524.978 302.171C526.546 303.562 528.291 304.683 530.094 305.791C530.85 306.255 531.88 306.349 532.533 306.929C532.671 307.051 534.177 307.985 533.069 308.377" stroke="url(#paint33_linear_166_10863)" stroke-width="4.31741" stroke-linecap="round"/>
<circle cx="8.35627" cy="8.35627" r="8.35627" transform="matrix(0.748021 0.663675 0.663675 -0.748021 528.338 314.675)" fill="#0ACDDD"/>
<circle cx="8.35627" cy="8.35627" r="8.35627" transform="matrix(0.748021 0.663675 0.663675 -0.748021 528.338 314.675)" fill="url(#paint34_radial_166_10863)" style="mix-blend-mode:overlay"/>
<circle cx="8.35627" cy="8.35627" r="8.35627" transform="matrix(0.748021 0.663675 0.663675 -0.748021 528.338 314.675)" fill="url(#paint35_radial_166_10863)" style="mix-blend-mode:screen"/>
<circle cx="8.35627" cy="8.35627" r="8.35627" transform="matrix(0.748021 0.663675 0.663675 -0.748021 528.338 314.675)" fill="url(#paint36_radial_166_10863)" style="mix-blend-mode:screen"/>
<circle cx="21.7263" cy="21.7263" r="21.7263" transform="matrix(0.748021 0.663675 0.663675 -0.748021 466.711 -11.046)" fill="#0ACDDD"/>
<circle cx="21.7263" cy="21.7263" r="21.7263" transform="matrix(0.748021 0.663675 0.663675 -0.748021 466.711 -11.046)" fill="url(#paint37_radial_166_10863)" style="mix-blend-mode:overlay"/>
<circle cx="21.7263" cy="21.7263" r="21.7263" transform="matrix(0.748021 0.663675 0.663675 -0.748021 466.711 -11.046)" fill="url(#paint38_radial_166_10863)" style="mix-blend-mode:screen"/>
<circle cx="21.7263" cy="21.7263" r="21.7263" transform="matrix(0.748021 0.663675 0.663675 -0.748021 466.711 -11.046)" fill="url(#paint39_radial_166_10863)" style="mix-blend-mode:screen"/>
<path d="M513.231 1.5767C515.72 3.78455 518.344 5.20556 520.624 7.92005C525.463 13.679 531.014 18.8357 535.996 24.4767C543.894 33.4198 553.409 41.2103 562.832 48.4495C569.062 53.235 575.698 57.6512 582.541 61.6125C588.511 65.0682 593.221 69.9689 598.843 73.8599C610.867 82.1825 619.583 94.5061 631.258 103.322C640.137 110.027 648.326 117.547 656.652 124.935C659.329 127.31 662.84 128.408 665.725 130.607C668.374 132.626 670.545 135.316 673.044 137.533C677.367 141.368 680.482 147.212 685.408 150.232C689.303 152.62 692.235 156.505 695.69 159.571C701.674 164.88 707.179 170.737 713.174 176.056C717.397 179.803 721.312 183.703 725.266 187.703C726.922 189.379 728.191 191.325 729.95 192.887C730.321 193.215 733.638 196.56 733.177 194.776" stroke="url(#paint40_linear_166_10863)" stroke-width="4.31741" stroke-linecap="round"/>
<path d="M514.431 0.224934C516.919 2.43278 518.643 4.86901 521.61 6.8102C527.904 10.9286 533.685 15.8262 539.879 20.101C549.699 26.878 558.567 35.3981 566.876 43.8923C572.37 49.5076 577.545 55.5706 582.292 61.8936C586.434 67.4096 591.861 71.5023 596.394 76.6207C606.089 87.5688 619.363 94.7547 629.506 105.297C637.221 113.315 645.662 120.55 653.988 127.937C656.665 130.312 658.174 133.668 660.701 136.271C663.02 138.661 665.95 140.496 668.449 142.713C672.771 146.548 678.945 148.945 682.53 153.477C685.365 157.06 689.571 159.508 693.026 162.573C699.01 167.882 705.481 172.651 711.476 177.97C715.699 181.717 720.038 185.14 724.48 188.589C726.341 190.034 728.425 191.062 730.185 192.623C730.555 192.952 734.271 195.848 732.445 195.602" stroke="url(#paint41_linear_166_10863)" stroke-width="4.31741" stroke-linecap="round"/>
<g filter="url(#filter1_f_166_10863)">
<path d="M792.466 -105.778C791.245 -94.4635 772.584 -79.9924 763.593 -74.3114C757.733 -70.6093 752.795 -62.4844 748.69 -57.048C744.151 -51.0377 738.218 -43.4757 734.671 -36.7105C725.956 -20.0858 713.698 -7.7228 700.605 5.1668C687.222 18.3407 675.428 33.5417 663.353 47.5871C647.913 65.5461 627.392 79.0437 610.494 95.6784C598.836 107.155 587.793 123.427 580.4 137.928C575.691 147.164 567.332 154.836 562.472 164.369C558.145 172.855 555.47 179.241 548.893 186.641C536.42 200.671 521.977 207.919 507.857 219.035C496.84 227.708 480.857 236.446 472.756 247.954C463.687 260.836 453.922 273.597 444.285 286.126C425.806 310.151 409.53 335.619 387.051 356.108C372.721 369.169 357.518 381.498 342.791 394.156C334.008 401.705 318.171 411.309 313.487 422.553C306.915 438.33 292.569 449.822 284.529 464.811C276.404 479.96 262.294 491.046 251.956 504.542C239.379 520.961 224.392 533.848 209.132 547.713C185.411 569.268 160.955 589.389 139.325 613.166C133.154 619.949 127.608 627.856 121.097 634.265C82.0271 672.728 49.137 717.279 9.95473 755.851C-3.8674 769.458 -15.6508 785.052 -28.8935 799.054C-49.2435 820.571 -65.1169 851.55 -92.7987 865.121C-100.79 869.038 -110.327 882.646 -112.087 891.097C-114.49 902.643 -124.213 910.457 -131.622 919.57" stroke="url(#paint42_linear_166_10863)" stroke-width="4.31741" stroke-linecap="round" stroke-dasharray="109.37 296.46"/>
</g>
<g filter="url(#filter2_f_166_10863)">
<path d="M781.804 -98.9938C780.582 -87.6789 761.922 -73.2077 752.93 -67.5267C747.071 -63.8247 742.133 -55.6997 738.027 -50.2633C733.489 -44.253 727.556 -36.6911 724.009 -29.9258C715.294 -13.3011 703.036 -0.938133 689.942 11.9515C676.56 25.1254 664.766 40.3264 652.691 54.3718C637.251 72.3308 616.729 85.8284 599.832 102.463C588.174 113.94 577.131 130.212 569.738 144.712C565.029 153.949 556.669 161.621 551.81 171.153C547.483 179.64 544.808 186.026 538.23 193.425C525.758 207.456 511.315 214.704 497.195 225.82C486.178 234.492 470.195 243.231 462.094 254.739C453.025 267.621 443.26 280.381 433.623 292.911C415.144 316.935 398.867 342.404 376.389 362.892C362.059 375.953 346.856 388.282 332.128 400.941C323.346 408.49 307.509 418.094 302.825 429.338C296.252 445.115 281.907 456.606 273.867 471.596C265.741 486.745 251.632 497.83 241.294 511.326C228.717 527.745 213.73 540.632 198.47 554.498C174.749 576.053 150.293 596.174 128.663 619.95C122.492 626.733 116.946 634.641 110.435 641.05C71.365 679.512 38.4749 724.063 -0.707379 762.636C-14.5295 776.243 -26.3129 791.837 -39.5556 805.839C-59.9056 827.355 -75.779 858.335 -103.461 871.905C-111.452 875.823 -120.99 889.43 -122.749 897.881C-125.152 909.428 -134.875 917.242 -142.284 926.355" stroke="url(#paint43_linear_166_10863)" stroke-width="4.31741" stroke-linecap="round" stroke-dasharray="0 440.38"/>
</g>
<g filter="url(#filter3_f_166_10863)">
<path d="M812.481 -128.943C811.26 -117.628 792.6 -103.157 783.608 -97.4756C777.749 -93.7735 772.81 -85.6486 768.705 -80.2121C764.167 -74.2019 758.233 -66.6399 754.687 -59.8746C745.971 -43.25 733.714 -30.887 720.62 -17.9974C707.238 -4.82347 695.443 10.3775 683.368 24.4229C667.929 42.382 647.407 55.8795 630.509 72.5142C618.852 83.9907 607.809 100.263 600.416 114.763C595.706 124 587.347 131.672 582.487 141.205C578.161 149.691 575.486 156.077 568.908 163.477C556.436 177.507 541.993 184.755 527.873 195.871C516.856 204.543 500.873 213.282 492.772 224.79C483.703 237.672 473.938 250.433 464.3 262.962C445.822 286.986 429.545 312.455 407.067 332.943C392.737 346.005 377.534 358.334 362.806 370.992C354.023 378.541 338.187 388.145 333.503 399.389C326.93 415.166 312.585 426.658 304.545 441.647C296.419 456.796 282.31 467.881 271.972 481.377C259.395 497.797 244.407 510.684 229.148 524.549C205.426 546.104 180.971 566.225 159.34 590.002C153.169 596.784 147.623 604.692 141.113 611.101C102.043 649.563 69.1526 694.115 29.9704 732.687C16.1482 746.294 4.3648 761.888 -8.87785 775.89C-29.2279 797.406 -45.1013 828.386 -72.7831 841.956C-80.7743 845.874 -90.3119 859.482 -92.0711 867.932C-94.4747 879.479 -104.198 887.293 -111.606 896.406" stroke="url(#paint44_linear_166_10863)" stroke-width="4.31741" stroke-linecap="round" stroke-dasharray="28.78 8.63"/>
</g>
<g opacity="0.5" filter="url(#filter4_f_166_10863)">
<path d="M-334.873 840.26C-330.768 838.092 -326.487 839.404 -322.538 839.697C-267.765 843.923 -212.88 848.809 -158.942 847.084C-126.314 846.035 -129.436 848.253 -139.376 821.7C-159.092 769.027 -188.64 718.686 -215.218 667.651C-236.527 626.733 -256.677 585.624 -268.534 543.01C-280.02 501.788 -282.303 461.886 -264.943 425.488C-246.478 386.765 -212.755 362.161 -166.939 348.876C-150.868 344.206 -150.923 344.127 -152.294 328.211C-159.217 248.764 -109.237 189.738 -22.0737 173.664C28.6635 164.303 81.717 165.107 135.376 168.261C191.502 171.564 247.96 177.593 303.74 177.921C318.401 178.011 332.863 177.406 347.271 176.33C355.41 175.734 357.093 173.159 354.757 166.045C343.824 132.982 327.723 100.983 311.317 69.0537C288.081 23.7955 262.156 -20.7675 242.384 -66.8903C225.716 -105.789 211.55 -144.931 211.947 -184.703C212.654 -254.979 251.219 -299.778 323.9 -320.643C335.155 -323.876 338.465 -328.098 337.43 -338.814C329.26 -422.174 382.763 -483.077 473.595 -497.349C525.621 -505.528 579.488 -503.666 633.815 -500.575C639.584 -500.253 644.924 -498.297 649.895 -495.217C665.148 -485.741 680.375 -476.193 695.529 -466.582C697.994 -465.033 702.117 -463.427 701.423 -460.734C700.553 -457.255 695.939 -459.235 692.919 -459.405C683.386 -459.925 673.841 -460.738 662.185 -461.608C672.893 -450.524 684.378 -443.219 694.88 -435.109C728.088 -409.47 761.692 -384.216 795.188 -358.855C807.26 -349.715 809.749 -349.595 819.098 -357.855C823.592 -361.836 827.994 -365.962 831.737 -370.503C835.858 -375.484 840.884 -375.038 846.895 -371.326C859.566 -363.472 872.106 -355.439 884.831 -347.66C892.048 -343.234 891.194 -339.701 887.221 -334.999C864.729 -308.479 832.363 -294.531 794.481 -287.376C748.311 -278.646 699.701 -280.376 650.917 -283.224C595.511 -286.468 539.783 -292.41 484.732 -292.96C459.449 -293.203 434.32 -292.65 409.879 -289.433C401.732 -288.36 398.374 -285.897 400.63 -277.084C410.917 -237.206 429.33 -198.874 448.901 -160.733C473.42 -113.005 500.851 -66.0078 521.672 -17.3661C535.473 14.8732 546.839 47.4207 548.633 80.4728C552.129 145.229 513.47 192.288 443.761 209.047C435.796 210.956 424.582 209.248 420.558 215.493C416.845 221.234 421.839 229.865 422.812 237.216C427.295 270.929 422.595 302.286 403.256 328.446C382.527 356.469 350.819 372.887 312.155 380.842C263.432 390.856 211.929 388.86 160.217 385.989C97.8581 382.532 35.0527 375.578 -26.7767 376.436C-46.1704 376.699 -64.8396 379.342 -83.8411 380.967C-93.0478 381.746 -89.6014 387.96 -88.3904 392.66C-80.6595 422.353 -68.4911 451.4 -54.5321 480.128C-28.0238 534.708 3.72703 587.965 28.5282 642.981C47.3147 684.677 62.5342 726.604 59.0222 769.166C54.4706 824.16 20.9248 858.328 -35.8572 875.575C-43.0639 877.763 -50.5989 879.549 -58.2762 880.676C-67.5373 882.033 -70.7304 885.628 -68.6966 894.783C-62.6941 921.881 -63.3485 948.011 -72.4793 972.447C-74.2889 977.328 -76.6022 982.044 -79.2539 986.526C-86.2603 998.403 -86.3877 998.345 -100.509 989.492C-111.184 982.783 -121.761 975.94 -132.568 969.411C-138.797 965.649 -140.762 962.292 -137.959 956.439C-127.508 934.692 -127.946 934.789 -154.292 918.363C-167.233 910.297 -179.589 901.393 -191.899 892.541C-199.44 887.124 -207.279 884.714 -216.173 884.288C-230.919 883.577 -245.794 881.997 -260.528 881.424C-269.899 881.071 -277.888 878.129 -285.889 872.838C-301.464 862.525 -317.401 852.706 -333.171 842.621C-333.734 842.267 -333.97 841.506 -334.851 840.23L-334.873 840.26ZM131.915 208.272C129.828 206.786 129.34 206.37 122.859 206.17C94.4814 205.316 66.6369 206.679 39.5516 210.686C29.5178 212.17 29.3391 213.655 37.5797 220.168C90.3086 261.73 143.123 303.213 195.86 344.802C198.774 347.093 201.572 348.457 205.079 348.232C233.205 346.368 261.171 344.14 286.544 335.229C291.684 333.426 293.037 331.148 287.667 326.985C281.7 322.36 275.767 317.69 269.756 313.125C224.623 278.766 179.487 244.449 131.934 208.285L131.915 208.272ZM687.547 -324.25C691.124 -321.083 695.231 -321.588 699.144 -321.71C724.71 -322.514 749.134 -326.289 772.212 -333.339C782.096 -336.361 782.168 -338.088 772.694 -345.355C722.933 -383.498 673.118 -421.566 623.422 -459.798C619.254 -463.008 615.272 -463.411 610.83 -463.379C584.194 -463.204 557.427 -463.549 531.95 -458.992C528.267 -458.331 522.495 -459.463 521.861 -455.726C521.176 -451.649 526.748 -449.197 530.193 -446.508C563.17 -420.707 596.169 -394.936 629.232 -369.213C648.592 -354.158 668.101 -339.228 687.536 -324.235L687.547 -324.25ZM-204.053 578.062C-201.648 579.267 -199.263 580.459 -196.869 581.679C-162.434 599.206 -128.011 616.748 -93.565 634.259C-68.3154 647.107 -43.0742 659.929 -17.7563 672.645C-14.8333 674.11 -11.4238 676.537 -8.31125 675.145C-5.67504 673.979 -7.50996 671.141 -8.26037 669.029C-17.3273 643.528 -27.8398 618.3 -40.4078 593.444C-42.7677 588.766 -46.2739 585.425 -51.2474 582.89C-103.327 556.178 -155.344 529.419 -207.468 502.767C-217.121 497.838 -219.537 498.858 -219.774 507.593C-220.267 527.611 -216.897 547.846 -211.771 568.157C-210.726 572.271 -208.482 575.673 -204.034 578.074L-204.053 578.062ZM290.05 -64.5272C301.854 -35.4467 314.375 -9.63499 327.567 16.0729C332.169 25.0476 338.693 31.4675 348.204 36.5912C388.95 58.5432 429.662 80.5403 470.164 102.865C478.684 107.562 482.061 106.118 484.392 99.2458C490.819 80.3316 492.773 60.6407 489.736 39.7174C488.854 33.7147 486.072 30.5444 479.651 27.4717C441.308 9.1304 403.154 -9.66183 364.937 -28.2524C340.887 -39.9526 316.814 -51.5807 290.022 -64.5666L290.05 -64.5272ZM481.083 1.633C472.179 -27.1134 460.592 -52.3817 447.763 -77.4238C445.733 -81.3907 441.469 -83.5013 437.338 -85.6381C385.007 -112.705 332.663 -139.714 280.467 -167.003C272.636 -171.092 269.552 -170.36 269.31 -163.051C268.68 -144.629 271.434 -126.072 275.88 -107.348C277.476 -100.656 280.854 -96.1699 288.359 -92.5257C327.98 -73.3372 367.391 -53.6678 406.919 -34.2749C430.582 -22.6649 454.378 -11.277 481.072 1.64801L481.083 1.633ZM-7.35852 704.387C-9.9221 702.972 -11.2335 702.17 -12.6021 701.485C-71.0711 672.005 -129.54 642.525 -188.02 613.06C-190.043 612.03 -192.332 610.241 -194.274 611.231C-197.085 612.637 -194.655 615.28 -193.867 617.264C-183.471 643.271 -170.411 668.655 -156.78 693.917C-154.639 697.888 -151.277 700.263 -147.004 702.555C-132.164 710.502 -117.584 718.921 -102.832 726.989C-75.3068 742.033 -47.7352 756.975 -20.1771 771.974C-11.5472 776.676 -6.68888 775.725 -4.09521 767.639C0.965211 751.914 2.34215 735.493 1.64956 718.494C1.37795 712.043 -1.27401 707.029 -7.35006 704.414L-7.35852 704.387ZM160.081 345.861C135.203 326.922 110.198 308.079 85.4489 289.003C59.7173 269.178 34.0818 249.26 8.73465 229.064C0.332845 222.383 -6.84233 221.157 -15.2523 225.302C-30.4641 232.788 -45.0404 240.761 -56.8765 251.921C-62.5695 257.271 -61.464 260.526 -54.0603 265.704C-21.0805 288.749 11.5562 312.148 44.3521 335.406C48.3802 338.266 52.4455 341.346 57.5964 341.738C91.5389 344.317 125.519 347.116 160.092 345.846L160.081 345.861ZM531.081 -336.28C537.449 -332.126 543.422 -327.781 551.67 -327.324C580.455 -325.711 609.284 -323.654 638.081 -321.902C641.182 -321.726 645.807 -320.11 646.812 -323.308C647.79 -326.391 643.484 -328.288 640.875 -330.299C591.735 -368.052 542.51 -405.726 493.511 -443.631C488.476 -447.517 484.757 -448.279 479.573 -446.263C461.439 -439.235 445.785 -429.555 432.126 -417.527C427.579 -413.513 427.586 -410.227 433.933 -405.735C466.41 -382.699 498.714 -359.466 531.092 -336.295L531.081 -336.28ZM172.294 207.894C177.831 212.643 180.487 215.209 183.445 217.44C206.646 234.953 229.9 252.433 253.175 269.883C272.826 284.618 292.563 299.275 312.14 314.073C316.591 317.439 320.289 319.084 324.659 315.66C339.66 303.928 351.636 290.251 358.433 273.079C360.114 268.84 359.084 265.327 354.141 261.936C333.468 247.785 312.903 233.525 292.37 219.221C288.329 216.419 284.135 215.84 279.573 215.534C265.193 214.593 250.773 213.32 236.398 212.295C216.18 210.857 195.956 209.504 172.324 207.891L172.294 207.894ZM425.588 -118.011C424.725 -121.441 424.672 -122.416 424.219 -123.269C409.634 -151.45 394.936 -179.593 380.433 -207.809C378.194 -212.148 374.72 -215.185 370.362 -217.748C353.904 -227.435 337.263 -236.908 321.002 -246.865C313.979 -251.169 309.518 -249.443 305.994 -245.356C295.479 -233.058 285.345 -220.544 278.654 -205.843C275.424 -198.748 278.537 -195.217 286.517 -191.099C312.726 -177.626 338.561 -163.447 364.623 -149.694C384.203 -139.358 403.898 -129.257 425.588 -118.011ZM-64.9223 548.695C-65.4909 546.062 -65.4721 545.068 -65.9332 544.187C-80.5127 516.076 -95.1225 487.967 -109.732 459.858C-111.376 456.681 -113.548 453.762 -117.221 452.044C-134.323 444.054 -149.592 433.321 -165.415 423.464C-173.162 418.639 -178.432 419.069 -183.473 424.107C-193.715 434.366 -201.581 446.139 -208.12 458.616C-214.524 470.871 -212.905 472.764 -197.685 480.578C-172.551 493.507 -147.27 506.157 -122.488 519.762C-104.207 529.784 -85.8571 539.981 -64.9611 548.671L-64.9223 548.695ZM356.354 70.2463C372.586 101.059 387.893 130.306 400.037 160.279C402.749 166.994 407.494 166.081 412.424 164.256C430.659 157.555 446.662 148.443 459.982 136.027C466.046 130.363 464.36 127.05 456.518 122.822C435.703 111.579 415.251 99.6448 394.106 89.0477C382.248 83.1053 371.768 74.4624 356.313 70.2641L356.354 70.2463ZM-131.775 738.383C-131.863 739.86 -132.143 740.515 -131.88 741.008C-116.815 770.082 -102.013 799.208 -89.0713 828.785C-86.3485 834.982 -81.9441 835.233 -76.577 833.508C-56.7291 827.12 -40.6024 816.599 -26.7844 803.423C-22.399 799.243 -24.5795 796.8 -30.2298 793.796C-45.4348 785.729 -60.4072 777.304 -75.5002 769.044C-94.1238 758.872 -112.769 748.73 -131.775 738.383ZM494.563 -331.419C468.776 -350.819 446.053 -368.753 421.73 -385.002C415.989 -388.851 410.606 -391.096 407.339 -384.725C399.977 -370.424 395.525 -355.104 394.477 -338.63C394.237 -334.929 395.132 -332.2 400.641 -332.414C430.708 -333.563 461.135 -332.646 494.563 -331.419ZM-81.487 284.287C-89.3498 298.383 -93.3871 313.832 -94.9995 330.149C-95.5425 335.737 -92.5212 337.92 -86.1932 337.477C-60.2546 335.66 -33.754 336.757 -7.27378 337.688C-4.54144 337.785 -0.394419 339.319 0.366194 336.34C1.03513 333.719 -2.53688 331.824 -4.95056 330.089C-26.7899 314.395 -48.7885 298.841 -70.4661 282.964C-76.3315 278.665 -79.1126 280.069 -81.487 284.287ZM-154.24 888.637C-148.423 892.731 -143.25 896.31 -138.142 899.979C-133.7 903.165 -129.462 909.767 -124.454 907.991C-119.898 906.368 -122.73 899.468 -122.767 894.828C-122.788 891.446 -122.25 887.144 -128.837 887.36C-136.997 887.636 -145.601 886.233 -154.24 888.637ZM335.147 218.315C342.108 223.827 346.584 227.778 351.519 231.142C355.718 234 360.36 240.09 364.454 238.44C368.807 236.668 366.245 229.981 366.418 225.363C366.629 219.763 362.982 217.778 357.166 217.908C350.726 218.04 344.296 218.157 335.147 218.315Z" fill="#19BFCD"/>
</g>
<path d="M569.391 -92.5803C572.112 -90.1665 574.854 -88.4706 577.444 -85.6112C582.938 -79.5448 589.039 -73.9433 594.656 -67.9674C603.56 -58.4934 613.873 -49.8737 624.019 -41.7832C630.727 -36.4349 637.777 -31.3759 644.965 -26.714C651.236 -22.6471 656.486 -17.4023 662.479 -12.9763C675.299 -3.50915 685.467 9.24427 698.017 19.1251C707.561 26.6396 716.549 34.8211 725.653 42.898C728.579 45.4947 732.138 47.0121 735.242 49.4726C738.092 51.7315 740.572 54.5531 743.303 56.9767C748.029 61.1697 751.864 67.0762 757.062 70.5896C761.172 73.368 764.556 77.4143 768.333 80.7656C774.875 86.5702 781.029 92.8215 787.584 98.6369C792.201 102.733 796.541 106.931 800.932 111.227C802.771 113.026 804.273 115.026 806.196 116.733C806.601 117.092 810.284 120.686 809.589 118.951" stroke="url(#paint45_linear_166_10863)" stroke-width="4.31741" stroke-linecap="round"/>
<path d="M570.365 -93.6792C573.085 -91.2653 575.096 -88.744 578.243 -86.5134C584.921 -81.7808 591.209 -76.3899 597.811 -71.5247C608.278 -63.8118 618.064 -54.599 627.305 -45.4881C633.414 -39.4652 639.277 -33.0672 644.761 -26.4852C649.546 -20.7433 655.378 -16.1554 660.487 -10.7315C671.413 0.870134 685.286 9.44661 696.591 20.7307C705.188 29.3123 714.382 37.2625 723.485 45.3394C726.412 47.9361 728.342 51.2884 731.155 54.0776C733.737 56.6382 736.834 58.7647 739.566 61.1883C744.291 65.3814 750.612 68.4854 754.72 73.2278C757.968 76.978 762.388 79.8558 766.165 83.2071C772.708 89.0116 779.647 94.3778 786.202 100.193C790.819 104.29 795.503 108.099 800.291 111.947C802.297 113.559 804.461 114.812 806.385 116.519C806.79 116.878 810.797 120.107 808.992 119.623" stroke="url(#paint46_linear_166_10863)" stroke-width="4.31741" stroke-linecap="round"/>
<path d="M569.442 -92.7687C572.162 -90.3548 574.905 -88.659 577.495 -85.7996C582.989 -79.7331 589.09 -74.1316 594.707 -68.1557C603.611 -58.6818 613.924 -50.0621 624.07 -41.9716C630.777 -36.6232 637.828 -31.5642 645.016 -26.9023C651.287 -22.8355 656.537 -17.5907 662.53 -13.1646C675.35 -3.69751 685.518 9.05591 698.067 18.9368C707.612 26.4513 716.6 34.6327 725.703 42.7096C728.63 45.3063 732.188 46.8238 735.293 49.2843C738.143 51.5431 740.623 54.3647 743.354 56.7884C748.08 60.9814 751.915 66.8878 757.112 70.4013C761.223 73.1796 764.606 77.2259 768.384 80.5773C774.926 86.3818 781.08 92.6331 787.635 98.4485C792.252 102.545 796.592 106.742 800.983 111.038C802.822 112.838 804.324 114.837 806.247 116.544C806.652 116.903 810.335 120.498 809.639 118.763" stroke="url(#paint47_linear_166_10863)" stroke-width="4.31741" stroke-linecap="round"/>
<path d="M570.416 -93.8675C573.136 -91.4537 575.147 -88.9324 578.294 -86.7017C584.971 -81.9691 591.26 -76.5782 597.862 -71.7131C608.328 -64.0002 618.115 -54.7873 627.356 -45.6765C633.465 -39.6536 639.327 -33.2556 644.812 -26.6736C649.597 -20.9316 655.429 -16.3438 660.537 -10.9199C671.464 0.681779 685.337 9.25826 696.642 20.5423C705.239 29.124 714.433 37.0742 723.536 45.1511C726.463 47.7478 728.393 51.1 731.206 53.8893C733.788 56.4499 736.885 58.5763 739.616 61C744.342 65.193 750.663 68.297 754.771 73.0394C758.019 76.7896 762.439 79.6674 766.216 83.0187C772.759 88.8233 779.698 94.1895 786.253 100.005C790.87 104.101 795.554 107.911 800.342 111.759C802.348 113.371 804.512 114.624 806.436 116.33C806.841 116.69 810.848 119.918 809.042 119.434" stroke="url(#paint48_linear_166_10863)" stroke-width="4.31741" stroke-linecap="round"/>
<circle cx="31.7538" cy="31.7538" r="31.7538" transform="matrix(0.748021 0.663675 0.663675 -0.748021 424.613 106.734)" fill="#0ACDDD"/>
<circle cx="31.7538" cy="31.7538" r="31.7538" transform="matrix(0.748021 0.663675 0.663675 -0.748021 424.613 106.734)" fill="url(#paint49_radial_166_10863)" style="mix-blend-mode:overlay"/>
<circle cx="31.7538" cy="31.7538" r="31.7538" transform="matrix(0.748021 0.663675 0.663675 -0.748021 424.613 106.734)" fill="url(#paint50_radial_166_10863)" style="mix-blend-mode:screen"/>
<circle cx="31.7538" cy="31.7538" r="31.7538" transform="matrix(0.748021 0.663675 0.663675 -0.748021 424.613 106.734)" fill="url(#paint51_radial_166_10863)" style="mix-blend-mode:screen"/>
<path d="M492.456 125.682C494.076 127.12 495.943 127.868 497.308 129.771C500.206 133.808 503.782 137.212 506.815 141.124C511.624 147.327 517.935 152.274 524.267 156.77C528.452 159.742 533.029 162.332 537.852 164.5C542.059 166.392 545.002 169.724 548.853 172.045C557.091 177.008 561.973 185.93 569.844 191.372C575.83 195.51 581.12 200.457 586.543 205.269C588.287 206.816 590.923 207.138 592.865 208.5C594.647 209.75 595.929 211.651 597.557 213.095C600.372 215.593 601.868 220 605.31 221.704C608.032 223.051 609.719 225.832 611.97 227.828C615.867 231.286 619.284 235.291 623.189 238.756C625.94 241.196 628.416 243.82 630.906 246.521C631.949 247.652 632.633 249.08 633.779 250.097C634.02 250.311 636.112 252.568 636.049 251.138" stroke="url(#paint52_linear_166_10863)" stroke-width="4.31741" stroke-linecap="round"/>
<path d="M493.656 124.33C495.276 125.768 496.242 127.532 498.294 128.661C502.647 131.058 506.452 134.203 510.698 136.749C517.429 140.785 523.092 146.462 528.311 152.213C531.76 156.015 534.876 160.251 537.603 164.781C539.982 168.733 543.642 171.258 546.404 174.806C552.313 182.394 561.753 186.179 568.093 193.346C572.914 198.797 578.456 203.46 583.88 208.272C585.623 209.819 586.257 212.398 587.84 214.164C589.293 215.785 591.334 216.831 592.961 218.275C595.777 220.773 600.331 221.733 602.432 224.948C604.094 227.491 607.056 228.835 609.306 230.831C613.203 234.289 617.587 237.205 621.491 240.67C624.242 243.11 627.142 245.256 630.12 247.407C631.368 248.308 632.867 248.817 634.013 249.834C634.255 250.048 636.745 251.856 635.317 251.964" stroke="url(#paint53_linear_166_10863)" stroke-width="4.31741" stroke-linecap="round"/>
<circle cx="36.7699" cy="36.7699" r="36.7699" transform="matrix(0.748021 0.663675 0.663675 -0.748021 280.797 401.869)" fill="#0ACDDD"/>
<circle cx="36.7699" cy="36.7699" r="36.7699" transform="matrix(0.748021 0.663675 0.663675 -0.748021 280.797 401.869)" fill="url(#paint54_radial_166_10863)" style="mix-blend-mode:overlay"/>
<circle cx="36.7699" cy="36.7699" r="36.7699" transform="matrix(0.748021 0.663675 0.663675 -0.748021 280.797 401.869)" fill="url(#paint55_radial_166_10863)" style="mix-blend-mode:screen"/>
<circle cx="36.7699" cy="36.7699" r="36.7699" transform="matrix(0.748021 0.663675 0.663675 -0.748021 280.797 401.869)" fill="url(#paint56_radial_166_10863)" style="mix-blend-mode:screen"/>
<path d="M304.075 375.004C304.193 375.109 304.746 374.692 304.527 375.189C304.062 376.243 304.215 376.61 303.873 377.528C303.331 378.983 304.09 379.003 305.066 378.748C305.711 378.579 306.721 378.003 308.043 377.066C309.196 376.248 309.077 376.864 309.861 376.464C311.54 375.607 309.78 378.637 311.062 378.231C312.037 377.923 312.304 378.414 312.697 378.764C312.824 378.876 313.944 377.853 314.251 377.764C314.533 377.683 314.275 378.217 314.393 378.322C314.597 378.504 313.288 380.422 314.159 379.845C314.849 379.388 314.38 380.257 314.543 380.401C314.826 380.653 314.627 381.448 314.91 381.7C315.11 381.877 315.093 382.289 315.047 382.74C315.028 382.929 314.7 383.459 314.783 383.533C314.801 383.548 314.768 383.921 315.396 383.103" stroke="url(#paint57_linear_166_10863)" stroke-width="4.31741" stroke-linecap="round"/>
<path d="M305.277 373.653C305.394 373.757 305.047 374.356 305.514 374.079C306.505 373.493 306.888 373.601 307.758 373.152C309.138 372.441 309.249 373.191 309.112 374.191C309.021 374.852 308.569 375.923 307.796 377.347C307.121 378.589 307.719 378.398 307.414 379.225C306.763 380.993 309.562 378.885 309.313 380.206C309.123 381.21 309.642 381.417 310.036 381.766C310.162 381.879 309.28 383.112 309.229 383.428C309.181 383.718 309.681 383.397 309.799 383.502C310.004 383.684 311.753 382.155 311.283 383.089C310.912 383.828 311.719 383.259 311.882 383.404C312.165 383.655 312.931 383.362 313.214 383.614C313.414 383.791 313.821 383.725 314.264 383.626C314.449 383.585 314.936 383.196 315.019 383.27C315.037 383.285 315.403 383.208 314.666 383.929" stroke="url(#paint58_linear_166_10863)" stroke-width="4.31741" stroke-linecap="round"/>
<circle cx="36.7699" cy="36.7699" r="36.7699" transform="matrix(0.748021 0.663675 0.663675 -0.748021 280.797 401.869)" fill="#0ACDDD"/>
<circle cx="36.7699" cy="36.7699" r="36.7699" transform="matrix(0.748021 0.663675 0.663675 -0.748021 280.797 401.869)" fill="url(#paint59_radial_166_10863)" style="mix-blend-mode:overlay"/>
<circle cx="36.7699" cy="36.7699" r="36.7699" transform="matrix(0.748021 0.663675 0.663675 -0.748021 280.797 401.869)" fill="url(#paint60_radial_166_10863)" style="mix-blend-mode:screen"/>
<circle cx="36.7699" cy="36.7699" r="36.7699" transform="matrix(0.748021 0.663675 0.663675 -0.748021 280.797 401.869)" fill="url(#paint61_radial_166_10863)" style="mix-blend-mode:screen"/>
<circle cx="137.228" cy="501.151" r="8.35418" transform="rotate(41.5808 137.228 501.151)" fill="#0ACDDD"/>
<circle cx="137.228" cy="501.151" r="8.35418" transform="rotate(41.5808 137.228 501.151)" fill="url(#paint62_radial_166_10863)" style="mix-blend-mode:overlay"/>
<circle cx="137.228" cy="501.151" r="8.35418" transform="rotate(41.5808 137.228 501.151)" fill="url(#paint63_radial_166_10863)" style="mix-blend-mode:screen"/>
<circle cx="137.228" cy="501.151" r="8.35418" transform="rotate(41.5808 137.228 501.151)" fill="url(#paint64_radial_166_10863)" style="mix-blend-mode:screen"/>
<path d="M141.633 506.398C142.582 507.24 143.861 507.468 144.518 508.742C145.913 511.445 147.958 513.491 149.482 516.064C151.898 520.143 155.726 522.888 159.663 525.259C162.266 526.827 165.248 528.001 168.505 528.78C171.346 529.46 172.92 531.579 175.4 532.682C180.705 535.043 182.617 541.33 187.542 544.158C191.287 546.308 194.331 549.262 197.505 552.079C198.525 552.984 200.484 552.705 201.694 553.418C202.806 554.072 203.399 555.363 204.352 556.208C206 557.67 206.241 560.964 208.534 561.648C210.347 562.188 211.07 564.114 212.387 565.283C214.668 567.307 216.468 569.877 218.754 571.904C220.364 573.333 221.725 574.967 223.081 576.663C223.649 577.373 223.881 578.399 224.552 578.994C224.693 579.119 225.834 580.534 226.081 579.378" stroke="url(#paint65_linear_166_10863)" stroke-width="4.31741" stroke-linecap="round"/>
<path d="M142.833 505.047C143.782 505.888 144.16 507.131 145.504 507.632C148.353 508.694 150.628 510.481 153.365 511.688C157.703 513.602 160.884 517.076 163.707 520.702C165.573 523.1 167.094 525.92 168.256 529.062C169.269 531.802 171.56 533.112 172.951 535.443C175.926 540.429 182.397 541.579 185.79 546.132C188.371 549.595 191.667 552.265 194.841 555.081C195.862 555.987 195.818 557.964 196.67 559.082C197.452 560.108 198.804 560.543 199.756 561.388C201.404 562.85 204.704 562.697 205.656 564.893C206.408 566.629 208.407 567.117 209.724 568.286C212.005 570.31 214.771 571.791 217.056 573.819C218.666 575.247 220.451 576.404 222.296 577.549C223.069 578.028 224.115 578.136 224.786 578.731C224.927 578.856 226.467 579.821 225.349 580.203" stroke="url(#paint66_linear_166_10863)" stroke-width="4.31741" stroke-linecap="round"/>
<circle cx="250.993" cy="602.087" r="33.4239" transform="rotate(41.5808 250.993 602.087)" fill="#0ACDDD"/>
<circle cx="250.993" cy="602.087" r="33.4239" transform="rotate(41.5808 250.993 602.087)" fill="url(#paint67_radial_166_10863)" style="mix-blend-mode:overlay"/>
<circle cx="250.993" cy="602.087" r="33.4239" transform="rotate(41.5808 250.993 602.087)" fill="url(#paint68_radial_166_10863)" style="mix-blend-mode:screen"/>
<circle cx="250.993" cy="602.087" r="33.4239" transform="rotate(41.5808 250.993 602.087)" fill="url(#paint69_radial_166_10863)" style="mix-blend-mode:screen"/>
<path d="M-125.163 701.305C-122.699 703.491 -120.097 704.893 -117.842 707.585C-113.058 713.295 -107.563 718.403 -102.635 723.995C-94.8244 732.861 -85.3993 740.571 -76.0632 747.733C-69.8914 752.468 -63.3133 756.832 -56.5269 760.743C-50.6066 764.155 -45.9466 769.011 -40.3748 772.858C-28.4569 781.086 -19.8496 793.314 -8.28163 802.035C0.515916 808.668 8.6231 816.115 16.8678 823.43C19.5184 825.782 23.005 826.858 25.8638 829.034C28.4882 831.03 30.6343 833.699 33.1083 835.894C37.3885 839.691 40.4581 845.495 45.3424 848.478C49.2048 850.836 52.1011 854.69 55.5221 857.726C61.4472 862.983 66.8937 868.788 72.8299 874.055C77.0115 877.765 80.8862 881.629 84.7984 885.592C86.4374 887.253 87.6899 889.185 89.4321 890.73C89.7987 891.056 93.0818 894.37 92.6315 892.596" stroke="url(#paint70_linear_166_10863)" stroke-width="4.31741" stroke-linecap="round"/>
<path d="M-123.963 699.953C-121.499 702.139 -119.797 704.557 -116.857 706.475C-110.617 710.545 -104.892 715.393 -98.7525 719.619C-89.0197 726.319 -80.2419 734.759 -72.0193 743.176C-66.5836 748.74 -61.4667 754.752 -56.7757 761.024C-52.6834 766.496 -47.3065 770.545 -42.8237 775.619C-33.2352 786.472 -20.0696 793.563 -10.033 804.01C-2.39999 811.955 5.95957 819.118 14.2042 826.433C16.8549 828.785 18.3392 832.118 20.8392 834.698C23.1343 837.066 26.039 838.879 28.513 841.074C32.7932 844.871 38.9211 847.228 42.4642 851.722C45.266 855.276 49.4376 857.693 52.8585 860.728C58.7837 865.986 65.196 870.702 71.1322 875.969C75.3139 879.679 79.6122 883.066 84.0129 886.478C85.8566 887.908 87.924 888.922 89.6662 890.467C90.0328 890.793 93.7148 893.658 91.8998 893.422" stroke="url(#paint71_linear_166_10863)" stroke-width="4.31741" stroke-linecap="round"/>
<circle cx="108.856" cy="908.345" r="21.7238" transform="rotate(41.5808 108.856 908.345)" fill="#0ACDDD"/>
<circle cx="108.856" cy="908.345" r="21.7238" transform="rotate(41.5808 108.856 908.345)" fill="url(#paint72_radial_166_10863)" style="mix-blend-mode:overlay"/>
<circle cx="108.856" cy="908.345" r="21.7238" transform="rotate(41.5808 108.856 908.345)" fill="url(#paint73_radial_166_10863)" style="mix-blend-mode:screen"/>
<circle cx="108.856" cy="908.345" r="21.7238" transform="rotate(41.5808 108.856 908.345)" fill="url(#paint74_radial_166_10863)" style="mix-blend-mode:screen"/>
</g>
<defs>
<filter id="filter0_f_166_10863" x="-286.188" y="-461.43" width="1156.28" height="1404.95" filterUnits="userSpaceOnUse" color-interpolation-filters="sRGB">
<feFlood flood-opacity="0" result="BackgroundImageFix"/>
<feBlend mode="normal" in="SourceGraphic" in2="BackgroundImageFix" result="shape"/>
<feGaussianBlur stdDeviation="31.75" result="effect1_foregroundBlur_166_10863"/>
</filter>
<filter id="filter1_f_166_10863" x="-144.575" y="-118.731" width="949.993" height="1051.25" filterUnits="userSpaceOnUse" color-interpolation-filters="sRGB">
<feFlood flood-opacity="0" result="BackgroundImageFix"/>
<feBlend mode="normal" in="SourceGraphic" in2="BackgroundImageFix" result="shape"/>
<feGaussianBlur stdDeviation="5.39676" result="effect1_foregroundBlur_166_10863"/>
</filter>
<filter id="filter2_f_166_10863" x="-155.237" y="-93.9346" width="938.298" height="1033.24" filterUnits="userSpaceOnUse" color-interpolation-filters="sRGB">
<feFlood flood-opacity="0" result="BackgroundImageFix"/>
<feBlend mode="normal" in="SourceGraphic" in2="BackgroundImageFix" result="shape"/>
<feGaussianBlur stdDeviation="5.39676" result="effect1_foregroundBlur_166_10863"/>
</filter>
<filter id="filter3_f_166_10863" x="-124.559" y="-141.895" width="949.993" height="1051.25" filterUnits="userSpaceOnUse" color-interpolation-filters="sRGB">
<feFlood flood-opacity="0" result="BackgroundImageFix"/>
<feBlend mode="normal" in="SourceGraphic" in2="BackgroundImageFix" result="shape"/>
<feGaussianBlur stdDeviation="5.39676" result="effect1_foregroundBlur_166_10863"/>
</filter>
<filter id="filter4_f_166_10863" x="-415.473" y="-583.804" width="1386.32" height="1660.23" filterUnits="userSpaceOnUse" color-interpolation-filters="sRGB">
<feFlood flood-opacity="0" result="BackgroundImageFix"/>
<feBlend mode="normal" in="SourceGraphic" in2="BackgroundImageFix" result="shape"/>
<feGaussianBlur stdDeviation="40.3" result="effect1_foregroundBlur_166_10863"/>
</filter>
<linearGradient id="paint0_linear_166_10863" x1="52.8918" y1="709.057" x2="47.7837" y2="714.814" gradientUnits="userSpaceOnUse">
<stop stop-color="#34E0EC" stop-opacity="0"/>
<stop offset="0.43" stop-color="#33DFEB"/>
<stop offset="1" stop-color="#34E0EC" stop-opacity="0"/>
</linearGradient>
<linearGradient id="paint1_linear_166_10863" x1="47.7844" y1="714.814" x2="52.8926" y2="709.057" gradientUnits="userSpaceOnUse">
<stop stop-color="#34E0EC" stop-opacity="0"/>
<stop offset="0.43" stop-color="#33DFEB"/>
<stop offset="1" stop-color="#34E0EC" stop-opacity="0"/>
</linearGradient>
<radialGradient id="paint2_radial_166_10863" cx="0" cy="0" r="1" gradientUnits="userSpaceOnUse" gradientTransform="translate(172.252 808.416) rotate(107.17) scale(29.3654)">
<stop stop-color="#0A8F98"/>
<stop offset="1" stop-color="#064448"/>
</radialGradient>
<radialGradient id="paint3_radial_166_10863" cx="0" cy="0" r="1" gradientUnits="userSpaceOnUse" gradientTransform="translate(149.468 811.403) rotate(4.688) scale(34.5154)">
<stop stop-color="white"/>
<stop offset="1" stop-color="#033D3A" stop-opacity="0"/>
</radialGradient>
<radialGradient id="paint4_radial_166_10863" cx="0" cy="0" r="1" gradientUnits="userSpaceOnUse" gradientTransform="translate(170.912 830.307) rotate(-19.5025) scale(22.7493 10.4656)">
<stop stop-color="white" stop-opacity="0.62"/>
<stop offset="1" stop-color="#033D3A" stop-opacity="0"/>
</radialGradient>
<radialGradient id="paint5_radial_166_10863" cx="0" cy="0" r="1" gradientUnits="userSpaceOnUse" gradientTransform="translate(39.908 555.179) rotate(107.17) scale(9.78565)">
<stop stop-color="#0A8F98"/>
<stop offset="1" stop-color="#064448"/>
</radialGradient>
<radialGradient id="paint6_radial_166_10863" cx="0" cy="0" r="1" gradientUnits="userSpaceOnUse" gradientTransform="translate(32.3154 556.174) rotate(4.688) scale(11.5018)">
<stop stop-color="white"/>
<stop offset="1" stop-color="#033D3A" stop-opacity="0"/>
</radialGradient>
<radialGradient id="paint7_radial_166_10863" cx="0" cy="0" r="1" gradientUnits="userSpaceOnUse" gradientTransform="translate(39.4613 562.474) rotate(-19.5025) scale(7.58092 3.48754)">
<stop stop-color="white" stop-opacity="0.62"/>
<stop offset="1" stop-color="#033D3A" stop-opacity="0"/>
</radialGradient>
<linearGradient id="paint8_linear_166_10863" x1="117.595" y1="622.592" x2="112.487" y2="628.349" gradientUnits="userSpaceOnUse">
<stop stop-color="#34E0EC" stop-opacity="0"/>
<stop offset="0.43" stop-color="#33DFEB"/>
<stop offset="1" stop-color="#34E0EC" stop-opacity="0"/>
</linearGradient>
<linearGradient id="paint9_linear_166_10863" x1="112.488" y1="628.349" x2="117.596" y2="622.592" gradientUnits="userSpaceOnUse">
<stop stop-color="#34E0EC" stop-opacity="0"/>
<stop offset="0.43" stop-color="#33DFEB"/>
<stop offset="1" stop-color="#34E0EC" stop-opacity="0"/>
</linearGradient>
<radialGradient id="paint10_radial_166_10863" cx="0" cy="0" r="1" gradientUnits="userSpaceOnUse" gradientTransform="translate(220.52 705.457) rotate(107.17) scale(37.1956)">
<stop stop-color="#0A8F98"/>
<stop offset="1" stop-color="#064448"/>
</radialGradient>
<radialGradient id="paint11_radial_166_10863" cx="0" cy="0" r="1" gradientUnits="userSpaceOnUse" gradientTransform="translate(191.661 709.24) rotate(4.688) scale(43.7188)">
<stop stop-color="white"/>
<stop offset="1" stop-color="#033D3A" stop-opacity="0"/>
</radialGradient>
<radialGradient id="paint12_radial_166_10863" cx="0" cy="0" r="1" gradientUnits="userSpaceOnUse" gradientTransform="translate(218.823 733.185) rotate(-19.5025) scale(28.8153 13.2563)">
<stop stop-color="white" stop-opacity="0.62"/>
<stop offset="1" stop-color="#033D3A" stop-opacity="0"/>
</radialGradient>
<radialGradient id="paint13_radial_166_10863" cx="0" cy="0" r="1" gradientUnits="userSpaceOnUse" gradientTransform="translate(249.088 455.227) rotate(107.17) scale(7.83021)">
<stop stop-color="#0A8F98"/>
<stop offset="1" stop-color="#064448"/>
</radialGradient>
<radialGradient id="paint14_radial_166_10863" cx="0" cy="0" r="1" gradientUnits="userSpaceOnUse" gradientTransform="translate(243.013 456.024) rotate(4.688) scale(9.20344)">
<stop stop-color="white"/>
<stop offset="1" stop-color="#033D3A" stop-opacity="0"/>
</radialGradient>
<radialGradient id="paint15_radial_166_10863" cx="0" cy="0" r="1" gradientUnits="userSpaceOnUse" gradientTransform="translate(248.731 461.064) rotate(-19.5025) scale(6.06604 2.79064)">
<stop stop-color="white" stop-opacity="0.62"/>
<stop offset="1" stop-color="#033D3A" stop-opacity="0"/>
</radialGradient>
<linearGradient id="paint16_linear_166_10863" x1="263.866" y1="466.546" x2="258.758" y2="472.303" gradientUnits="userSpaceOnUse">
<stop stop-color="#34E0EC" stop-opacity="0"/>
<stop offset="0.43" stop-color="#33DFEB"/>
<stop offset="1" stop-color="#34E0EC" stop-opacity="0"/>
</linearGradient>
<linearGradient id="paint17_linear_166_10863" x1="258.759" y1="472.303" x2="263.867" y2="466.546" gradientUnits="userSpaceOnUse">
<stop stop-color="#34E0EC" stop-opacity="0"/>
<stop offset="0.43" stop-color="#33DFEB"/>
<stop offset="1" stop-color="#34E0EC" stop-opacity="0"/>
</linearGradient>
<radialGradient id="paint18_radial_166_10863" cx="0" cy="0" r="1" gradientUnits="userSpaceOnUse" gradientTransform="translate(301.855 489.23) rotate(107.17) scale(43.0703)">
<stop stop-color="#0A8F98"/>
<stop offset="1" stop-color="#064448"/>
</radialGradient>
<radialGradient id="paint19_radial_166_10863" cx="0" cy="0" r="1" gradientUnits="userSpaceOnUse" gradientTransform="translate(268.437 493.611) rotate(4.688) scale(50.6239)">
<stop stop-color="white"/>
<stop offset="1" stop-color="#033D3A" stop-opacity="0"/>
</radialGradient>
<radialGradient id="paint20_radial_166_10863" cx="0" cy="0" r="1" gradientUnits="userSpaceOnUse" gradientTransform="translate(299.89 521.337) rotate(-19.5025) scale(33.3665 15.35)">
<stop stop-color="white" stop-opacity="0.62"/>
<stop offset="1" stop-color="#033D3A" stop-opacity="0"/>
</radialGradient>
<radialGradient id="paint21_radial_166_10863" cx="0" cy="0" r="1" gradientUnits="userSpaceOnUse" gradientTransform="translate(49.4818 32.3871) rotate(107.17) scale(43.0676)">
<stop stop-color="#0A8F98"/>
<stop offset="1" stop-color="#064448"/>
</radialGradient>
<radialGradient id="paint22_radial_166_10863" cx="0" cy="0" r="1" gradientUnits="userSpaceOnUse" gradientTransform="translate(16.066 36.7676) rotate(4.688) scale(50.6207)">
<stop stop-color="white"/>
<stop offset="1" stop-color="#033D3A" stop-opacity="0"/>
</radialGradient>
<radialGradient id="paint23_radial_166_10863" cx="0" cy="0" r="1" gradientUnits="userSpaceOnUse" gradientTransform="translate(47.5162 64.4925) rotate(-19.5025) scale(33.3644 15.349)">
<stop stop-color="white" stop-opacity="0.62"/>
<stop offset="1" stop-color="#033D3A" stop-opacity="0"/>
</radialGradient>
<linearGradient id="paint24_linear_166_10863" x1="401.096" y1="332.654" x2="395.988" y2="338.411" gradientUnits="userSpaceOnUse">
<stop stop-color="#34E0EC" stop-opacity="0"/>
<stop offset="0.43" stop-color="#33DFEB"/>
<stop offset="1" stop-color="#34E0EC" stop-opacity="0"/>
</linearGradient>
<linearGradient id="paint25_linear_166_10863" x1="395.989" y1="338.411" x2="401.097" y2="332.654" gradientUnits="userSpaceOnUse">
<stop stop-color="#34E0EC" stop-opacity="0"/>
<stop offset="0.43" stop-color="#33DFEB"/>
<stop offset="1" stop-color="#34E0EC" stop-opacity="0"/>
</linearGradient>
<radialGradient id="paint26_radial_166_10863" cx="0" cy="0" r="1" gradientUnits="userSpaceOnUse" gradientTransform="translate(8.99669 5.88856) rotate(107.17) scale(7.83048)">
<stop stop-color="#0A8F98"/>
<stop offset="1" stop-color="#064448"/>
</radialGradient>
<radialGradient id="paint27_radial_166_10863" cx="0" cy="0" r="1" gradientUnits="userSpaceOnUse" gradientTransform="translate(2.92109 6.68502) rotate(4.688) scale(9.20376)">
<stop stop-color="white"/>
<stop offset="1" stop-color="#033D3A" stop-opacity="0"/>
</radialGradient>
<radialGradient id="paint28_radial_166_10863" cx="0" cy="0" r="1" gradientUnits="userSpaceOnUse" gradientTransform="translate(8.63931 11.7259) rotate(-19.5025) scale(6.06625 2.79073)">
<stop stop-color="white" stop-opacity="0.62"/>
<stop offset="1" stop-color="#033D3A" stop-opacity="0"/>
</radialGradient>
<radialGradient id="paint29_radial_166_10863" cx="0" cy="0" r="1" gradientUnits="userSpaceOnUse" gradientTransform="translate(44.9835 29.4428) rotate(107.17) scale(39.1524)">
<stop stop-color="#0A8F98"/>
<stop offset="1" stop-color="#064448"/>
</radialGradient>
<radialGradient id="paint30_radial_166_10863" cx="0" cy="0" r="1" gradientUnits="userSpaceOnUse" gradientTransform="translate(14.6055 33.4251) rotate(4.688) scale(46.0188)">
<stop stop-color="white"/>
<stop offset="1" stop-color="#033D3A" stop-opacity="0"/>
</radialGradient>
<radialGradient id="paint31_radial_166_10863" cx="0" cy="0" r="1" gradientUnits="userSpaceOnUse" gradientTransform="translate(43.1965 58.6295) rotate(-19.5025) scale(30.3313 13.9537)">
<stop stop-color="white" stop-opacity="0.62"/>
<stop offset="1" stop-color="#033D3A" stop-opacity="0"/>
</radialGradient>
<linearGradient id="paint32_linear_166_10863" x1="495.366" y1="269.043" x2="490.258" y2="274.8" gradientUnits="userSpaceOnUse">
<stop stop-color="#34E0EC" stop-opacity="0"/>
<stop offset="0.43" stop-color="#33DFEB"/>
<stop offset="1" stop-color="#34E0EC" stop-opacity="0"/>
</linearGradient>
<linearGradient id="paint33_linear_166_10863" x1="490.258" y1="274.8" x2="495.367" y2="269.043" gradientUnits="userSpaceOnUse">
<stop stop-color="#34E0EC" stop-opacity="0"/>
<stop offset="0.43" stop-color="#33DFEB"/>
<stop offset="1" stop-color="#34E0EC" stop-opacity="0"/>
</linearGradient>
<radialGradient id="paint34_radial_166_10863" cx="0" cy="0" r="1" gradientUnits="userSpaceOnUse" gradientTransform="translate(11.2459 7.3607) rotate(107.17) scale(9.7881)">
<stop stop-color="#0A8F98"/>
<stop offset="1" stop-color="#064448"/>
</radialGradient>
<radialGradient id="paint35_radial_166_10863" cx="0" cy="0" r="1" gradientUnits="userSpaceOnUse" gradientTransform="translate(3.65136 8.35627) rotate(4.688) scale(11.5047)">
<stop stop-color="white"/>
<stop offset="1" stop-color="#033D3A" stop-opacity="0"/>
</radialGradient>
<radialGradient id="paint36_radial_166_10863" cx="0" cy="0" r="1" gradientUnits="userSpaceOnUse" gradientTransform="translate(10.7991 14.6574) rotate(-19.5025) scale(7.58281 3.48842)">
<stop stop-color="white" stop-opacity="0.62"/>
<stop offset="1" stop-color="#033D3A" stop-opacity="0"/>
</radialGradient>
<radialGradient id="paint37_radial_166_10863" cx="0" cy="0" r="1" gradientUnits="userSpaceOnUse" gradientTransform="translate(29.2393 19.1378) rotate(107.17) scale(25.4491)">
<stop stop-color="#0A8F98"/>
<stop offset="1" stop-color="#064448"/>
</radialGradient>
<radialGradient id="paint38_radial_166_10863" cx="0" cy="0" r="1" gradientUnits="userSpaceOnUse" gradientTransform="translate(9.49354 21.7263) rotate(4.688) scale(29.9122)">
<stop stop-color="white"/>
<stop offset="1" stop-color="#033D3A" stop-opacity="0"/>
</radialGradient>
<radialGradient id="paint39_radial_166_10863" cx="0" cy="0" r="1" gradientUnits="userSpaceOnUse" gradientTransform="translate(28.0777 38.1092) rotate(-19.5025) scale(19.7153 9.06988)">
<stop stop-color="white" stop-opacity="0.62"/>
<stop offset="1" stop-color="#033D3A" stop-opacity="0"/>
</radialGradient>
<linearGradient id="paint40_linear_166_10863" x1="625.989" y1="95.2674" x2="620.88" y2="101.025" gradientUnits="userSpaceOnUse">
<stop stop-color="#34E0EC" stop-opacity="0"/>
<stop offset="0.43" stop-color="#33DFEB"/>
<stop offset="1" stop-color="#34E0EC" stop-opacity="0"/>
</linearGradient>
<linearGradient id="paint41_linear_166_10863" x1="620.881" y1="101.025" x2="625.989" y2="95.2673" gradientUnits="userSpaceOnUse">
<stop stop-color="#34E0EC" stop-opacity="0"/>
<stop offset="0.43" stop-color="#33DFEB"/>
<stop offset="1" stop-color="#34E0EC" stop-opacity="0"/>
</linearGradient>
<linearGradient id="paint42_linear_166_10863" x1="334.471" y1="-109.371" x2="326.373" y2="923.162" gradientUnits="userSpaceOnUse">
<stop stop-color="#88D4DA" stop-opacity="0"/>
<stop offset="0.305" stop-color="white" stop-opacity="0.523256"/>
<stop offset="0.495" stop-color="#78E0E8"/>
<stop offset="0.74" stop-color="white" stop-opacity="0.45"/>
<stop offset="1" stop-color="#BAF2F6" stop-opacity="0"/>
</linearGradient>
<linearGradient id="paint43_linear_166_10863" x1="323.809" y1="-102.586" x2="315.711" y2="929.947" gradientUnits="userSpaceOnUse">
<stop stop-color="#88D4DA" stop-opacity="0"/>
<stop offset="0.305" stop-color="white" stop-opacity="0.523256"/>
<stop offset="0.495" stop-color="#78E0E8"/>
<stop offset="0.74" stop-color="white" stop-opacity="0.45"/>
<stop offset="1" stop-color="#BAF2F6" stop-opacity="0"/>
</linearGradient>
<linearGradient id="paint44_linear_166_10863" x1="354.487" y1="-132.535" x2="346.389" y2="899.998" gradientUnits="userSpaceOnUse">
<stop stop-color="#88D4DA" stop-opacity="0"/>
<stop offset="0.305" stop-color="white" stop-opacity="0.523256"/>
<stop offset="0.495" stop-color="#78E0E8"/>
<stop offset="0.74" stop-color="white" stop-opacity="0.45"/>
<stop offset="1" stop-color="#BAF2F6" stop-opacity="0"/>
</linearGradient>
<linearGradient id="paint45_linear_166_10863" x1="691.786" y1="10.8486" x2="687.633" y2="15.5294" gradientUnits="userSpaceOnUse">
<stop stop-color="#34E0EC" stop-opacity="0"/>
<stop offset="0.43" stop-color="#33DFEB"/>
<stop offset="1" stop-color="#34E0EC" stop-opacity="0"/>
</linearGradient>
<linearGradient id="paint46_linear_166_10863" x1="687.631" y1="15.5295" x2="691.784" y2="10.8487" gradientUnits="userSpaceOnUse">
<stop stop-color="#34E0EC" stop-opacity="0"/>
<stop offset="0.43" stop-color="#33DFEB"/>
<stop offset="1" stop-color="#34E0EC" stop-opacity="0"/>
</linearGradient>
<linearGradient id="paint47_linear_166_10863" x1="691.836" y1="10.6602" x2="687.683" y2="15.341" gradientUnits="userSpaceOnUse">
<stop stop-color="#34E0EC" stop-opacity="0"/>
<stop offset="0.43" stop-color="#33DFEB"/>
<stop offset="1" stop-color="#34E0EC" stop-opacity="0"/>
</linearGradient>
<linearGradient id="paint48_linear_166_10863" x1="687.682" y1="15.3411" x2="691.835" y2="10.6603" gradientUnits="userSpaceOnUse">
<stop stop-color="#34E0EC" stop-opacity="0"/>
<stop offset="0.43" stop-color="#33DFEB"/>
<stop offset="1" stop-color="#34E0EC" stop-opacity="0"/>
</linearGradient>
<radialGradient id="paint49_radial_166_10863" cx="0" cy="0" r="1" gradientUnits="userSpaceOnUse" gradientTransform="translate(42.7343 27.9706) rotate(107.17) scale(37.1948)">
<stop stop-color="#0A8F98"/>
<stop offset="1" stop-color="#064448"/>
</radialGradient>
<radialGradient id="paint50_radial_166_10863" cx="0" cy="0" r="1" gradientUnits="userSpaceOnUse" gradientTransform="translate(13.8752 31.7538) rotate(4.688) scale(43.7179)">
<stop stop-color="white"/>
<stop offset="1" stop-color="#033D3A" stop-opacity="0"/>
</radialGradient>
<radialGradient id="paint51_radial_166_10863" cx="0" cy="0" r="1" gradientUnits="userSpaceOnUse" gradientTransform="translate(41.0367 55.698) rotate(-19.5025) scale(28.8147 13.256)">
<stop stop-color="white" stop-opacity="0.62"/>
<stop offset="1" stop-color="#033D3A" stop-opacity="0"/>
</radialGradient>
<linearGradient id="paint52_linear_166_10863" x1="566.997" y1="185.466" x2="561.889" y2="191.223" gradientUnits="userSpaceOnUse">
<stop stop-color="#34E0EC" stop-opacity="0"/>
<stop offset="0.43" stop-color="#33DFEB"/>
<stop offset="1" stop-color="#34E0EC" stop-opacity="0"/>
</linearGradient>
<linearGradient id="paint53_linear_166_10863" x1="561.89" y1="191.223" x2="566.998" y2="185.466" gradientUnits="userSpaceOnUse">
<stop stop-color="#34E0EC" stop-opacity="0"/>
<stop offset="0.43" stop-color="#33DFEB"/>
<stop offset="1" stop-color="#34E0EC" stop-opacity="0"/>
</linearGradient>
<radialGradient id="paint54_radial_166_10863" cx="0" cy="0" r="1" gradientUnits="userSpaceOnUse" gradientTransform="translate(49.4849 32.3891) rotate(107.17) scale(43.0703)">
<stop stop-color="#0A8F98"/>
<stop offset="1" stop-color="#064448"/>
</radialGradient>
<radialGradient id="paint55_radial_166_10863" cx="0" cy="0" r="1" gradientUnits="userSpaceOnUse" gradientTransform="translate(16.067 36.7699) rotate(4.688) scale(50.6239)">
<stop stop-color="white"/>
<stop offset="1" stop-color="#033D3A" stop-opacity="0"/>
</radialGradient>
<radialGradient id="paint56_radial_166_10863" cx="0" cy="0" r="1" gradientUnits="userSpaceOnUse" gradientTransform="translate(47.5192 64.4965) rotate(-19.5025) scale(33.3665 15.35)">
<stop stop-color="white" stop-opacity="0.62"/>
<stop offset="1" stop-color="#033D3A" stop-opacity="0"/>
</radialGradient>
<linearGradient id="paint57_linear_166_10863" x1="312.412" y1="376.049" x2="307.303" y2="381.806" gradientUnits="userSpaceOnUse">
<stop stop-color="#34E0EC" stop-opacity="0"/>
<stop offset="0.43" stop-color="#33DFEB"/>
<stop offset="1" stop-color="#34E0EC" stop-opacity="0"/>
</linearGradient>
<linearGradient id="paint58_linear_166_10863" x1="307.306" y1="381.806" x2="312.414" y2="376.049" gradientUnits="userSpaceOnUse">
<stop stop-color="#34E0EC" stop-opacity="0"/>
<stop offset="0.43" stop-color="#33DFEB"/>
<stop offset="1" stop-color="#34E0EC" stop-opacity="0"/>
</linearGradient>
<radialGradient id="paint59_radial_166_10863" cx="0" cy="0" r="1" gradientUnits="userSpaceOnUse" gradientTransform="translate(49.4849 32.3891) rotate(107.17) scale(43.0703)">
<stop stop-color="#0A8F98"/>
<stop offset="1" stop-color="#064448"/>
</radialGradient>
<radialGradient id="paint60_radial_166_10863" cx="0" cy="0" r="1" gradientUnits="userSpaceOnUse" gradientTransform="translate(16.067 36.7699) rotate(4.688) scale(50.6239)">
<stop stop-color="white"/>
<stop offset="1" stop-color="#033D3A" stop-opacity="0"/>
</radialGradient>
<radialGradient id="paint61_radial_166_10863" cx="0" cy="0" r="1" gradientUnits="userSpaceOnUse" gradientTransform="translate(47.5192 64.4965) rotate(-19.5025) scale(33.3665 15.35)">
<stop stop-color="white" stop-opacity="0.62"/>
<stop offset="1" stop-color="#033D3A" stop-opacity="0"/>
</radialGradient>
<radialGradient id="paint62_radial_166_10863" cx="0" cy="0" r="1" gradientUnits="userSpaceOnUse" gradientTransform="translate(140.117 500.155) rotate(107.17) scale(9.78565)">
<stop stop-color="#0A8F98"/>
<stop offset="1" stop-color="#064448"/>
</radialGradient>
<radialGradient id="paint63_radial_166_10863" cx="0" cy="0" r="1" gradientUnits="userSpaceOnUse" gradientTransform="translate(132.524 501.151) rotate(4.688) scale(11.5018)">
<stop stop-color="white"/>
<stop offset="1" stop-color="#033D3A" stop-opacity="0"/>
</radialGradient>
<radialGradient id="paint64_radial_166_10863" cx="0" cy="0" r="1" gradientUnits="userSpaceOnUse" gradientTransform="translate(139.67 507.45) rotate(-19.5025) scale(7.58092 3.48754)">
<stop stop-color="white" stop-opacity="0.62"/>
<stop offset="1" stop-color="#033D3A" stop-opacity="0"/>
</radialGradient>
<linearGradient id="paint65_linear_166_10863" x1="186.571" y1="539.916" x2="181.463" y2="545.674" gradientUnits="userSpaceOnUse">
<stop stop-color="#34E0EC" stop-opacity="0"/>
<stop offset="0.43" stop-color="#33DFEB"/>
<stop offset="1" stop-color="#34E0EC" stop-opacity="0"/>
</linearGradient>
<linearGradient id="paint66_linear_166_10863" x1="181.464" y1="545.674" x2="186.572" y2="539.916" gradientUnits="userSpaceOnUse">
<stop stop-color="#34E0EC" stop-opacity="0"/>
<stop offset="0.43" stop-color="#33DFEB"/>
<stop offset="1" stop-color="#34E0EC" stop-opacity="0"/>
</linearGradient>
<radialGradient id="paint67_radial_166_10863" cx="0" cy="0" r="1" gradientUnits="userSpaceOnUse" gradientTransform="translate(262.551 598.105) rotate(107.17) scale(39.151)">
<stop stop-color="#0A8F98"/>
<stop offset="1" stop-color="#064448"/>
</radialGradient>
<radialGradient id="paint68_radial_166_10863" cx="0" cy="0" r="1" gradientUnits="userSpaceOnUse" gradientTransform="translate(232.174 602.087) rotate(4.688) scale(46.0172)">
<stop stop-color="white"/>
<stop offset="1" stop-color="#033D3A" stop-opacity="0"/>
</radialGradient>
<radialGradient id="paint69_radial_166_10863" cx="0" cy="0" r="1" gradientUnits="userSpaceOnUse" gradientTransform="translate(260.764 627.291) rotate(-19.5025) scale(30.3302 13.9532)">
<stop stop-color="white" stop-opacity="0.62"/>
<stop offset="1" stop-color="#033D3A" stop-opacity="0"/>
</radialGradient>
<linearGradient id="paint70_linear_166_10863" x1="-13.4824" y1="794.041" x2="-18.5905" y2="799.798" gradientUnits="userSpaceOnUse">
<stop stop-color="#34E0EC" stop-opacity="0"/>
<stop offset="0.43" stop-color="#33DFEB"/>
<stop offset="1" stop-color="#34E0EC" stop-opacity="0"/>
</linearGradient>
<linearGradient id="paint71_linear_166_10863" x1="-18.5898" y1="799.798" x2="-13.4817" y2="794.041" gradientUnits="userSpaceOnUse">
<stop stop-color="#34E0EC" stop-opacity="0"/>
<stop offset="0.43" stop-color="#33DFEB"/>
<stop offset="1" stop-color="#34E0EC" stop-opacity="0"/>
</linearGradient>
<radialGradient id="paint72_radial_166_10863" cx="0" cy="0" r="1" gradientUnits="userSpaceOnUse" gradientTransform="translate(116.368 905.757) rotate(107.17) scale(25.4461)">
<stop stop-color="#0A8F98"/>
<stop offset="1" stop-color="#064448"/>
</radialGradient>
<radialGradient id="paint73_radial_166_10863" cx="0" cy="0" r="1" gradientUnits="userSpaceOnUse" gradientTransform="translate(96.6244 908.345) rotate(4.688) scale(29.9087)">
<stop stop-color="white"/>
<stop offset="1" stop-color="#033D3A" stop-opacity="0"/>
</radialGradient>
<radialGradient id="paint74_radial_166_10863" cx="0" cy="0" r="1" gradientUnits="userSpaceOnUse" gradientTransform="translate(115.206 924.726) rotate(-19.5025) scale(19.713 9.06881)">
<stop stop-color="white" stop-opacity="0.62"/>
<stop offset="1" stop-color="#033D3A" stop-opacity="0"/>
</radialGradient>
</defs>
</svg>
