<svg width="119" height="75" viewBox="0 0 119 75" fill="none" xmlns="http://www.w3.org/2000/svg">
<g clip-path="url(#clip0_166_11171)">
<path d="M91.0285 12.6601C90.6864 12.6991 90.3502 12.6991 90.0259 12.6631C88.4165 12.4891 86.8248 13.1191 85.6824 14.2741L85.2719 14.6881C84.0789 15.8911 83.5613 17.5741 83.6922 19.2691C83.7011 19.3861 83.707 19.5031 83.707 19.6231C83.707 19.7431 83.7011 19.8601 83.6922 19.9771C83.5613 21.6751 84.0789 23.3551 85.2719 24.5581L85.5694 24.8581C86.7415 26.0401 88.3718 26.7121 90.02 26.5321C90.3413 26.4961 90.6745 26.4961 91.0107 26.5321C93.0961 26.7631 94.78 28.4971 94.9674 30.6031C95.2203 33.4261 92.8909 35.7721 90.0914 35.5201C88.0119 35.3311 86.2953 33.6511 86.0543 31.5601C86.0156 31.2151 86.0127 30.8761 86.0484 30.5491C86.215 28.9321 85.5902 27.3331 84.4508 26.1841L84.0016 25.7311C82.8651 24.5851 81.2854 23.9521 79.6848 24.1171C79.3606 24.1501 79.0244 24.1501 78.6823 24.1081C76.6444 23.8651 74.9933 22.1851 74.7731 20.1271C74.4816 17.4061 76.5879 15.1051 79.2267 15.1051C79.3397 15.1051 79.4528 15.1081 79.5658 15.1171C81.1902 15.2401 82.7997 14.7301 83.951 13.5691L84.4567 13.0591C85.6051 11.9011 86.2269 10.2931 86.0543 8.66405C86.0186 8.33706 86.0186 7.99806 86.0543 7.65306C86.2864 5.55606 88 3.86406 90.0854 3.67506C92.8879 3.41706 95.2203 5.76606 94.9674 8.59506C94.78 10.6951 93.108 12.4231 91.0285 12.6631V12.6601Z" fill="#3132F5"/>
<path d="M47.5263 16.551C49.1358 16.863 50.7542 15.954 51.3195 14.385C51.4414 14.043 51.5932 13.926 51.9531 13.932C53.7619 13.953 55.5737 13.956 57.3855 13.932C57.8764 13.926 58.2304 14.055 58.5844 14.418C59.2746 15.123 59.9678 15.825 60.6639 16.527C60.9228 16.065 61.2381 15.642 61.6011 15.261C61.5445 15.225 61.494 15.183 61.4493 15.141C60.6937 14.427 59.9559 13.692 59.2449 12.93C58.9087 12.57 58.5636 12.408 58.0578 12.417C56.0378 12.447 54.0148 12.42 51.9948 12.438C51.6259 12.438 51.4474 12.348 51.3135 11.973C50.7453 10.389 49.1269 9.51002 47.4609 9.83102C45.9228 10.128 44.7745 11.562 44.7715 13.194C44.7685 14.838 45.9198 16.242 47.5263 16.554V16.551ZM48.163 11.01C49.353 11.01 50.3169 11.973 50.3169 13.164C50.3169 14.394 49.353 15.378 48.1541 15.372C46.9492 15.366 45.9734 14.367 45.9912 13.155C46.0091 11.961 46.97 11.007 48.163 11.01Z" fill="#31E0FF"/>
<path d="M60.7116 28.2C60.5331 28.461 60.3397 28.464 60.0422 28.347C58.9802 27.918 57.8199 28.275 57.1833 29.187C56.5407 30.105 56.5883 31.344 57.3052 32.199C57.9954 33.024 59.1646 33.297 60.1315 32.856C61.1787 32.382 61.738 31.311 61.5446 30.153C61.4316 29.481 62.0147 28.74 62.6811 28.74C65.3348 28.734 67.9914 28.734 70.6451 28.746C70.7433 28.746 70.8593 28.764 70.9605 28.797C70.8772 28.548 70.776 28.311 70.6481 28.086C70.4756 27.804 70.2822 27.555 70.071 27.342L69.9549 27.225C67.6761 27.24 65.3943 27.258 63.1154 27.201C62.1128 27.177 61.2947 27.336 60.7057 28.2H60.7116Z" fill="#31E0FF"/>
<path d="M71.1688 31.53C71.1628 31.446 71.1569 31.362 71.1539 31.278C69.1458 31.278 67.1347 31.278 65.1266 31.293C64.8826 31.293 64.5821 31.425 64.4036 31.596C63.5855 32.376 62.7228 33.123 62.0296 34.008C61.0895 35.208 59.9649 35.688 58.4745 35.478C58.0609 35.418 57.8527 35.34 57.6861 34.926C56.987 33.189 55.0949 32.379 53.3723 33.027C51.6766 33.663 50.7871 35.517 51.3315 37.275C51.751 38.625 53.0362 39.603 54.4523 39.654C55.8624 39.702 57.1922 38.838 57.7039 37.476C57.8467 37.092 58.0252 36.966 58.4209 36.984C59.1944 37.017 59.9679 37.017 60.7414 36.978C60.9913 36.966 61.2918 36.846 61.4703 36.672C62.6573 35.511 63.8057 34.314 64.9927 33.153C65.1831 32.97 65.5014 32.829 65.7632 32.826C67.5393 32.811 69.3183 32.808 71.0944 32.808C71.1747 32.4 71.2045 31.971 71.1688 31.53ZM54.5861 38.406C53.3842 38.418 52.3936 37.428 52.3936 36.222C52.3936 35.04 53.3694 34.05 54.5385 34.041C55.7464 34.032 56.7222 35.01 56.7222 36.231C56.7222 37.434 55.7732 38.397 54.5861 38.409V38.406Z" fill="#31E0FF"/>
<path d="M58.4827 25.308C58.7802 25.005 59.0748 24.885 59.4972 24.885C60.601 24.885 61.7047 24.888 62.8084 24.888C62.8024 24.885 62.7965 24.879 62.7876 24.876C62.6596 24.795 62.5347 24.711 62.4157 24.624H62.4097L62.4038 24.618L62.3889 24.609C61.9159 24.261 61.4964 23.841 61.1424 23.373C60.3838 23.373 59.6222 23.373 58.8635 23.373C58.447 23.373 58.1495 23.484 57.8491 23.79C55.7398 25.947 53.6127 28.092 51.4766 30.222C51.313 30.387 51.0304 30.513 50.8013 30.516C49.1859 30.54 47.5675 30.522 45.9491 30.537C45.6218 30.537 45.4701 30.45 45.3511 30.114C44.8632 28.752 43.5958 27.876 42.1976 27.87C40.4632 27.864 39.0352 29.133 38.8031 30.891C38.583 32.568 39.6956 34.191 41.3557 34.614C43.0038 35.034 44.7293 34.146 45.3243 32.52C45.4731 32.118 45.6664 32.034 46.0472 32.04C47.7519 32.058 49.4566 32.031 51.1613 32.061C51.6462 32.07 51.9764 31.914 52.3067 31.575C54.3535 29.481 56.427 27.408 58.4738 25.314L58.4827 25.308ZM42.2036 33.477C41.0046 33.492 40.0199 32.508 40.0199 31.29C40.0199 30.063 40.9778 29.112 42.2065 29.118C43.3876 29.124 44.3485 30.102 44.3455 31.293C44.3455 32.481 43.3817 33.462 42.2036 33.477Z" fill="#31E0FF"/>
<path d="M53.8386 24.477C54.8412 23.433 55.8586 22.401 56.8999 21.399C57.0992 21.207 57.4413 21.072 57.718 21.066C58.4915 21.054 59.268 21.051 60.0415 21.048C60.0355 21.027 60.0325 21.009 60.0266 20.991L60.0206 20.961C60.0117 20.919 59.9968 20.859 59.9849 20.793C59.9582 20.655 59.9344 20.508 59.9165 20.349C59.9135 20.325 59.9076 20.292 59.9046 20.253C59.9016 20.229 59.8987 20.202 59.8957 20.175V20.169V20.163C59.8868 20.076 59.8868 20.004 59.8868 19.962V19.929C59.8778 19.839 59.8719 19.725 59.8719 19.59C59.8719 19.569 59.8719 19.548 59.8719 19.527C56.0936 19.539 52.3154 19.53 48.5371 19.539C48.1772 19.539 47.9154 19.446 47.6595 19.179C46.6183 18.096 45.5621 17.031 44.4882 15.984C44.3216 15.822 44.0389 15.705 43.8069 15.699C42.6823 15.669 41.5578 15.678 40.4303 15.69C40.1447 15.693 40.0078 15.612 39.9007 15.318C39.2968 13.665 37.7111 12.759 36.0481 13.08C34.4684 13.386 33.2932 14.835 33.3051 16.461C33.32 18.108 34.4743 19.491 36.0897 19.797C37.7349 20.109 39.3027 19.209 39.8948 17.577C39.9989 17.286 40.1298 17.196 40.4213 17.202C41.3168 17.217 42.2153 17.178 43.1107 17.223C43.3904 17.238 43.7206 17.379 43.9229 17.574C44.988 18.606 46.0084 19.683 47.0705 20.715C47.2579 20.898 47.5792 21.03 47.841 21.033C50.0395 21.057 52.2351 21.048 54.4336 21.051C54.5972 21.051 54.7608 21.069 55.097 21.09C54.38 21.792 53.7612 22.365 53.1841 22.977C52.9044 23.274 52.6159 23.382 52.2142 23.382C44.9523 23.37 37.6903 23.37 30.4313 23.382C30.0207 23.382 29.8244 23.28 29.6697 22.869C29.0896 21.339 27.486 20.457 25.939 20.763C24.3028 21.087 23.1574 22.452 23.1485 24.096C23.1396 25.776 24.2701 27.165 25.9182 27.498C27.4741 27.81 29.0866 26.943 29.6608 25.416C29.8244 24.981 30.0386 24.882 30.461 24.882C37.9164 24.894 45.3717 24.888 52.8241 24.9C53.2466 24.9 53.5411 24.78 53.8356 24.474L53.8386 24.477ZM36.6877 18.624C35.4769 18.615 34.5279 17.637 34.5398 16.419C34.5517 15.213 35.5453 14.241 36.7442 14.259C37.9104 14.277 38.8654 15.264 38.8684 16.449C38.8684 17.661 37.8956 18.633 36.6877 18.624ZM26.5489 26.325C25.3678 26.334 24.398 25.374 24.3772 24.177C24.3563 22.956 25.3202 21.96 26.5251 21.957C27.727 21.957 28.7147 22.95 28.7058 24.153C28.6969 25.332 27.7181 26.316 26.5489 26.325Z" fill="#31E0FF"/>
<path d="M81.7806 30.6C81.5932 28.5 79.9212 26.772 77.8417 26.532C77.4996 26.493 77.1634 26.493 76.8391 26.529C76.6606 26.547 76.4821 26.553 76.3036 26.553C75.3249 26.52 74.3729 26.256 73.5518 25.749C73.5458 25.746 73.5399 25.743 73.5369 25.74C73.2007 25.53 72.8854 25.284 72.5968 24.993L72.091 24.483C71.7668 24.156 71.4901 23.793 71.258 23.403C70.8534 22.695 70.6125 21.906 70.5262 21.084C70.4875 20.7 70.4786 20.313 70.5083 19.923C70.5143 19.842 70.5143 19.764 70.5173 19.683C70.5173 19.653 70.5202 19.626 70.5202 19.596C70.5202 19.596 70.5202 19.596 70.5202 19.593C70.5202 19.59 70.5202 19.584 70.5202 19.581C70.5202 19.578 70.5202 19.572 70.5202 19.569C70.5202 19.449 70.5143 19.332 70.5054 19.215C70.3745 17.517 70.8921 15.837 72.0851 14.634L72.3826 14.334C73.0668 13.644 73.9117 13.134 74.8221 12.861C75.4677 12.666 76.1489 12.588 76.8332 12.663C76.8362 12.663 76.8421 12.663 76.8451 12.663C76.9998 12.681 77.1575 12.69 77.3181 12.69C77.3241 12.69 77.333 12.69 77.3389 12.69C77.4936 12.69 77.6453 12.681 77.7941 12.666C77.803 12.666 77.8119 12.666 77.8209 12.666C78.0946 12.636 78.3623 12.579 78.6182 12.498C78.6717 12.483 78.7193 12.462 78.7729 12.444C78.8473 12.417 78.9187 12.393 78.9901 12.363C79.0644 12.333 79.1388 12.297 79.2102 12.264C79.2519 12.243 79.2935 12.225 79.3352 12.204C79.4244 12.159 79.5137 12.108 79.5999 12.057C79.6178 12.048 79.6356 12.036 79.6505 12.024C80.3824 11.571 80.9744 10.917 81.3492 10.131C81.3641 10.104 81.376 10.074 81.3879 10.047C81.4236 9.96596 81.4593 9.88496 81.4891 9.80096C81.5099 9.74696 81.5307 9.68996 81.5485 9.63296C81.5723 9.56696 81.5932 9.50096 81.611 9.43496C81.6348 9.35396 81.6557 9.27296 81.6735 9.18896C81.6854 9.13796 81.6973 9.08996 81.7062 9.03896C81.7271 8.93096 81.7419 8.82296 81.7538 8.71496C81.7568 8.68196 81.7628 8.64896 81.7657 8.61596C81.7657 8.60696 81.7657 8.59796 81.7687 8.58896C81.7717 8.54396 81.7687 8.49896 81.7747 8.45096C81.7806 8.35796 81.7895 8.26496 81.7895 8.17196C81.7895 8.15396 81.7895 8.13596 81.7895 8.11496C81.7895 8.04896 81.7836 7.98596 81.7806 7.91996C81.7747 7.82096 81.7687 7.72496 81.7568 7.62596C81.7479 7.55996 81.739 7.49396 81.7271 7.42796C81.7122 7.33496 81.6943 7.24496 81.6735 7.15496C81.6586 7.08896 81.6408 7.02596 81.6229 6.95996C81.5991 6.87296 81.5724 6.78596 81.5426 6.69896C81.5218 6.63596 81.498 6.57296 81.4742 6.51296C81.4414 6.42896 81.4058 6.34496 81.3671 6.26396C81.3403 6.20396 81.3135 6.14696 81.2838 6.08996C81.2421 6.00596 81.1945 5.92796 81.1469 5.84696C81.1172 5.79596 81.0874 5.74196 81.0547 5.69096C80.9982 5.60696 80.9387 5.52296 80.8762 5.44196C80.8465 5.39996 80.8167 5.35796 80.784 5.31896C80.6888 5.20196 80.5906 5.08796 80.4835 4.98296C80.4835 4.98296 80.4835 4.98296 80.4805 4.97996C80.4478 4.94696 80.4091 4.91696 80.3734 4.88396C80.2961 4.81196 80.2217 4.73996 80.1414 4.67396C80.1027 4.64096 80.0611 4.61396 80.0224 4.58396C79.9421 4.52096 79.8588 4.46096 79.7755 4.40396C79.7249 4.37096 79.6743 4.34096 79.6208 4.31096C79.5404 4.26296 79.4601 4.21496 79.3798 4.17296C79.3233 4.14296 79.2638 4.11596 79.2072 4.08896C79.1269 4.04996 79.0436 4.01396 78.9603 3.98096C78.9008 3.95696 78.8383 3.93296 78.7759 3.91196C78.6896 3.88196 78.6033 3.85496 78.517 3.83096C78.4546 3.81296 78.3891 3.79496 78.3237 3.77996C78.2344 3.75896 78.1422 3.74096 78.0529 3.72596C77.9875 3.71396 77.922 3.70496 77.8566 3.69596C77.7614 3.68396 77.6632 3.67796 77.565 3.67196C77.4996 3.66896 77.4371 3.66296 77.3717 3.66296C77.3538 3.66296 77.333 3.66296 77.3151 3.66296C77.2229 3.66296 77.1307 3.67196 77.0385 3.67796C76.9938 3.67796 76.9492 3.67796 76.9016 3.68396C76.8927 3.68396 76.8838 3.68396 76.8748 3.68696C76.8421 3.68996 76.8094 3.69596 76.7767 3.70196C76.6696 3.71396 76.5625 3.72896 76.4583 3.74996C76.4078 3.75896 76.3602 3.77396 76.3096 3.78296C76.2293 3.80096 76.146 3.82196 76.0656 3.84596C76.0002 3.86396 75.9347 3.88796 75.8723 3.90896C75.8157 3.92996 75.7592 3.94796 75.7027 3.97196C75.6224 4.00196 75.542 4.03796 75.4647 4.07396C75.4349 4.08896 75.4052 4.10096 75.3784 4.11596C74.712 4.43996 74.1408 4.92296 73.7065 5.51696C73.7065 5.51696 73.7035 5.51996 73.7005 5.52296C73.6351 5.61596 73.5726 5.70896 73.5131 5.80496C73.4982 5.82896 73.4863 5.84996 73.4714 5.87396C73.4238 5.95796 73.3762 6.03896 73.3316 6.12596C73.3078 6.17396 73.287 6.22196 73.2632 6.26696C73.2305 6.33596 73.1977 6.40496 73.171 6.47396C73.1353 6.56096 73.1055 6.64796 73.0758 6.73496C73.0639 6.77396 73.046 6.80996 73.0341 6.84896C72.9568 7.10396 72.9002 7.36796 72.8675 7.63796C72.8675 7.65296 72.8675 7.66496 72.8675 7.67696C72.8556 7.79396 72.8497 7.91096 72.8467 8.03096C72.8467 8.07596 72.8407 8.11796 72.8407 8.16296C72.8407 8.16896 72.8407 8.17196 72.8407 8.17796C72.8407 8.33696 72.8497 8.49296 72.8645 8.64596C72.8645 8.64596 72.8645 8.64596 72.8645 8.64896C73.0311 10.266 72.4064 11.865 71.267 13.014L70.8177 13.467C69.6813 14.613 68.1016 15.246 66.501 15.081C66.1767 15.048 65.8406 15.048 65.4984 15.09C63.4606 15.333 61.8094 17.013 61.5893 19.071C61.5893 19.092 61.5893 19.113 61.5863 19.137C61.5863 19.164 61.5863 19.194 61.5804 19.221C61.5774 19.272 61.5744 19.323 61.5714 19.374C61.5714 19.428 61.5625 19.479 61.5625 19.533C61.5625 19.551 61.5625 19.569 61.5625 19.59C61.5625 19.593 61.5625 19.599 61.5625 19.602C61.5625 19.698 61.5714 19.794 61.5774 19.887C61.5774 19.932 61.5774 19.977 61.5833 20.022C61.5833 20.031 61.5833 20.04 61.5863 20.049C61.5893 20.082 61.5952 20.112 61.5982 20.142C61.6101 20.253 61.628 20.364 61.6488 20.472C61.6577 20.52 61.6696 20.568 61.6815 20.619C61.6994 20.703 61.7202 20.787 61.744 20.868C61.7618 20.934 61.7827 20.997 61.8065 21.06C61.8273 21.117 61.8481 21.177 61.8689 21.234C61.8987 21.315 61.9314 21.393 61.9671 21.471C61.982 21.504 61.9969 21.534 62.0117 21.564C62.333 22.233 62.812 22.809 63.4011 23.244C63.404 23.244 63.407 23.25 63.413 23.253C63.5022 23.319 63.5915 23.379 63.6867 23.439C63.7134 23.454 63.7402 23.472 63.764 23.487C63.8443 23.535 63.9217 23.58 64.005 23.622C64.0556 23.649 64.1061 23.673 64.1567 23.697C64.2222 23.727 64.2876 23.757 64.3531 23.787C64.4393 23.823 64.5256 23.853 64.6149 23.883C64.6535 23.895 64.6892 23.91 64.7279 23.922C64.9838 24 65.2485 24.06 65.5193 24.09C65.5312 24.09 65.5431 24.09 65.555 24.09C65.6799 24.105 65.8049 24.108 65.9328 24.111C65.9685 24.111 66.0012 24.117 66.0369 24.117C66.0369 24.117 66.0429 24.117 66.0458 24.117C66.2035 24.117 66.3612 24.108 66.5159 24.093C66.5189 24.093 66.5218 24.093 66.5278 24.093C66.7063 24.075 66.8848 24.069 67.0633 24.069C67.7803 24.093 68.4794 24.243 69.125 24.519C69.363 24.621 69.595 24.735 69.8152 24.87C69.8211 24.873 69.8271 24.876 69.83 24.879C70.1662 25.089 70.4816 25.335 70.7701 25.626L71.2759 26.136C71.6002 26.463 71.8768 26.829 72.1089 27.216C72.7039 28.251 72.9538 29.469 72.8586 30.696C72.8526 30.789 72.8497 30.882 72.8467 30.978C72.8467 30.999 72.8467 31.017 72.8467 31.038C72.8467 31.041 72.8467 31.047 72.8467 31.05C72.8467 31.17 72.8526 31.287 72.8616 31.404C72.9925 33.102 72.4748 34.782 71.2818 35.985L70.9843 36.285C69.8122 37.467 68.1819 38.139 66.5337 37.959C66.5308 37.959 66.5248 37.959 66.5218 37.959C66.3671 37.941 66.2095 37.932 66.0488 37.932C66.0399 37.932 66.031 37.932 66.022 37.932C65.9179 37.932 65.8138 37.941 65.7126 37.95C65.665 37.953 65.6174 37.95 65.5728 37.959C65.5639 37.959 65.555 37.959 65.546 37.959C65.2723 37.989 65.0046 38.046 64.7487 38.127C64.6952 38.142 64.6446 38.163 64.594 38.181C64.5197 38.208 64.4483 38.232 64.3769 38.262C64.3025 38.292 64.2281 38.328 64.1567 38.361C64.1151 38.382 64.0734 38.4 64.0318 38.421C63.9425 38.466 63.8533 38.517 63.767 38.568C63.7491 38.577 63.7313 38.589 63.7164 38.601C62.9846 39.054 62.3925 39.708 62.0177 40.494C62.0028 40.521 61.9909 40.551 61.979 40.578C61.9433 40.659 61.9076 40.74 61.8749 40.824C61.8541 40.878 61.8332 40.935 61.8154 40.992C61.7916 41.058 61.7708 41.124 61.7529 41.19C61.7291 41.271 61.7083 41.352 61.6904 41.436C61.6785 41.487 61.6666 41.535 61.6577 41.586C61.6369 41.694 61.622 41.802 61.6101 41.91C61.6071 41.943 61.6012 41.976 61.5952 42.009C61.5952 42.018 61.5952 42.027 61.5923 42.036C61.5893 42.081 61.5923 42.126 61.5863 42.174C61.5804 42.267 61.5714 42.36 61.5714 42.453C61.5714 42.471 61.5714 42.489 61.5714 42.51C61.5714 42.576 61.5774 42.639 61.5804 42.705C61.5863 42.804 61.5923 42.9 61.6042 42.999C61.6131 43.065 61.622 43.131 61.6339 43.197C61.6488 43.29 61.6666 43.38 61.6875 43.47C61.7023 43.536 61.7202 43.599 61.738 43.665C61.7618 43.752 61.7886 43.839 61.8184 43.926C61.8392 43.989 61.863 44.052 61.8868 44.112C61.9195 44.196 61.9552 44.28 61.9939 44.361C62.0207 44.418 62.0474 44.478 62.0772 44.535C62.1188 44.619 62.1664 44.7 62.214 44.778C62.2438 44.829 62.2735 44.883 62.3063 44.934C62.3628 45.021 62.4223 45.102 62.4848 45.183C62.5145 45.225 62.5443 45.267 62.577 45.306C62.6722 45.423 62.7704 45.537 62.8775 45.642C62.8775 45.642 62.8775 45.642 62.8804 45.645C62.9875 45.753 63.1006 45.855 63.2196 45.951C63.2583 45.984 63.2999 46.011 63.3386 46.041C63.4189 46.104 63.5022 46.164 63.5855 46.221C63.6361 46.254 63.6867 46.284 63.7372 46.314C63.8176 46.362 63.8979 46.41 63.9782 46.455C64.0347 46.485 64.0913 46.512 64.1508 46.539C64.2311 46.578 64.3144 46.614 64.4007 46.647C64.4602 46.671 64.5226 46.695 64.5851 46.716C64.6714 46.746 64.7577 46.773 64.8439 46.797C64.9064 46.815 64.9719 46.833 65.0373 46.848C65.1266 46.869 65.2158 46.884 65.3051 46.899C65.3051 46.899 65.3051 46.899 65.308 46.899C65.3735 46.911 65.4389 46.92 65.5044 46.929C65.5996 46.941 65.6978 46.947 65.7959 46.953C65.8614 46.956 65.9239 46.962 65.9893 46.962C66.0072 46.962 66.028 46.962 66.0458 46.962C66.1381 46.962 66.2303 46.953 66.3225 46.947C66.3671 46.947 66.4118 46.947 66.4594 46.941C66.4683 46.941 66.4772 46.941 66.4861 46.938C66.5218 46.935 66.5546 46.929 66.5873 46.923C66.6944 46.911 66.8015 46.896 66.9056 46.875C66.9562 46.866 67.0068 46.851 67.0544 46.842C67.1347 46.824 67.218 46.803 67.2983 46.779C67.3638 46.761 67.4292 46.737 67.4917 46.716C67.5482 46.695 67.6047 46.677 67.6613 46.653C67.7416 46.62 67.8219 46.587 67.8993 46.551C67.929 46.536 67.9558 46.524 67.9855 46.509C68.6519 46.185 69.2231 45.702 69.6575 45.105C69.6575 45.105 69.6575 45.102 69.6605 45.099C69.7259 45.006 69.7914 44.913 69.8509 44.817C69.8657 44.793 69.8776 44.772 69.8925 44.748C69.9401 44.664 69.9877 44.58 70.0323 44.496C70.0561 44.448 70.077 44.403 70.1008 44.355C70.1335 44.286 70.1662 44.217 70.193 44.148C70.2287 44.064 70.2584 43.974 70.2882 43.887C70.3001 43.848 70.3179 43.809 70.3298 43.77C70.4072 43.515 70.4637 43.251 70.4964 42.981C70.4964 42.966 70.4964 42.954 70.4964 42.942C70.5083 42.825 70.5143 42.708 70.5173 42.588C70.5173 42.543 70.5232 42.501 70.5232 42.456C70.5232 42.45 70.5232 42.447 70.5232 42.441C70.5232 42.282 70.5143 42.126 70.4994 41.973C70.4994 41.973 70.4994 41.973 70.4994 41.97C70.3328 40.353 70.9576 38.754 72.097 37.605L72.5462 37.152C73.6827 36.006 75.2624 35.373 76.8629 35.538C77.1872 35.571 77.5234 35.571 77.8655 35.529C79.9034 35.286 81.5545 33.606 81.7747 31.548C81.7866 31.446 81.7866 31.347 81.7895 31.245C81.7895 31.191 81.7985 31.14 81.7985 31.086C81.7985 31.008 81.7925 30.93 81.7895 30.852C81.7866 30.768 81.7895 30.684 81.7806 30.597V30.6Z" fill="#3132F5"/>
<path d="M3.62388 66.8219H1.36883C0.99695 66.8219 0.8125 66.6359 0.8125 66.2609V50.1779C0.8125 49.8029 0.99695 49.6169 1.36883 49.6169H3.62388C3.99575 49.6169 4.1802 49.8029 4.1802 50.1779V57.8039H4.23375C4.37655 57.3749 4.65025 56.8229 5.05783 56.1449L9.09193 50.1779C9.321 49.8029 9.6661 49.6169 10.1272 49.6169H12.7274C12.9208 49.6169 13.0398 49.6739 13.0844 49.7909C13.129 49.9079 13.0784 50.0549 12.9386 50.2319L7.89598 57.2699L13.5217 66.1559C13.6467 66.3689 13.6675 66.5339 13.5872 66.6509C13.5068 66.7679 13.3432 66.8249 13.0963 66.8249H11.1595C10.5408 66.8249 10.1243 66.6389 9.91303 66.2639L5.85215 59.7089L4.1802 61.6889V66.2639C4.1802 66.6389 3.99575 66.8249 3.62388 66.8249V66.8219Z" fill="#F5F7FA"/>
<path d="M20.3694 66.8221H19.7327C18.3345 66.8221 17.2545 66.4471 16.4959 65.6971C15.7343 64.9471 15.3535 63.867 15.3535 62.46V57.537C15.3535 56.127 15.7343 55.047 16.4959 54.3C17.2575 53.55 18.3345 53.175 19.7327 53.175H25.8642C26.2539 53.175 26.4473 53.361 26.4473 53.736V66.261C26.4473 66.636 26.2509 66.8221 25.8642 66.8221H23.6359C23.264 66.8221 23.0796 66.636 23.0796 66.261V65.379H22.9725C22.7761 65.862 22.434 66.222 21.9372 66.462C21.4404 66.702 20.9197 66.8221 20.3723 66.8221H20.3694ZM23.0766 61.845V56.412C23.0766 56.217 22.9695 56.118 22.7583 56.118H20.2623C19.697 56.118 19.2984 56.238 19.0693 56.478C18.8402 56.718 18.7242 57.1261 18.7242 57.6961V62.298C18.7242 62.868 18.8402 63.276 19.0693 63.516C19.2984 63.756 19.697 63.876 20.2623 63.876H21.244C22.4638 63.876 23.0766 63.198 23.0766 61.842V61.845Z" fill="#F5F7FA"/>
<path d="M32.4461 66.822H30.1911C29.8192 66.822 29.6348 66.636 29.6348 66.261V53.736C29.6348 53.361 29.8192 53.175 30.1911 53.175H32.4461C32.818 53.175 33.0025 53.361 33.0025 53.736V54.645H33.1096C33.3029 54.162 33.648 53.799 34.1449 53.547C34.6387 53.298 35.1623 53.172 35.7097 53.172H36.6647C37.0187 53.172 37.1942 53.358 37.1942 53.733V55.578C37.1942 55.791 37.1556 55.938 37.0752 56.019C36.9949 56.1 36.8581 56.13 36.6647 56.112H34.8321C33.6123 56.112 32.9995 56.808 32.9995 58.2V66.255C32.9995 66.63 32.815 66.816 32.4432 66.816L32.4461 66.822Z" fill="#F5F7FA"/>
<path d="M41.3618 71.346H39.663C39.309 71.346 39.1335 71.151 39.1335 70.758V68.964C39.1335 68.571 39.309 68.376 39.663 68.376H40.2194C41.335 68.376 42.0906 68.22 42.4893 67.908C42.8879 67.596 43.1914 66.993 43.4056 66.102H41.9984C41.6622 66.102 41.4421 65.916 41.335 65.541L38.2291 53.739C38.122 53.364 38.2559 53.178 38.6277 53.178H40.9899C41.3439 53.178 41.5641 53.364 41.6533 53.739L43.9351 63.615H44.0422L46.2973 53.739C46.3687 53.364 46.5888 53.178 46.9607 53.178H49.189C49.6323 53.178 49.8078 53.373 49.7185 53.766L46.4817 66.825C46.092 68.307 45.4911 69.429 44.6759 70.197C43.8608 70.965 42.757 71.349 41.3588 71.349L41.3618 71.346Z" fill="#F5F7FA"/>
<path d="M58.3996 66.8221H56.0374C54.6392 66.8221 53.5592 66.4471 52.8006 65.6971C52.039 64.9471 51.6582 63.867 51.6582 62.46V57.537C51.6582 56.127 52.039 55.047 52.8006 54.3C53.5622 53.55 54.6392 53.175 56.0374 53.175H58.3996C59.78 53.175 60.8539 53.553 61.6245 54.312C62.395 55.071 62.7788 56.145 62.7788 57.537V62.46C62.7788 63.852 62.395 64.926 61.6245 65.685C60.8539 66.444 59.78 66.8221 58.3996 66.8221ZM56.5402 63.906H57.8938C58.4591 63.906 58.8637 63.789 59.1017 63.558C59.3397 63.327 59.4587 62.925 59.4587 62.3551V57.645C59.4587 57.075 59.3397 56.673 59.1017 56.442C58.8637 56.211 58.4591 56.094 57.8938 56.094H56.5402C55.9749 56.094 55.5763 56.211 55.3472 56.442C55.1181 56.673 55.0021 57.075 55.0021 57.645V62.3551C55.0021 62.925 55.1181 63.327 55.3472 63.558C55.5763 63.789 55.9749 63.906 56.5402 63.906Z" fill="#F5F7FA"/>
<path d="M68.5086 66.822H66.2536C65.8817 66.822 65.6973 66.636 65.6973 66.261V53.736C65.6973 53.361 65.8817 53.175 66.2536 53.175H68.5086C68.8805 53.175 69.065 53.361 69.065 53.736V54.618H69.1721C69.5618 53.655 70.4275 53.172 71.7722 53.172H72.6201C75.3987 53.172 76.7851 54.627 76.7851 57.534V66.258C76.7851 66.633 76.5887 66.819 76.202 66.819H73.9737C73.6018 66.819 73.4174 66.633 73.4174 66.258V57.693C73.4174 57.123 73.2984 56.715 73.0604 56.475C72.8224 56.235 72.4178 56.115 71.8525 56.115H70.8976C69.6778 56.115 69.065 56.793 69.065 58.149V66.258C69.065 66.633 68.8805 66.819 68.5086 66.819V66.822Z" fill="#F5F7FA"/>
<path d="M82.7881 62.97V66.261C82.7881 66.636 82.6185 66.822 82.2823 66.822H79.9202C79.5662 66.822 79.3906 66.636 79.3906 66.261V62.997C79.3906 62.64 79.5662 62.463 79.9202 62.463H82.2823C82.6185 62.463 82.7881 62.634 82.7881 62.97Z" fill="#F5F7FA"/>
<path d="M85.7871 66.2609V50.1779C85.7871 49.8029 85.9716 49.6169 86.3434 49.6169H92.7129C94.1112 49.6169 95.1911 49.9919 95.9497 50.7419C96.7113 51.4919 97.0921 52.5629 97.0921 53.9519V55.0499C97.0921 56.5679 96.393 57.5489 94.9947 57.9929C95.7028 58.1009 96.268 58.3889 96.6935 58.8629C97.1189 59.3369 97.3301 60.0089 97.3301 60.8819V62.4869C97.3301 63.8789 96.9493 64.9499 96.1877 65.6969C95.4261 66.4469 94.3551 66.8219 92.9777 66.8219H86.3434C85.9716 66.8219 85.7871 66.6359 85.7871 66.2609ZM89.4493 56.6009H92.1566C92.7218 56.6009 93.1383 56.4809 93.4031 56.2409C93.6679 56.0009 93.8018 55.6019 93.8018 55.0499V54.0059C93.8018 53.4539 93.6738 53.0549 93.418 52.8149C93.1621 52.5749 92.7486 52.4549 92.1834 52.4549H89.4493C89.256 52.4549 89.1578 52.5539 89.1578 52.7489V56.3069C89.1578 56.5019 89.256 56.6009 89.4493 56.6009ZM89.4493 63.9869H92.4214C93.0045 63.9869 93.4239 63.8669 93.6828 63.6269C93.9386 63.3869 94.0665 62.9879 94.0665 62.4359V60.8849C94.0665 60.3329 93.9327 59.9399 93.6679 59.7089C93.4031 59.4779 92.9688 59.3609 92.3678 59.3609H89.4493C89.256 59.3609 89.1578 59.4599 89.1578 59.6549V63.6959C89.1578 63.8939 89.256 63.9899 89.4493 63.9899V63.9869Z" fill="#F5F7FA"/>
<path d="M100.646 50.874V48.546C100.646 48.189 100.822 48.012 101.176 48.012H103.485C103.839 48.012 104.014 48.183 104.014 48.519V50.874C104.014 51.231 103.836 51.408 103.485 51.408H101.176C100.822 51.408 100.646 51.231 100.646 50.874ZM100.646 66.261V53.736C100.646 53.361 100.822 53.175 101.176 53.175H103.458C103.83 53.175 104.014 53.361 104.014 53.736V66.261C104.014 66.492 103.976 66.645 103.895 66.717C103.815 66.789 103.678 66.825 103.485 66.825H101.203C100.831 66.825 100.646 66.639 100.646 66.264V66.261Z" fill="#F5F7FA"/>
<path d="M113.812 66.8221H111.45C110.051 66.8221 108.971 66.4471 108.213 65.6971C107.451 64.9471 107.07 63.867 107.07 62.46V57.537C107.07 56.127 107.451 55.047 108.213 54.3C108.974 53.55 110.051 53.175 111.45 53.175H113.812C115.192 53.175 116.266 53.553 117.037 54.312C117.807 55.071 118.191 56.145 118.191 57.537V62.46C118.191 63.852 117.807 64.926 117.037 65.685C116.266 66.444 115.192 66.8221 113.812 66.8221ZM111.952 63.906H113.306C113.871 63.906 114.276 63.789 114.514 63.558C114.752 63.327 114.871 62.925 114.871 62.3551V57.645C114.871 57.075 114.752 56.673 114.514 56.442C114.276 56.211 113.871 56.094 113.306 56.094H111.952C111.387 56.094 110.988 56.211 110.759 56.442C110.53 56.673 110.414 57.075 110.414 57.645V62.3551C110.414 62.925 110.53 63.327 110.759 63.558C110.988 63.789 111.387 63.906 111.952 63.906Z" fill="#F5F7FA"/>
</g>
<defs>
<clipPath id="clip0_166_11171">
<rect width="119" height="75" fill="white"/>
</clipPath>
</defs>
</svg>
