<?xml version="1.0" encoding="UTF-8"?><svg id="Layer_1" xmlns="http://www.w3.org/2000/svg" viewBox="0 0 400 250"><defs><style>.cls-1{fill:#31C5D6;}.cls-1,.cls-2,.cls-3,.cls-4{stroke-width:0px;}.cls-2{fill:none;opacity:0;}.cls-3{fill:#0c0c26;}.cls-4{fill:#1f3b60;}</style></defs><rect class="cls-2" width="400" height="250"/><path class="cls-4" d="M305.98,42.2c-1.15.13-2.28.13-3.37.01-5.41-.58-10.76,1.52-14.6,5.37l-1.38,1.38c-4.01,4.01-5.75,9.62-5.31,15.27.03.39.05.78.05,1.18s-.02.79-.05,1.18c-.44,5.66,1.3,11.26,5.31,15.27l1,1c3.94,3.94,9.42,6.18,14.96,5.58,1.08-.12,2.2-.12,3.33,0,7.01.77,12.67,6.55,13.3,13.57.85,9.41-6.98,17.23-16.39,16.39-6.99-.63-12.76-6.23-13.57-13.2-.13-1.15-.14-2.28-.02-3.37.56-5.39-1.54-10.72-5.37-14.55l-1.51-1.51c-3.82-3.82-9.13-5.93-14.51-5.38-1.09.11-2.22.11-3.37-.03-6.85-.81-12.4-6.41-13.14-13.27-.98-9.07,6.1-16.74,14.97-16.74.38,0,.76.01,1.14.04,5.46.41,10.87-1.29,14.74-5.16l1.7-1.7c3.86-3.86,5.95-9.22,5.37-14.65-.12-1.09-.12-2.22,0-3.37.78-6.99,6.54-12.63,13.55-13.26,9.42-.86,17.26,6.97,16.41,16.4-.63,7-6.25,12.76-13.24,13.56Z"/><path class="cls-1" d="M159.75,55.17c5.41,1.04,10.85-1.99,12.75-7.22.41-1.14.92-1.53,2.13-1.51,6.08.07,12.17.08,18.26,0,1.65-.02,2.84.41,4.03,1.62,2.32,2.35,4.65,4.69,6.99,7.03.87-1.54,1.93-2.95,3.15-4.22-.19-.12-.36-.26-.51-.4-2.54-2.38-5.02-4.83-7.41-7.37-1.13-1.2-2.29-1.74-3.99-1.71-6.79.1-13.59.01-20.38.07-1.24,0-1.84-.3-2.29-1.55-1.91-5.28-7.35-8.21-12.95-7.14-5.17.99-9.03,5.77-9.04,11.21-.01,5.48,3.86,10.16,9.26,11.2ZM161.89,36.7c4,0,7.24,3.21,7.24,7.18,0,4.1-3.24,7.38-7.27,7.36-4.05-.02-7.33-3.35-7.27-7.39.06-3.98,3.29-7.16,7.3-7.15Z"/><path class="cls-1" d="M204.07,94c-.6.87-1.25.88-2.25.49-3.57-1.43-7.47-.24-9.61,2.8-2.16,3.06-2,7.19.41,10.04,2.32,2.75,6.25,3.66,9.5,2.19,3.52-1.58,5.4-5.15,4.75-9.01-.38-2.24,1.58-4.71,3.82-4.71,8.92-.02,17.85-.02,26.77.02.33,0,.72.06,1.06.17-.28-.83-.62-1.62-1.05-2.37-.58-.94-1.23-1.77-1.94-2.48l-.39-.39c-7.66.05-15.33.11-22.99-.08-3.37-.08-6.12.45-8.1,3.33Z"/><path class="cls-1" d="M239.22,105.1c-.02-.28-.04-.56-.05-.84-6.75,0-13.51,0-20.26.05-.82,0-1.83.44-2.43,1.01-2.75,2.6-5.65,5.09-7.98,8.04-3.16,4-6.94,5.6-11.95,4.9-1.39-.2-2.09-.46-2.65-1.84-2.35-5.79-8.71-8.49-14.5-6.33-5.7,2.12-8.69,8.3-6.86,14.16,1.41,4.5,5.73,7.76,10.49,7.93,4.74.16,9.21-2.72,10.93-7.26.48-1.28,1.08-1.7,2.41-1.64,2.6.11,5.2.11,7.8-.02.84-.04,1.85-.44,2.45-1.02,3.99-3.87,7.85-7.86,11.84-11.73.64-.61,1.71-1.08,2.59-1.09,5.97-.05,11.95-.06,17.92-.06.27-1.36.37-2.79.25-4.26ZM183.48,128.02c-4.04.04-7.37-3.26-7.37-7.28,0-3.94,3.28-7.24,7.21-7.27,4.06-.03,7.34,3.23,7.34,7.3,0,4.01-3.19,7.22-7.18,7.26Z"/><path class="cls-1" d="M196.58,84.36c1-1.01,1.99-1.41,3.41-1.41,3.71,0,7.42.01,11.13.01-.02-.01-.04-.03-.07-.04-.43-.27-.85-.55-1.25-.84h-.02s-.02-.02-.02-.02l-.05-.03c-1.59-1.16-3-2.56-4.19-4.12-2.55,0-5.11,0-7.66,0-1.4,0-2.4.37-3.41,1.39-7.09,7.19-14.24,14.34-21.42,21.44-.55.55-1.5.97-2.27.98-5.43.08-10.87.02-16.31.07-1.1,0-1.61-.29-2.01-1.41-1.64-4.54-5.9-7.46-10.6-7.48-5.83-.02-10.63,4.21-11.41,10.07-.74,5.59,3,11,8.58,12.41,5.54,1.4,11.34-1.56,13.34-6.98.5-1.34,1.15-1.62,2.43-1.6,5.73.06,11.46-.03,17.19.07,1.63.03,2.74-.49,3.85-1.62,6.88-6.98,13.85-13.89,20.73-20.87ZM141.86,111.59c-4.03.05-7.34-3.23-7.34-7.29,0-4.09,3.22-7.26,7.35-7.24,3.97.02,7.2,3.28,7.19,7.25,0,3.96-3.24,7.23-7.2,7.28Z"/><path class="cls-1" d="M180.97,81.59c3.37-3.48,6.79-6.92,10.29-10.26.67-.64,1.82-1.09,2.75-1.11,2.6-.04,5.21-.05,7.81-.06-.02-.07-.03-.13-.05-.19l-.02-.1c-.03-.14-.08-.34-.12-.56-.09-.46-.17-.95-.23-1.48h0c-.01-.08-.03-.19-.04-.32-.01-.08-.02-.17-.03-.26v-.02s0-.02,0-.02c-.03-.29-.03-.53-.03-.67v-.11c-.03-.3-.05-.68-.05-1.13,0-.07,0-.14,0-.21-12.7.04-25.4.01-38.1.04-1.21,0-2.09-.31-2.95-1.2-3.5-3.61-7.05-7.16-10.66-10.65-.56-.54-1.51-.93-2.29-.95-3.78-.1-7.56-.07-11.35-.03-.96.01-1.42-.26-1.78-1.24-2.03-5.51-7.36-8.53-12.95-7.46-5.31,1.02-9.26,5.85-9.22,11.27.05,5.49,3.93,10.1,9.36,11.12,5.53,1.04,10.8-1.96,12.79-7.4.35-.97.79-1.27,1.77-1.25,3.01.05,6.03-.08,9.04.07.94.05,2.05.52,2.73,1.17,3.58,3.44,7.01,7.03,10.58,10.47.63.61,1.71,1.05,2.59,1.06,7.39.08,14.77.05,22.16.06.55,0,1.1.06,2.23.13-2.41,2.34-4.49,4.25-6.43,6.29-.94.99-1.91,1.35-3.26,1.35-24.41-.04-48.82-.04-73.22,0-1.38,0-2.04-.34-2.56-1.71-1.95-5.1-7.34-8.04-12.54-7.02-5.5,1.08-9.35,5.63-9.38,11.11-.03,5.6,3.77,10.23,9.31,11.34,5.23,1.04,10.65-1.85,12.58-6.94.55-1.45,1.27-1.78,2.69-1.78,25.06.04,50.12.02,75.17.06,1.42,0,2.41-.4,3.4-1.42ZM123.32,62.08c-4.07-.03-7.26-3.29-7.22-7.35.04-4.02,3.38-7.26,7.41-7.2,3.92.06,7.13,3.35,7.14,7.3,0,4.04-3.27,7.28-7.33,7.25ZM89.24,87.75c-3.97.03-7.23-3.17-7.3-7.16-.07-4.07,3.17-7.39,7.22-7.4,4.04,0,7.36,3.31,7.33,7.32-.03,3.93-3.32,7.21-7.25,7.24Z"/><path class="cls-4" d="M274.89,102c-.63-7-6.25-12.76-13.24-13.56-1.15-.13-2.28-.13-3.37-.01-.6.06-1.2.08-1.8.08-3.29-.11-6.49-.99-9.25-2.68-.02-.01-.04-.02-.05-.03-1.13-.7-2.19-1.52-3.16-2.49l-1.7-1.7c-1.09-1.09-2.02-2.3-2.8-3.6-1.36-2.36-2.17-4.99-2.46-7.73-.13-1.28-.16-2.57-.06-3.87.02-.27.02-.53.03-.8,0-.1.01-.19.01-.29,0,0,0,0,0-.01,0-.01,0-.03,0-.04,0-.01,0-.03,0-.04,0-.4-.02-.79-.05-1.18-.44-5.66,1.3-11.26,5.31-15.27l1-1c2.3-2.3,5.14-4,8.2-4.91,2.17-.65,4.46-.91,6.76-.66.01,0,.03,0,.04,0,.52.06,1.05.09,1.59.09,0,0,0,0,0,0,.02,0,.05,0,.07,0,.52,0,1.03-.03,1.53-.08.03,0,.06,0,.09,0,.92-.1,1.82-.29,2.68-.56.18-.05.34-.12.52-.18.25-.09.49-.17.73-.27.25-.1.5-.22.74-.33.14-.07.28-.13.42-.2.3-.15.6-.32.89-.49.06-.03.12-.07.17-.11,2.46-1.51,4.45-3.69,5.71-6.31.05-.09.09-.19.13-.28.12-.27.24-.54.34-.82.07-.18.14-.37.2-.56.08-.22.15-.44.21-.66.08-.27.15-.54.21-.82.04-.17.08-.33.11-.5.07-.36.12-.72.16-1.08.01-.11.03-.22.04-.33,0-.03,0-.06.01-.09.01-.15,0-.3.02-.46.02-.31.05-.62.05-.93,0-.06,0-.12,0-.19,0-.22-.02-.43-.03-.65-.02-.33-.04-.65-.08-.98-.03-.22-.06-.44-.1-.66-.05-.31-.11-.61-.18-.91-.05-.22-.11-.43-.17-.65-.08-.29-.17-.58-.27-.87-.07-.21-.15-.42-.23-.62-.11-.28-.23-.56-.36-.83-.09-.2-.18-.39-.28-.58-.14-.28-.3-.54-.46-.81-.1-.17-.2-.35-.31-.52-.19-.28-.39-.56-.6-.83-.1-.14-.2-.28-.31-.41-.32-.39-.65-.77-1.01-1.12,0,0,0,0-.01-.01-.11-.11-.24-.21-.36-.32-.26-.24-.51-.48-.78-.7-.13-.11-.27-.2-.4-.3-.27-.21-.55-.41-.83-.6-.17-.11-.34-.21-.52-.31-.27-.16-.54-.32-.81-.46-.19-.1-.39-.19-.58-.28-.27-.13-.55-.25-.83-.36-.2-.08-.41-.16-.62-.23-.29-.1-.58-.19-.87-.27-.21-.06-.43-.12-.65-.17-.3-.07-.61-.13-.91-.18-.22-.04-.44-.07-.66-.1-.32-.04-.65-.06-.98-.08-.22-.01-.43-.03-.65-.03-.06,0-.13,0-.19,0-.31,0-.62.03-.93.05-.15,0-.3,0-.46.02-.03,0-.06,0-.09.01-.11.01-.22.03-.33.05-.36.04-.72.09-1.07.16-.17.03-.33.08-.5.11-.27.06-.55.13-.82.21-.22.06-.44.14-.65.21-.19.07-.38.13-.57.21-.27.1-.54.22-.8.34-.1.05-.2.09-.29.14-2.24,1.08-4.16,2.69-5.62,4.67,0,0-.01.01-.02.02-.22.31-.43.62-.63.94-.05.08-.09.15-.14.23-.16.28-.32.55-.47.84-.08.16-.15.32-.23.47-.11.23-.22.46-.31.69-.12.29-.22.58-.32.87-.04.13-.1.25-.14.38-.26.85-.45,1.73-.56,2.63,0,.05,0,.09,0,.13-.04.39-.06.78-.07,1.18,0,.15-.02.29-.02.44,0,.02,0,.03,0,.05,0,.53.03,1.05.08,1.56,0,0,0,0,0,.01.56,5.39-1.54,10.72-5.37,14.55l-1.51,1.51c-3.82,3.82-9.13,5.93-14.51,5.38-1.09-.11-2.22-.11-3.37.03-6.85.81-12.4,6.41-13.14,13.27,0,.07,0,.14-.01.22,0,.09,0,.19-.02.28-.01.17-.02.34-.03.51,0,.18-.03.35-.03.53,0,.06,0,.12,0,.19,0,.01,0,.03,0,.04,0,.32.03.64.05.95,0,.15,0,.3.02.45,0,.03,0,.06.01.09.01.11.03.21.04.31.04.37.1.74.17,1.1.03.16.07.32.11.49.06.28.13.56.21.83.06.22.13.43.21.64.07.19.14.39.21.58.1.27.21.53.33.79.05.11.1.21.15.31,1.08,2.23,2.69,4.15,4.67,5.6.01,0,.02.02.04.03.3.22.6.42.92.62.09.05.18.11.26.16.27.16.53.31.81.45.17.09.34.17.51.25.22.1.44.2.66.3.29.12.58.22.88.32.13.04.25.09.38.13.86.26,1.75.46,2.66.56.04,0,.08,0,.12,0,.42.05.84.06,1.27.07.12,0,.23.02.35.02,0,0,.02,0,.03,0,.53,0,1.06-.03,1.58-.08.01,0,.02,0,.04,0,.6-.06,1.2-.08,1.8-.08,2.41.08,4.76.58,6.93,1.5.8.34,1.58.72,2.32,1.17.02.01.04.02.05.03,1.13.7,2.19,1.52,3.16,2.49l1.7,1.7c1.09,1.09,2.02,2.31,2.8,3.6,2,3.45,2.84,7.51,2.52,11.6-.02.31-.03.62-.04.94,0,.07,0,.13,0,.2,0,.01,0,.03,0,.04,0,.4.02.79.05,1.18.44,5.66-1.3,11.26-5.31,15.27l-1,1c-3.94,3.94-9.42,6.18-14.96,5.58-.01,0-.03,0-.04,0-.52-.06-1.05-.09-1.59-.09,0,0,0,0,0,0-.03,0-.06,0-.09,0-.35,0-.7.03-1.04.06-.16.01-.32,0-.47.03-.03,0-.06,0-.09,0-.92.1-1.82.29-2.68.56-.18.05-.35.12-.52.18-.25.09-.49.17-.73.27-.25.1-.5.22-.74.33-.14.07-.28.13-.42.2-.3.15-.6.32-.89.49-.06.03-.12.07-.17.11-2.46,1.51-4.45,3.69-5.71,6.31-.05.09-.09.19-.13.28-.12.27-.24.54-.35.82-.07.18-.14.37-.2.56-.08.22-.15.44-.21.66-.08.27-.15.54-.21.82-.04.17-.08.33-.11.5-.07.36-.12.72-.16,1.08-.01.11-.03.22-.05.33,0,.03,0,.06-.01.09-.01.15,0,.3-.02.46-.02.31-.05.62-.05.93,0,.06,0,.12,0,.19,0,.22.02.43.03.65.02.33.04.65.08.98.03.22.06.44.1.66.05.31.11.61.18.91.05.22.11.43.17.65.08.29.17.58.27.87.07.21.15.42.23.62.11.28.23.56.36.83.09.19.18.39.28.58.14.28.3.55.46.81.1.17.2.35.31.52.19.29.39.56.6.83.1.14.2.28.31.41.32.39.65.77,1.01,1.12,0,0,0,0,.01.01.36.36.74.7,1.14,1.02.13.11.27.2.4.3.27.21.55.41.83.6.17.11.34.21.51.31.27.16.54.32.81.47.19.1.38.19.58.28.27.13.55.25.84.36.2.08.41.16.62.23.29.1.58.19.87.27.21.06.43.12.65.17.3.07.6.12.9.17,0,0,0,0,.01,0,.22.04.44.07.66.1.32.04.65.06.98.08.22.01.43.03.65.03.06,0,.13,0,.19,0,.31,0,.62-.03.93-.05.15,0,.3,0,.46-.02.03,0,.06,0,.09-.01.12-.01.23-.03.34-.05.36-.04.72-.09,1.07-.16.17-.03.34-.08.5-.11.27-.06.55-.13.82-.21.22-.06.44-.14.65-.21.19-.07.38-.13.57-.21.27-.11.54-.22.8-.34.1-.05.19-.09.29-.14,2.24-1.08,4.16-2.69,5.62-4.68,0,0,0-.01.01-.02.22-.31.44-.62.64-.94.05-.08.09-.15.14-.23.16-.28.32-.56.47-.84.08-.16.15-.31.23-.47.11-.23.22-.46.31-.69.12-.28.22-.58.32-.87.04-.13.1-.26.14-.39.26-.85.45-1.73.56-2.63,0-.05,0-.09,0-.13.04-.39.06-.78.07-1.18,0-.15.02-.29.02-.44,0-.02,0-.03,0-.05,0-.53-.03-1.05-.08-1.56,0,0,0,0,0-.01-.56-5.39,1.54-10.72,5.37-14.55l1.51-1.51c3.82-3.82,9.13-5.93,14.51-5.38,1.09.11,2.22.11,3.37-.03,6.85-.81,12.4-6.41,13.14-13.27.04-.34.04-.67.05-1.01,0-.18.03-.35.03-.53,0-.26-.02-.52-.03-.78-.01-.28,0-.56-.03-.85Z"/><path class="cls-3" d="M12.18,222.74h-7.58c-1.25,0-1.87-.62-1.87-1.87v-53.61c0-1.25.62-1.87,1.87-1.87h7.58c1.25,0,1.87.62,1.87,1.87v25.42h.18c.48-1.43,1.4-3.27,2.77-5.53l13.56-19.89c.77-1.25,1.93-1.87,3.48-1.87h8.74c.65,0,1.05.19,1.2.58.15.39-.02.88-.49,1.47l-16.95,23.46,18.91,29.62c.42.71.49,1.26.22,1.65-.27.39-.82.58-1.65.58h-6.51c-2.08,0-3.48-.62-4.19-1.87l-13.65-21.85-5.62,6.6v15.25c0,1.25-.62,1.87-1.87,1.87Z"/><path class="cls-3" d="M68.47,222.74h-2.14c-4.7,0-8.33-1.25-10.88-3.75-2.56-2.5-3.84-6.1-3.84-10.79v-16.41c0-4.7,1.28-8.3,3.84-10.79,2.56-2.5,6.18-3.75,10.88-3.75h20.61c1.31,0,1.96.62,1.96,1.87v41.75c0,1.25-.66,1.87-1.96,1.87h-7.49c-1.25,0-1.87-.62-1.87-1.87v-2.94h-.36c-.66,1.61-1.81,2.81-3.48,3.61-1.67.8-3.42,1.2-5.26,1.2ZM77.57,206.15v-18.11c0-.65-.36-.98-1.07-.98h-8.39c-1.9,0-3.24.4-4.01,1.2-.77.8-1.16,2.16-1.16,4.06v15.34c0,1.9.39,3.26,1.16,4.06.77.8,2.11,1.2,4.01,1.2h3.3c4.1,0,6.16-2.26,6.16-6.78Z"/><path class="cls-3" d="M109.06,222.74h-7.58c-1.25,0-1.87-.62-1.87-1.87v-41.75c0-1.25.62-1.87,1.87-1.87h7.58c1.25,0,1.87.62,1.87,1.87v3.03h.36c.65-1.61,1.81-2.82,3.48-3.66,1.66-.83,3.42-1.25,5.26-1.25h3.21c1.19,0,1.78.62,1.78,1.87v6.15c0,.71-.13,1.2-.4,1.47-.27.27-.73.37-1.38.31h-6.16c-4.1,0-6.16,2.32-6.16,6.96v26.85c0,1.25-.62,1.87-1.87,1.87Z"/><path class="cls-3" d="M139.03,237.82h-5.71c-1.19,0-1.78-.65-1.78-1.96v-5.98c0-1.31.59-1.96,1.78-1.96h1.87c3.75,0,6.29-.52,7.63-1.56,1.34-1.04,2.36-3.05,3.08-6.02h-4.73c-1.13,0-1.87-.62-2.23-1.87l-10.44-39.34c-.36-1.25.09-1.87,1.34-1.87h7.94c1.19,0,1.93.62,2.23,1.87l7.67,32.92h.36l7.58-32.92c.24-1.25.98-1.87,2.23-1.87h7.49c1.49,0,2.08.65,1.78,1.96l-10.88,43.53c-1.31,4.94-3.33,8.68-6.07,11.24-2.74,2.56-6.45,3.84-11.15,3.84Z"/><path class="cls-3" d="M196.3,222.74h-7.94c-4.7,0-8.33-1.25-10.88-3.75-2.56-2.5-3.84-6.1-3.84-10.79v-16.41c0-4.7,1.28-8.3,3.84-10.79,2.56-2.5,6.18-3.75,10.88-3.75h7.94c4.64,0,8.25,1.26,10.84,3.79,2.59,2.53,3.88,6.11,3.88,10.75v16.41c0,4.64-1.29,8.22-3.88,10.75-2.59,2.53-6.2,3.79-10.84,3.79ZM190.05,213.02h4.55c1.9,0,3.26-.39,4.06-1.16.8-.77,1.2-2.11,1.2-4.01v-15.7c0-1.9-.4-3.24-1.2-4.01-.8-.77-2.16-1.16-4.06-1.16h-4.55c-1.9,0-3.24.39-4.01,1.16-.77.77-1.16,2.11-1.16,4.01v15.7c0,1.9.39,3.24,1.16,4.01.77.77,2.11,1.16,4.01,1.16Z"/><path class="cls-3" d="M230.28,222.74h-7.58c-1.25,0-1.87-.62-1.87-1.87v-41.75c0-1.25.62-1.87,1.87-1.87h7.58c1.25,0,1.87.62,1.87,1.87v2.94h.36c1.31-3.21,4.22-4.82,8.74-4.82h2.85c9.34,0,14,4.85,14,14.54v29.08c0,1.25-.66,1.87-1.96,1.87h-7.49c-1.25,0-1.87-.62-1.87-1.87v-28.55c0-1.9-.4-3.26-1.2-4.06-.8-.8-2.16-1.2-4.06-1.2h-3.21c-4.1,0-6.16,2.26-6.16,6.78v27.03c0,1.25-.62,1.87-1.87,1.87Z"/><path class="cls-3" d="M278.28,209.9v10.97c0,1.25-.57,1.87-1.7,1.87h-7.94c-1.19,0-1.78-.62-1.78-1.87v-10.88c0-1.19.59-1.78,1.78-1.78h7.94c1.13,0,1.7.57,1.7,1.69Z"/><path class="cls-3" d="M288.36,220.87v-53.61c0-1.25.62-1.87,1.87-1.87h21.41c4.7,0,8.33,1.25,10.88,3.75,2.56,2.5,3.84,6.07,3.84,10.7v3.66c0,5.06-2.35,8.33-7.05,9.81,2.38.36,4.28,1.32,5.71,2.9,1.43,1.58,2.14,3.82,2.14,6.73v5.35c0,4.64-1.28,8.21-3.84,10.7-2.56,2.5-6.16,3.75-10.79,3.75h-22.3c-1.25,0-1.87-.62-1.87-1.87ZM300.67,188.67h9.1c1.9,0,3.3-.4,4.19-1.2.89-.8,1.34-2.13,1.34-3.97v-3.48c0-1.84-.43-3.17-1.29-3.97-.86-.8-2.25-1.2-4.15-1.2h-9.19c-.65,0-.98.33-.98.98v11.86c0,.65.33.98.98.98ZM300.67,213.29h9.99c1.96,0,3.37-.4,4.24-1.2.86-.8,1.29-2.13,1.29-3.97v-5.17c0-1.84-.45-3.15-1.34-3.92-.89-.77-2.35-1.16-4.37-1.16h-9.81c-.65,0-.98.33-.98.98v13.47c0,.66.33.98.98.98Z"/><path class="cls-3" d="M338.31,169.58v-7.76c0-1.19.59-1.78,1.78-1.78h7.76c1.19,0,1.78.57,1.78,1.69v7.85c0,1.19-.6,1.78-1.78,1.78h-7.76c-1.19,0-1.78-.59-1.78-1.78ZM338.31,220.87v-41.75c0-1.25.59-1.87,1.78-1.87h7.67c1.25,0,1.87.62,1.87,1.87v41.75c0,.77-.13,1.28-.4,1.52-.27.24-.73.36-1.38.36h-7.67c-1.25,0-1.87-.62-1.87-1.87Z"/><path class="cls-3" d="M382.56,222.74h-7.94c-4.7,0-8.33-1.25-10.88-3.75-2.56-2.5-3.84-6.1-3.84-10.79v-16.41c0-4.7,1.28-8.3,3.84-10.79,2.56-2.5,6.18-3.75,10.88-3.75h7.94c4.64,0,8.25,1.26,10.84,3.79,2.59,2.53,3.88,6.11,3.88,10.75v16.41c0,4.64-1.29,8.22-3.88,10.75-2.59,2.53-6.2,3.79-10.84,3.79ZM376.31,213.02h4.55c1.9,0,3.26-.39,4.06-1.16.8-.77,1.2-2.11,1.2-4.01v-15.7c0-1.9-.4-3.24-1.2-4.01-.8-.77-2.16-1.16-4.06-1.16h-4.55c-1.9,0-3.24.39-4.01,1.16-.77.77-1.16,2.11-1.16,4.01v15.7c0,1.9.39,3.24,1.16,4.01.77.77,2.11,1.16,4.01,1.16Z"/></svg>