<svg width="559" height="321" viewBox="0 0 559 321" fill="none" xmlns="http://www.w3.org/2000/svg">
<path d="M119.792 247.41L189.541 157.267C200.652 142.4 206.728 124.187 206.728 103.572C206.728 77.1855 196.613 54.186 176.901 35.4812C157.191 16.7952 133.439 7.18708 105.628 7.18708C77.8462 7.18708 54.0746 16.7952 34.3641 35.4812C20.7274 47.9462 12.1285 61.8485 7.58106 77.6777H0C4.54741 59.9369 14.1433 44.1057 28.8074 30.2058C49.5268 10.0807 75.303 0 105.629 0C135.464 0 161.222 10.0807 181.97 30.2058C203.188 50.3676 213.801 74.8037 213.801 103.572C213.801 126.097 207.725 145.277 196.115 160.634L129.39 247.411L119.792 247.41Z" fill="url(#paint0_linear_365_11105)"/>
<path d="M6.0035 313.818H199.98V321H0.927734L6.0035 313.818Z" fill="url(#paint1_linear_365_11105)"/>
<path d="M29.5595 298.963H213.379V306.145H24.4727L29.5595 298.963Z" fill="url(#paint2_linear_365_11105)"/>
<path d="M9.23198 284.583H182.898V291.765H4.61914L9.23198 284.583Z" fill="url(#paint3_linear_365_11105)"/>
<path d="M36.9502 269.728H199.979V276.929H31.8633L36.9502 269.728Z" fill="url(#paint4_linear_365_11105)"/>
<path d="M137.265 125.768C142.318 118.561 145.331 110.88 145.331 103.182C145.331 93.0722 141.283 83.9503 133.235 76.2698C125.673 69.0628 116.093 65.1943 105.498 65.1943C94.4136 65.1943 85.3404 69.0624 77.2721 76.2698C69.7112 83.9503 65.6827 93.0722 65.6827 103.182C65.6827 106.064 66.1799 108.472 66.6872 110.88C63.6615 111.83 61.1452 112.797 59.1257 113.271C58.6286 109.913 58.1213 106.538 58.1213 103.182C58.1213 90.6835 62.6566 80.1011 71.7298 70.9776C81.3124 62.3121 92.3945 57.9873 105.498 57.9873C118.609 57.9873 129.712 62.3121 138.787 70.9776C148.347 80.1015 152.892 90.6835 152.892 103.182C152.892 112.797 149.869 121.919 143.819 129.619L53.0762 247.411H43.5059L137.265 125.768Z" fill="url(#paint5_linear_365_11105)"/>
<path d="M182.899 255.344V262.545H24.4746L30.0263 254.872C80.3598 254.872 129.784 255.344 182.899 255.344Z" fill="url(#paint6_linear_365_11105)"/>
<path d="M96.7185 201.698L149.669 133.489C156.725 123.95 160.257 114.411 160.257 103.442C160.257 89.1221 154.726 76.7411 144.115 66.7121C133.527 56.2134 120.421 51.4525 105.286 51.4525C90.1801 51.4525 77.0531 56.2134 66.4655 66.7121C55.3784 76.7411 50.3345 89.1221 50.3345 103.442C50.3345 114.411 53.3588 123.95 58.9026 132.06L51.8467 135.391C45.7955 126.322 42.2637 115.84 42.2637 103.442C42.2637 87.2224 48.8218 73.3923 60.9221 61.4616C73.024 50.0225 88.1504 43.8125 105.287 43.8125C122.453 43.8125 137.062 50.0225 149.669 61.4616C161.779 73.3919 167.809 87.2224 167.809 103.442C167.809 115.84 164.278 127.281 156.725 137.31L104.789 203.599L96.7185 201.698Z" fill="url(#paint7_linear_365_11105)"/>
<path d="M81.506 247.41L163.178 141.639C171.788 130.613 176.372 117.698 176.372 103.822C176.372 85.6192 169.274 69.8538 155.559 56.4306C141.353 43.5155 124.624 36.8123 105.343 36.8123C86.0703 36.8123 69.3312 43.5155 55.1349 56.4306C54.6244 57.3934 53.6035 58.3369 52.5923 58.8279C51.5815 58.3369 48.5389 56.902 45.9941 55.487C47.0151 54.0505 48.5385 52.5964 49.5493 51.6533C64.7667 36.8123 83.5374 29.6377 105.343 29.6377C126.656 29.6377 145.426 36.8123 160.644 51.6533C176.372 66.0029 183.97 83.7325 183.97 103.822C183.97 119.624 179.407 133.973 169.774 145.945L90.6459 247.411L81.506 247.41Z" fill="url(#paint8_linear_365_11105)"/>
<path d="M111.736 233.072L176.594 149.85C186.715 136.947 191.774 121.627 191.774 103.949C191.774 81.4587 183.174 62.3285 166.455 46.5541C149.746 30.2928 129.467 22.6501 105.648 22.6501C81.8383 22.6501 61.5678 30.2928 44.8588 46.5541C29.6486 60.4216 21.5391 77.1759 19.5198 96.2886L12.4297 97.2507C13.939 75.7229 23.0688 57.0637 39.79 41.2914C58.0286 24.0851 79.8271 15.4629 105.648 15.4629C131.496 15.4629 153.285 24.0851 171.515 41.2914C189.764 58.9882 198.884 79.5539 198.884 103.949C198.884 123.551 193.303 139.814 182.675 153.681L120.346 234.524L111.736 233.072Z" fill="url(#paint9_linear_365_11105)"/>
<path d="M401.974 43.5356H249.887V50.729H401.974V43.5356Z" fill="url(#paint10_linear_365_11105)"/>
<path d="M314.452 69.3994H306.824V173.252H314.452V69.3994Z" fill="url(#paint11_linear_365_11105)"/>
<path d="M300.557 84.2388H293.422V188.09H300.557V84.2388Z" fill="url(#paint12_linear_365_11105)"/>
<path d="M285.265 69.3994H277.639V173.252H285.265V69.3994Z" fill="url(#paint13_linear_365_11105)"/>
<path d="M269.975 77.0454H262.801V181.37H269.975V77.0454Z" fill="url(#paint14_linear_365_11105)"/>
<path d="M263.252 64.6032V58.3921H414.887V65.0945C364.217 65.0945 314.453 64.6032 263.252 64.6032Z" fill="url(#paint15_linear_365_11105)"/>
<path d="M328.801 80.4048V111.517V184.729H321.627V80.4048H328.801Z" fill="url(#paint16_linear_365_11105)"/>
<path d="M374.223 116.294C401.03 127.3 419.682 146.442 431.122 172.761C442.602 200.04 443.093 226.848 432.104 254.127C421.118 281.88 401.973 301.022 374.714 312.52C347.905 323.507 320.645 323.978 293.874 312.992C259.931 299.116 238.9 274.705 229.801 238.818L236.975 236.401C244.601 269.911 264.689 293.357 296.782 306.29C321.627 316.333 346.961 316.333 371.843 305.799C397.18 295.285 414.888 277.103 424.93 251.73C435.464 226.376 434.975 201.003 424.44 176.121C413.905 151.239 396.234 133.531 371.391 123.469L374.223 116.294Z" fill="url(#paint17_linear_365_11105)"/>
<path d="M334.087 122.032C358.441 122.506 379.963 131.605 397.671 149.313C415.379 167.021 424.44 188.561 424.44 213.916C424.44 239.289 415.379 260.829 397.671 279.01C379.509 296.718 357.95 305.799 333.105 305.799C301.049 305.799 275.715 292.413 256.57 265.134L261.819 259.866C278.583 285.711 301.992 298.625 333.105 298.625C356.061 298.625 376.149 290.016 392.423 273.742C408.696 257.469 417.266 237.364 417.266 213.916C417.266 190.468 408.696 170.853 392.423 154.088C376.149 137.834 356.516 129.697 334.087 129.697V122.032Z" fill="url(#paint18_linear_365_11105)"/>
<path d="M364.669 142.611C383.813 151.239 396.725 165.116 404.844 184.73C412.471 204.344 412.471 223.979 403.862 243.593C395.745 263.227 381.434 276.631 361.8 284.749C341.712 292.886 322.118 292.414 302.974 284.277C277.148 273.252 261.818 253.655 257.061 225.885L264.235 223.016C267.596 248.861 281.452 267.041 305.845 277.575C323.553 285.24 341.222 285.24 358.932 278.046C377.092 270.874 390.043 258.432 397.18 240.724C404.845 223.016 405.297 205.308 398.162 187.127C390.988 169.419 379.018 156.979 361.8 149.314L364.669 142.611Z" fill="url(#paint19_linear_365_11105)"/>
<path d="M334.086 151.239C350.812 151.711 365.123 157.467 377.091 169.418C389.061 181.86 395.253 196.698 395.253 213.917C395.253 231.153 389.061 245.973 377.091 257.96C364.669 270.4 350.321 276.631 333.103 276.631C321.135 276.631 310.601 273.743 300.557 267.531C291.005 261.774 283.34 254.127 278.582 245.047L284.321 240.724C294.856 259.866 311.092 269.437 333.103 269.437C347.904 269.437 360.856 263.7 371.842 252.692C382.378 242.158 388.116 228.753 388.116 213.916C388.116 198.625 382.378 185.692 371.842 174.686C361.308 164.15 348.395 158.884 334.085 158.884L334.086 151.239Z" fill="url(#paint20_linear_365_11105)"/>
<path d="M345.564 167.021C357.948 170.381 367.047 177.555 373.767 188.561C380.941 199.569 382.378 212.009 379.507 224.451C376.147 237.364 368.973 247.427 357.494 254.601C346.469 261.301 334.085 263.226 321.625 259.867C312.072 257.961 304.406 253.164 298.214 246.464C291.495 239.781 287.68 232.096 286.246 223.488L292.929 220.145C295.798 237.853 305.843 248.861 323.06 253.164C334.085 255.563 344.128 254.127 353.681 247.898C363.724 242.158 369.464 233.55 372.333 223.016C375.165 212.008 373.276 201.965 367.538 192.394C361.799 182.823 354.172 177.064 343.636 174.195L345.564 167.021Z" fill="url(#paint21_linear_365_11105)"/>
<path d="M421.119 0H269.031V7.17417H421.119V0Z" fill="url(#paint22_linear_365_11105)"/>
<path d="M390.043 14.3677H238.41V21.5419H390.043V14.3677Z" fill="url(#paint23_linear_365_11105)"/>
<path d="M414.887 29.1875H263.252V36.3808H414.887V29.1875Z" fill="url(#paint24_linear_365_11105)"/>
<path d="M494.785 137.216C494.785 145.144 493.056 151.037 489.596 154.897C486.136 158.757 481.399 160.686 475.386 160.686C471.679 160.686 468.353 159.867 465.409 158.227C462.464 156.588 460.167 154.025 458.52 150.539C456.872 147.052 456.049 142.799 456.049 137.776C456.049 132.381 456.687 127.877 457.964 124.266C459.24 120.656 461.31 117.916 464.173 116.048C467.035 114.181 470.691 113.247 475.139 113.247C478.352 113.247 481.172 113.745 483.603 114.741C486.033 115.737 488.092 117.262 489.781 119.317C491.469 121.371 492.725 123.872 493.55 126.819C494.373 129.766 494.785 133.231 494.785 137.216ZM483.232 136.593C483.232 131.156 482.655 127.203 481.502 124.733C480.349 122.264 478.31 121.029 475.386 121.029C473.409 121.029 471.834 121.62 470.66 122.803C469.486 123.986 468.683 125.729 468.251 128.033C467.818 130.336 467.602 133.273 467.602 136.842C467.602 140.537 467.818 143.545 468.251 145.869C468.683 148.194 469.475 149.947 470.629 151.13C471.782 152.313 473.368 152.904 475.386 152.904C478.434 152.904 480.503 151.597 481.595 148.982C482.686 146.367 483.232 142.238 483.232 136.593ZM535.993 121.465L484.53 205.076C483.211 207.358 481.728 208.5 480.081 208.5C479.133 208.5 478.186 208.136 477.239 207.41C476.292 206.684 475.819 205.739 475.819 204.578C475.819 203.706 476.23 202.648 477.054 201.403L528.826 117.107C529.732 115.572 530.525 114.42 531.205 113.652C531.884 112.884 532.862 112.5 534.139 112.5C535.375 112.5 536.373 112.864 537.136 113.59C537.897 114.316 538.279 115.281 538.279 116.485C538.279 117.356 537.516 119.016 535.993 121.465ZM558.049 182.227C558.049 190.155 556.319 196.048 552.859 199.908C549.399 203.768 544.662 205.698 538.65 205.698C534.901 205.698 531.555 204.868 528.61 203.208C525.665 201.548 523.359 198.996 521.691 195.55C520.023 192.105 519.189 187.852 519.189 182.787C519.189 174.694 520.722 168.603 523.791 164.515C526.859 160.427 531.73 158.383 538.402 158.383C541.615 158.383 544.426 158.881 546.835 159.877C549.245 160.873 551.304 162.367 553.014 164.36C554.722 166.352 555.989 168.832 556.813 171.799C557.637 174.767 558.049 178.243 558.049 182.227ZM546.496 181.605C546.496 176.251 545.918 172.339 544.766 169.869C543.612 167.401 541.573 166.165 538.65 166.165C536.59 166.165 534.983 166.747 533.831 167.908C532.677 169.071 531.864 170.783 531.391 173.044C530.916 175.307 530.68 178.243 530.68 181.854C530.68 187.416 531.267 191.483 532.441 194.056C533.615 196.63 535.684 197.916 538.65 197.916C541.656 197.916 543.716 196.599 544.828 193.963C545.94 191.328 546.496 187.208 546.496 181.605Z" fill="url(#paint25_linear_365_11105)"/>
<defs>
<linearGradient id="paint0_linear_365_11105" x1="106.9" y1="0" x2="106.9" y2="247.411" gradientUnits="userSpaceOnUse">
<stop stop-color="#009AFF"/>
<stop offset="1" stop-color="#1F3B60"/>
</linearGradient>
<linearGradient id="paint1_linear_365_11105" x1="100.454" y1="313.818" x2="100.454" y2="321" gradientUnits="userSpaceOnUse">
<stop stop-color="#009AFF"/>
<stop offset="1" stop-color="#1F3B60"/>
</linearGradient>
<linearGradient id="paint2_linear_365_11105" x1="118.926" y1="298.963" x2="118.926" y2="306.145" gradientUnits="userSpaceOnUse">
<stop stop-color="#009AFF"/>
<stop offset="1" stop-color="#1F3B60"/>
</linearGradient>
<linearGradient id="paint3_linear_365_11105" x1="93.7584" y1="284.583" x2="93.7584" y2="291.765" gradientUnits="userSpaceOnUse">
<stop stop-color="#009AFF"/>
<stop offset="1" stop-color="#1F3B60"/>
</linearGradient>
<linearGradient id="paint4_linear_365_11105" x1="115.921" y1="269.728" x2="115.921" y2="276.929" gradientUnits="userSpaceOnUse">
<stop stop-color="#009AFF"/>
<stop offset="1" stop-color="#1F3B60"/>
</linearGradient>
<linearGradient id="paint5_linear_365_11105" x1="98.1991" y1="57.9873" x2="98.1991" y2="247.411" gradientUnits="userSpaceOnUse">
<stop stop-color="#009AFF"/>
<stop offset="1" stop-color="#1F3B60"/>
</linearGradient>
<linearGradient id="paint6_linear_365_11105" x1="103.687" y1="254.872" x2="103.687" y2="262.545" gradientUnits="userSpaceOnUse">
<stop stop-color="#009AFF"/>
<stop offset="1" stop-color="#1F3B60"/>
</linearGradient>
<linearGradient id="paint7_linear_365_11105" x1="105.037" y1="43.8125" x2="105.037" y2="203.598" gradientUnits="userSpaceOnUse">
<stop stop-color="#009AFF"/>
<stop offset="1" stop-color="#1F3B60"/>
</linearGradient>
<linearGradient id="paint8_linear_365_11105" x1="114.982" y1="29.6377" x2="114.982" y2="247.411" gradientUnits="userSpaceOnUse">
<stop stop-color="#009AFF"/>
<stop offset="1" stop-color="#1F3B60"/>
</linearGradient>
<linearGradient id="paint9_linear_365_11105" x1="105.657" y1="15.4629" x2="105.657" y2="234.524" gradientUnits="userSpaceOnUse">
<stop stop-color="#009AFF"/>
<stop offset="1" stop-color="#1F3B60"/>
</linearGradient>
<linearGradient id="paint10_linear_365_11105" x1="325.93" y1="43.5356" x2="325.93" y2="50.729" gradientUnits="userSpaceOnUse">
<stop stop-color="#009AFF"/>
<stop offset="1" stop-color="#005C99"/>
</linearGradient>
<linearGradient id="paint11_linear_365_11105" x1="310.638" y1="69.3994" x2="310.638" y2="173.252" gradientUnits="userSpaceOnUse">
<stop stop-color="#009AFF"/>
<stop offset="1" stop-color="#005C99"/>
</linearGradient>
<linearGradient id="paint12_linear_365_11105" x1="296.99" y1="84.2388" x2="296.99" y2="188.09" gradientUnits="userSpaceOnUse">
<stop stop-color="#009AFF"/>
<stop offset="1" stop-color="#005C99"/>
</linearGradient>
<linearGradient id="paint13_linear_365_11105" x1="281.452" y1="69.3994" x2="281.452" y2="173.252" gradientUnits="userSpaceOnUse">
<stop stop-color="#009AFF"/>
<stop offset="1" stop-color="#005C99"/>
</linearGradient>
<linearGradient id="paint14_linear_365_11105" x1="266.388" y1="77.0454" x2="266.388" y2="181.37" gradientUnits="userSpaceOnUse">
<stop stop-color="#009AFF"/>
<stop offset="1" stop-color="#005C99"/>
</linearGradient>
<linearGradient id="paint15_linear_365_11105" x1="339.07" y1="58.3921" x2="339.07" y2="65.0945" gradientUnits="userSpaceOnUse">
<stop stop-color="#009AFF"/>
<stop offset="1" stop-color="#005C99"/>
</linearGradient>
<linearGradient id="paint16_linear_365_11105" x1="325.214" y1="80.4048" x2="325.214" y2="184.729" gradientUnits="userSpaceOnUse">
<stop stop-color="#009AFF"/>
<stop offset="1" stop-color="#005C99"/>
</linearGradient>
<linearGradient id="paint17_linear_365_11105" x1="334.924" y1="116.294" x2="334.924" y2="321" gradientUnits="userSpaceOnUse">
<stop stop-color="#009AFF"/>
<stop offset="1" stop-color="#005C99"/>
</linearGradient>
<linearGradient id="paint18_linear_365_11105" x1="340.505" y1="122.032" x2="340.505" y2="305.799" gradientUnits="userSpaceOnUse">
<stop stop-color="#009AFF"/>
<stop offset="1" stop-color="#005C99"/>
</linearGradient>
<linearGradient id="paint19_linear_365_11105" x1="333.754" y1="142.611" x2="333.754" y2="290.621" gradientUnits="userSpaceOnUse">
<stop stop-color="#009AFF"/>
<stop offset="1" stop-color="#005C99"/>
</linearGradient>
<linearGradient id="paint20_linear_365_11105" x1="336.918" y1="151.239" x2="336.918" y2="276.631" gradientUnits="userSpaceOnUse">
<stop stop-color="#009AFF"/>
<stop offset="1" stop-color="#005C99"/>
</linearGradient>
<linearGradient id="paint21_linear_365_11105" x1="333.569" y1="167.021" x2="333.569" y2="261.485" gradientUnits="userSpaceOnUse">
<stop stop-color="#009AFF"/>
<stop offset="1" stop-color="#005C99"/>
</linearGradient>
<linearGradient id="paint22_linear_365_11105" x1="345.075" y1="0" x2="345.075" y2="7.17417" gradientUnits="userSpaceOnUse">
<stop stop-color="#009AFF"/>
<stop offset="1" stop-color="#005C99"/>
</linearGradient>
<linearGradient id="paint23_linear_365_11105" x1="314.227" y1="14.3677" x2="314.227" y2="21.5419" gradientUnits="userSpaceOnUse">
<stop stop-color="#009AFF"/>
<stop offset="1" stop-color="#005C99"/>
</linearGradient>
<linearGradient id="paint24_linear_365_11105" x1="339.07" y1="29.1875" x2="339.07" y2="36.3808" gradientUnits="userSpaceOnUse">
<stop stop-color="#009AFF"/>
<stop offset="1" stop-color="#005C99"/>
</linearGradient>
<linearGradient id="paint25_linear_365_11105" x1="507.049" y1="112.5" x2="507.049" y2="208.5" gradientUnits="userSpaceOnUse">
<stop stop-color="#009AFF"/>
<stop offset="1" stop-color="#1F3B60"/>
</linearGradient>
</defs>
</svg>
