<svg width="660" height="312" viewBox="0 0 660 312" fill="none" xmlns="http://www.w3.org/2000/svg">
<path d="M119.792 239.837L189.541 152.881C200.652 138.54 206.728 120.971 206.728 101.085C206.728 75.6318 196.613 53.4456 176.901 35.4023C157.191 17.377 133.439 8.1087 105.628 8.1087C77.8462 8.1087 54.0746 17.377 34.3641 35.4023C20.7274 47.4264 12.1285 60.8372 7.58106 76.1066H0C4.54741 58.9931 14.1433 43.7218 28.8074 30.3134C49.5268 10.9 75.303 1.17578 105.629 1.17578C135.464 1.17578 161.222 10.9 181.97 30.3134C203.188 49.7622 213.801 73.3342 213.801 101.086C213.801 122.814 207.725 141.315 196.115 156.129L129.39 239.837L119.792 239.837Z" fill="url(#paint0_linear_365_11091)"/>
<path d="M6.0035 303.896H199.98V310.824H0.927734L6.0035 303.896Z" fill="url(#paint1_linear_365_11091)"/>
<path d="M29.5595 289.566H213.379V296.494H24.4727L29.5595 289.566Z" fill="url(#paint2_linear_365_11091)"/>
<path d="M9.23198 275.695H182.898V282.623H4.61914L9.23198 275.695Z" fill="url(#paint3_linear_365_11091)"/>
<path d="M36.9502 261.365H199.979V268.312H31.8633L36.9502 261.365Z" fill="url(#paint4_linear_365_11091)"/>
<path d="M137.265 122.496C142.318 115.544 145.331 108.135 145.331 100.709C145.331 90.9564 141.283 82.1572 133.235 74.7483C125.673 67.7962 116.093 64.0645 105.498 64.0645C94.4136 64.0645 85.3404 67.7958 77.2721 74.7483C69.7112 82.1572 65.6827 90.9564 65.6827 100.709C65.6827 103.489 66.1799 105.812 66.6872 108.135C63.6615 109.051 61.1452 109.984 59.1257 110.441C58.6286 107.202 58.1213 103.946 58.1213 100.709C58.1213 88.6522 62.6566 78.4441 71.7298 69.6433C81.3124 61.2841 92.3945 57.1123 105.498 57.1123C118.609 57.1123 129.712 61.2841 138.787 69.6433C148.347 78.4444 152.892 88.6522 152.892 100.709C152.892 109.984 149.869 118.783 143.819 126.211L53.0762 239.837H43.5059L137.265 122.496Z" fill="url(#paint5_linear_365_11091)"/>
<path d="M182.899 247.49V254.437H24.4746L30.0263 247.035C80.3598 247.035 129.784 247.49 182.899 247.49Z" fill="url(#paint6_linear_365_11091)"/>
<path d="M96.7185 195.741L149.669 129.945C156.725 120.743 160.257 111.541 160.257 100.96C160.257 87.1463 154.726 75.2031 144.115 65.5288C133.527 55.4013 120.421 50.8088 105.286 50.8088C90.1801 50.8088 77.0531 55.4013 66.4655 65.5288C55.3784 75.2031 50.3345 87.1463 50.3345 100.96C50.3345 111.541 53.3588 120.743 58.9026 128.566L51.8467 131.779C45.7955 123.031 42.2637 112.92 42.2637 100.96C42.2637 85.3137 48.8218 71.9727 60.9221 60.4639C73.024 49.4294 88.1504 43.439 105.287 43.439C122.453 43.439 137.062 49.4294 149.669 60.4639C161.779 71.9723 167.809 85.3137 167.809 100.96C167.809 112.92 164.278 123.956 156.725 133.631L104.789 197.574L96.7185 195.741Z" fill="url(#paint7_linear_365_11091)"/>
<path d="M81.506 239.837L163.178 137.807C171.788 127.17 176.372 114.712 176.372 101.327C176.372 83.7675 169.274 68.5596 155.559 55.6111C141.353 43.1527 124.624 36.6865 105.343 36.6865C86.0703 36.6865 69.3312 43.1527 55.1349 55.6111C54.6244 56.5398 53.6035 57.45 52.5923 57.9236C51.5815 57.45 48.5389 56.0658 45.9941 54.7009C47.0151 53.3151 48.5385 51.9125 49.5493 51.0027C64.7667 36.6865 83.5374 29.7656 105.343 29.7656C126.656 29.7656 145.426 36.6865 160.644 51.0027C176.372 64.8448 183.97 81.9474 183.97 101.327C183.97 116.57 179.407 130.412 169.774 141.96L90.6459 239.837L81.506 239.837Z" fill="url(#paint8_linear_365_11091)"/>
<path d="M111.736 226.005L176.594 145.727C186.715 133.28 191.774 118.501 191.774 101.449C191.774 79.7538 183.174 61.3001 166.455 46.0836C149.746 30.3973 129.467 23.0248 105.648 23.0248C81.8383 23.0248 61.5678 30.3973 44.8588 46.0836C29.6486 59.4606 21.5391 75.6225 19.5198 94.0593L12.4297 94.9873C13.939 74.2209 23.0688 56.2215 39.79 41.0069C58.0286 24.4091 79.8271 16.0918 105.648 16.0918C131.496 16.0918 153.285 24.4091 171.515 41.0069C189.764 58.0779 198.884 77.9163 198.884 101.449C198.884 120.357 193.303 136.045 182.675 149.422L120.346 227.407L111.736 226.005Z" fill="url(#paint9_linear_365_11091)"/>
<path d="M364.114 312C329.953 307.382 300.411 293.028 275.021 267.573C244.567 237.004 229.801 199.99 229.801 156.914C229.801 113.416 244.568 76.3849 275.021 45.816C305.485 15.2659 342.415 0 385.349 0C428.721 0 465.652 15.2656 496.105 45.816C526.605 76.3849 541.801 113.416 541.801 156.914C541.801 199.99 526.605 237.004 496.105 267.573C477.204 286.545 455.504 299.492 431.034 306.906L428.284 300.423C451.331 293.484 472.593 280.993 491.041 262.003C520.12 232.84 534.913 197.653 534.913 156.914C534.913 115.735 520.12 80.0912 491.041 50.9116C461.954 21.7675 426.862 6.93928 385.349 6.93928C344.721 6.93928 309.638 21.7675 280.105 50.9116C251.026 80.0912 236.259 115.735 236.259 156.914C236.259 197.653 251.026 232.84 280.105 262.003C304.09 286.545 332.722 300.898 365.026 305.061L364.114 312ZM385.349 299.493C346.114 299.493 312.399 285.614 284.714 257.841C257.021 230.066 243.173 196.284 243.173 156.914C243.173 132.391 248.703 110.642 258.869 90.7368L265.328 93.9887C255.172 112.486 250.088 133.797 250.088 156.914C250.088 193.964 263.48 225.901 289.787 252.746C316.571 279.131 348.409 292.553 385.349 292.553C422.726 292.553 454.556 279.131 480.901 252.746C507.656 225.901 520.556 193.964 520.556 156.914C520.556 119.443 507.657 87.4868 480.901 61.1009C454.556 34.2567 422.726 21.3096 385.349 21.3096C366.875 21.3096 349.347 24.5426 333.177 31.5004L327.175 25.93C345.175 18.0782 364.561 14.3538 385.348 14.3538C425.041 14.3538 458.254 28.2489 485.938 56.0056C514.106 83.7979 527.988 117.106 527.988 156.914C527.988 196.284 514.106 230.066 485.938 257.841C458.254 285.614 425.041 299.493 385.349 299.493ZM385.349 285.158C350.259 285.158 319.804 272.648 294.871 247.65C269.938 222.67 257.485 192.119 257.485 156.913C257.485 121.286 269.938 90.736 294.871 65.7375C319.804 40.7389 350.259 28.2481 385.349 28.2481C420.868 28.2481 451.33 40.7389 476.255 65.7375C501.207 90.736 513.632 121.286 513.632 156.913C513.632 192.119 501.207 222.67 476.255 247.65C451.33 272.648 420.868 285.158 385.349 285.158ZM264.399 156.914C264.399 190.257 276.397 218.964 299.955 242.556C323.485 266.642 352.108 278.2 385.349 278.2C419.028 278.2 447.196 266.642 471.172 242.556C494.72 218.964 506.746 190.257 506.746 156.914C506.746 123.132 494.72 94.9005 471.172 70.8334C447.196 47.2223 419.028 35.1874 385.349 35.1874C352.108 35.1874 323.485 47.2223 299.955 70.8334C276.397 94.9009 264.399 123.132 264.399 156.914ZM385.349 271.28C353.957 271.28 327.175 260.16 305.028 237.936C282.409 215.256 271.323 188.395 271.323 156.914C271.323 124.995 282.409 98.1505 305.028 75.9271C327.175 53.7053 353.957 42.1271 385.349 42.1271C417.189 42.1271 443.951 53.7053 466.125 75.9271C488.27 98.1509 499.823 124.995 499.823 156.914C499.823 168.509 497.965 179.137 495.194 189.326L488.27 187.938C491.041 178.223 492.425 168.034 492.425 156.914C492.425 127.295 482.285 101.859 461.041 81.0038C440.253 59.7131 414.873 49.5412 385.349 49.5412C356.261 49.5412 330.873 59.7135 310.112 81.0038C288.868 101.859 278.247 127.295 278.247 156.914C278.247 186.093 288.868 211.55 310.112 232.84C330.873 253.676 356.261 264.322 385.349 264.322C411.194 264.322 433.33 256.451 452.26 240.73L457.343 245.806C437.028 262.934 413.043 271.28 385.349 271.28ZM385.349 256.91C365.5 256.91 347.953 252.289 332.258 242.1L337.332 236.548C351.634 245.806 367.804 249.97 385.349 249.97C411.194 249.97 432.894 240.729 451.33 222.67C469.368 204.154 478.588 182.387 478.588 156.913C478.588 131.002 469.368 109.253 451.33 90.736C432.894 72.6767 411.194 63.419 385.349 63.419C359.942 63.419 338.261 72.6767 319.804 90.736C301.804 109.253 292.548 131.002 292.548 156.913V157.388C290.261 156.913 287.483 156.475 285.634 155.544C285.634 128.225 295.345 105.089 314.722 85.6423C334.106 66.1938 358.093 56.4797 385.349 56.4797C413.489 56.4797 437.028 66.1938 456.414 85.6423C475.817 105.089 485.502 128.7 485.502 156.913C485.502 184.705 475.817 208.316 456.414 227.746C437.028 247.194 413.489 256.91 385.349 256.91Z" fill="url(#paint10_linear_365_11091)"/>
<path d="M596.537 132.716C596.537 140.644 594.808 146.537 591.348 150.397C587.888 154.257 583.151 156.186 577.138 156.186C573.431 156.186 570.105 155.367 567.161 153.727C564.215 152.088 561.919 149.525 560.272 146.039C558.624 142.552 557.801 138.299 557.801 133.276C557.801 127.881 558.439 123.377 559.716 119.766C560.992 116.156 563.062 113.416 565.925 111.548C568.787 109.681 572.443 108.747 576.891 108.747C580.104 108.747 582.924 109.245 585.355 110.241C587.785 111.237 589.844 112.762 591.533 114.817C593.221 116.871 594.477 119.372 595.302 122.319C596.125 125.266 596.537 128.731 596.537 132.716ZM584.984 132.093C584.984 126.656 584.407 122.703 583.254 120.233C582.101 117.764 580.062 116.529 577.138 116.529C575.161 116.529 573.586 117.12 572.412 118.303C571.238 119.486 570.435 121.229 570.003 123.533C569.57 125.836 569.354 128.773 569.354 132.342C569.354 136.037 569.57 139.045 570.003 141.369C570.435 143.694 571.227 145.447 572.381 146.63C573.534 147.813 575.12 148.404 577.138 148.404C580.186 148.404 582.255 147.097 583.347 144.482C584.438 141.867 584.984 137.738 584.984 132.093ZM637.745 116.965L586.282 200.576C584.963 202.858 583.48 204 581.833 204C580.885 204 579.938 203.636 578.991 202.91C578.044 202.184 577.571 201.239 577.571 200.078C577.571 199.206 577.982 198.148 578.806 196.903L630.578 112.607C631.484 111.072 632.277 109.92 632.957 109.152C633.636 108.384 634.614 108 635.891 108C637.127 108 638.125 108.364 638.888 109.09C639.649 109.816 640.031 110.781 640.031 111.985C640.031 112.856 639.268 114.516 637.745 116.965ZM659.801 177.727C659.801 185.655 658.071 191.548 654.611 195.408C651.151 199.268 646.414 201.198 640.402 201.198C636.653 201.198 633.307 200.368 630.362 198.708C627.417 197.048 625.111 194.496 623.443 191.05C621.775 187.605 620.941 183.352 620.941 178.287C620.941 170.194 622.474 164.103 625.543 160.015C628.611 155.927 633.482 153.883 640.154 153.883C643.367 153.883 646.178 154.381 648.587 155.377C650.997 156.373 653.056 157.867 654.765 159.86C656.474 161.852 657.74 164.332 658.565 167.299C659.389 170.267 659.801 173.743 659.801 177.727ZM648.248 177.105C648.248 171.751 647.67 167.839 646.518 165.369C645.364 162.901 643.325 161.665 640.402 161.665C638.342 161.665 636.735 162.247 635.583 163.408C634.429 164.571 633.615 166.283 633.143 168.544C632.668 170.807 632.432 173.743 632.432 177.354C632.432 182.916 633.019 186.983 634.193 189.556C635.367 192.13 637.436 193.416 640.402 193.416C643.408 193.416 645.468 192.099 646.58 189.463C647.692 186.828 648.248 182.708 648.248 177.105Z" fill="url(#paint11_linear_365_11091)"/>
<defs>
<linearGradient id="paint0_linear_365_11091" x1="106.9" y1="1.17578" x2="106.9" y2="239.837" gradientUnits="userSpaceOnUse">
<stop stop-color="#009AFF"/>
<stop offset="1" stop-color="#1F3B60"/>
</linearGradient>
<linearGradient id="paint1_linear_365_11091" x1="100.454" y1="303.896" x2="100.454" y2="310.824" gradientUnits="userSpaceOnUse">
<stop stop-color="#009AFF"/>
<stop offset="1" stop-color="#1F3B60"/>
</linearGradient>
<linearGradient id="paint2_linear_365_11091" x1="118.926" y1="289.566" x2="118.926" y2="296.494" gradientUnits="userSpaceOnUse">
<stop stop-color="#009AFF"/>
<stop offset="1" stop-color="#1F3B60"/>
</linearGradient>
<linearGradient id="paint3_linear_365_11091" x1="93.7584" y1="275.695" x2="93.7584" y2="282.623" gradientUnits="userSpaceOnUse">
<stop stop-color="#009AFF"/>
<stop offset="1" stop-color="#1F3B60"/>
</linearGradient>
<linearGradient id="paint4_linear_365_11091" x1="115.921" y1="261.365" x2="115.921" y2="268.312" gradientUnits="userSpaceOnUse">
<stop stop-color="#009AFF"/>
<stop offset="1" stop-color="#1F3B60"/>
</linearGradient>
<linearGradient id="paint5_linear_365_11091" x1="98.1991" y1="57.1123" x2="98.1991" y2="239.837" gradientUnits="userSpaceOnUse">
<stop stop-color="#009AFF"/>
<stop offset="1" stop-color="#1F3B60"/>
</linearGradient>
<linearGradient id="paint6_linear_365_11091" x1="103.687" y1="247.035" x2="103.687" y2="254.437" gradientUnits="userSpaceOnUse">
<stop stop-color="#009AFF"/>
<stop offset="1" stop-color="#1F3B60"/>
</linearGradient>
<linearGradient id="paint7_linear_365_11091" x1="105.037" y1="43.439" x2="105.037" y2="197.574" gradientUnits="userSpaceOnUse">
<stop stop-color="#009AFF"/>
<stop offset="1" stop-color="#1F3B60"/>
</linearGradient>
<linearGradient id="paint8_linear_365_11091" x1="114.982" y1="29.7656" x2="114.982" y2="239.837" gradientUnits="userSpaceOnUse">
<stop stop-color="#009AFF"/>
<stop offset="1" stop-color="#1F3B60"/>
</linearGradient>
<linearGradient id="paint9_linear_365_11091" x1="105.657" y1="16.0918" x2="105.657" y2="227.407" gradientUnits="userSpaceOnUse">
<stop stop-color="#009AFF"/>
<stop offset="1" stop-color="#1F3B60"/>
</linearGradient>
<linearGradient id="paint10_linear_365_11091" x1="385.801" y1="0" x2="385.801" y2="312" gradientUnits="userSpaceOnUse">
<stop stop-color="#009AFF"/>
<stop offset="1" stop-color="#1F3B60"/>
</linearGradient>
<linearGradient id="paint11_linear_365_11091" x1="608.801" y1="108" x2="608.801" y2="204" gradientUnits="userSpaceOnUse">
<stop stop-color="#009AFF"/>
<stop offset="1" stop-color="#1F3B60"/>
</linearGradient>
</defs>
</svg>
