<svg xmlns="http://www.w3.org/2000/svg" width="25" height="25" viewBox="0 0 25 25" fill="none">
  <g clip-path="url(#clip0_1_1692)">
    <path d="M21.3695 3.63045C16.4469 -1.24398 8.50485 -1.20497 3.63044 3.71763C-1.21015 8.60605 -1.21015 16.4812 3.63044 21.3696C8.55305 26.244 16.4951 26.205 21.3695 21.2824C26.2101 16.394 26.2101 8.51885 21.3695 3.63045ZM12.5 24.0357C6.13915 24.0357 0.964339 18.8609 0.964339 12.5C0.964339 6.1391 6.1391 0.964401 12.5 0.964401C18.8608 0.964401 24.0356 6.1392 24.0356 12.5001C24.0356 18.8609 18.8608 24.0357 12.5 24.0357Z" fill="#3AD9FF"/>
    <path d="M19.2997 12.0633V12.0639L9.11532 6.18405C8.87427 6.0449 8.56603 6.12745 8.42688 6.36855C8.38268 6.4451 8.35938 6.5319 8.35938 6.6203V18.38C8.35947 18.6583 8.58527 18.8839 8.86357 18.8837C8.95197 18.8836 9.03882 18.8604 9.11537 18.8162L19.2998 12.9363C19.5409 12.7972 19.6235 12.489 19.4844 12.2479C19.4401 12.1712 19.3764 12.1076 19.2997 12.0633Z" fill="#3AD9FF"/>
  </g>
  <defs>
    <clipPath id="clip0_1_1692">
      <rect width="25" height="25" fill="white"/>
    </clipPath>
  </defs>
</svg>