<?xml version="1.0" encoding="UTF-8"?><svg id="Layer_1" xmlns="http://www.w3.org/2000/svg" viewBox="0 0 300 300"><defs><style>.cls-1{fill:#31e0ff;}.cls-1,.cls-2,.cls-3{stroke-width:0px;}.cls-2{fill:#e08330;opacity:0;}.cls-3{fill:#3132f5;}</style></defs><rect class="cls-2" width="300" height="300"/><path class="cls-3" d="M281.07,98.57c-1.4.16-2.78.16-4.12.02-6.6-.7-13.12,1.86-17.82,6.55l-1.68,1.68c-4.89,4.89-7.02,11.73-6.48,18.63.04.47.06.95.06,1.44s-.02.96-.06,1.44c-.54,6.9,1.59,13.74,6.48,18.63l1.21,1.21c4.81,4.81,11.49,7.54,18.25,6.8,1.32-.14,2.68-.15,4.07,0,8.56.94,15.46,7.99,16.23,16.56,1.03,11.48-8.51,21.02-19.99,20-8.53-.76-15.56-7.6-16.55-16.11-.16-1.4-.17-2.78-.03-4.11.69-6.58-1.88-13.08-6.56-17.75l-1.84-1.84c-4.66-4.66-11.14-7.23-17.7-6.56-1.33.14-2.71.13-4.12-.04-8.36-.99-15.13-7.82-16.03-16.19-1.2-11.07,7.44-20.42,18.26-20.42.47,0,.93.02,1.39.05,6.66.5,13.26-1.57,17.99-6.29l2.08-2.08c4.7-4.7,7.26-11.25,6.55-17.87-.14-1.33-.15-2.71.01-4.12.95-8.53,7.98-15.41,16.53-16.18,11.5-1.05,21.06,8.51,20.02,20.01-.77,8.54-7.63,15.57-16.15,16.54Z"/><path class="cls-1" d="M102.67,114.39c6.6,1.27,13.24-2.43,15.56-8.81.5-1.39,1.12-1.86,2.6-1.85,7.42.08,14.85.1,22.27,0,2.01-.03,3.46.5,4.92,1.98,2.83,2.87,5.68,5.72,8.53,8.57,1.06-1.87,2.36-3.6,3.85-5.15-.23-.15-.44-.31-.63-.48-3.1-2.9-6.13-5.89-9.04-8.99-1.38-1.47-2.8-2.12-4.87-2.09-8.29.13-16.58.02-24.87.08-1.51.01-2.24-.37-2.79-1.9-2.33-6.44-8.96-10.02-15.8-8.71-6.31,1.21-11.02,7.04-11.03,13.68-.01,6.68,4.71,12.4,11.3,13.67ZM105.27,91.86c4.89,0,8.83,3.91,8.84,8.76,0,5-3.95,9-8.87,8.98-4.94-.03-8.94-4.09-8.86-9.01.07-4.86,4.02-8.73,8.9-8.73Z"/><path class="cls-1" d="M156.73,161.76c-.73,1.07-1.53,1.08-2.74.59-4.35-1.74-9.11-.29-11.73,3.41-2.64,3.74-2.44,8.77.5,12.25,2.83,3.35,7.63,4.46,11.6,2.68,4.29-1.93,6.59-6.29,5.79-10.99-.46-2.74,1.93-5.74,4.66-5.75,10.89-.02,21.77-.02,32.66.02.41,0,.87.07,1.29.21-.34-1.01-.76-1.98-1.28-2.89-.7-1.15-1.5-2.16-2.36-3.03l-.47-.47c-9.35.07-18.7.14-28.05-.09-4.11-.1-7.47.55-9.88,4.07Z"/><path class="cls-1" d="M199.62,175.31c-.03-.34-.05-.68-.06-1.02-8.24,0-16.48,0-24.72.06-1.01,0-2.23.53-2.97,1.23-3.35,3.17-6.9,6.21-9.74,9.81-3.86,4.88-8.46,6.83-14.58,5.97-1.7-.24-2.55-.56-3.24-2.24-2.87-7.06-10.62-10.36-17.69-7.73-6.95,2.59-10.6,10.13-8.36,17.28,1.72,5.49,6.99,9.47,12.8,9.67,5.79.2,11.24-3.32,13.34-8.86.59-1.56,1.32-2.07,2.94-2.01,3.17.13,6.35.14,9.51-.02,1.02-.05,2.26-.53,2.98-1.24,4.86-4.72,9.58-9.59,14.44-14.31.77-.75,2.09-1.32,3.16-1.33,7.29-.06,14.58-.08,21.86-.07.33-1.66.45-3.4.31-5.19ZM131.61,203.26c-4.93.04-9-3.97-8.99-8.89,0-4.8,4-8.83,8.8-8.87,4.95-.04,8.96,3.94,8.95,8.9,0,4.89-3.89,8.81-8.76,8.86Z"/><path class="cls-1" d="M147.6,150c1.22-1.23,2.43-1.72,4.16-1.72,4.53,0,9.05.01,13.58.02-.03-.02-.05-.03-.08-.05-.53-.33-1.04-.67-1.53-1.03h-.02s-.02-.03-.02-.03l-.06-.04c-1.94-1.42-3.66-3.12-5.11-5.03-3.12,0-6.23,0-9.35-.01-1.71,0-2.93.45-4.16,1.69-8.65,8.78-17.37,17.49-26.13,26.16-.67.67-1.83,1.18-2.77,1.2-6.63.1-13.26.03-19.9.09-1.34.01-1.96-.35-2.46-1.72-2-5.54-7.2-9.11-12.94-9.13-7.11-.03-12.96,5.14-13.92,12.29-.91,6.82,3.66,13.42,10.47,15.14,6.76,1.7,13.84-1.9,16.28-8.52.61-1.64,1.4-1.97,2.97-1.95,6.99.08,13.99-.04,20.98.08,1.98.04,3.34-.6,4.7-1.98,8.4-8.52,16.9-16.94,25.3-25.46ZM80.84,183.22c-4.92.06-8.96-3.94-8.96-8.89,0-4.99,3.93-8.86,8.97-8.84,4.84.03,8.78,4,8.77,8.85-.01,4.83-3.96,8.82-8.78,8.88Z"/><path class="cls-1" d="M128.55,146.62c4.11-4.25,8.28-8.44,12.56-12.52.82-.78,2.22-1.33,3.36-1.35,3.18-.05,6.35-.06,9.53-.07-.02-.08-.04-.16-.05-.23l-.03-.13c-.04-.18-.1-.41-.15-.69-.11-.56-.2-1.15-.28-1.8h0c-.01-.09-.03-.23-.05-.4-.01-.1-.03-.21-.04-.31v-.02s0-.02,0-.02c-.03-.35-.04-.65-.04-.82v-.13c-.03-.37-.07-.83-.07-1.38,0-.09,0-.17,0-.26-15.5.05-30.99.02-46.49.05-1.48,0-2.55-.38-3.6-1.47-4.26-4.4-8.6-8.73-13-12.99-.68-.66-1.84-1.14-2.79-1.16-4.61-.12-9.23-.08-13.84-.03-1.17.01-1.73-.32-2.17-1.51-2.48-6.73-8.98-10.41-15.8-9.1-6.48,1.25-11.3,7.13-11.24,13.75.06,6.69,4.8,12.33,11.41,13.57,6.75,1.27,13.17-2.39,15.61-9.03.43-1.18.96-1.55,2.15-1.53,3.68.06,7.36-.09,11.03.09,1.14.06,2.51.63,3.33,1.43,4.37,4.19,8.55,8.58,12.91,12.77.77.74,2.08,1.28,3.15,1.29,9.01.1,18.02.06,27.04.07.67,0,1.34.07,2.73.15-2.94,2.85-5.47,5.19-7.84,7.68-1.15,1.21-2.33,1.65-3.97,1.65-29.78-.04-59.56-.05-89.33,0-1.69,0-2.48-.42-3.12-2.08-2.38-6.23-8.95-9.81-15.3-8.57-6.7,1.31-11.4,6.87-11.44,13.55-.04,6.84,4.59,12.49,11.36,13.83,6.38,1.27,12.99-2.26,15.35-8.47.67-1.78,1.55-2.17,3.28-2.17,30.57.05,61.14.02,91.71.07,1.73,0,2.94-.49,4.14-1.73ZM58.22,122.81c-4.96-.04-8.86-4.01-8.81-8.97.05-4.9,4.13-8.86,9.03-8.78,4.78.08,8.7,4.09,8.71,8.91.01,4.92-3.99,8.89-8.94,8.85ZM16.64,154.14c-4.84.03-8.82-3.87-8.91-8.74-.09-4.96,3.87-9.02,8.81-9.03,4.93-.01,8.98,4.04,8.95,8.93-.04,4.79-4.06,8.8-8.85,8.83Z"/><path class="cls-3" d="M243.14,171.52c-.77-8.54-7.63-15.57-16.15-16.54-1.4-.16-2.78-.16-4.12-.02-.73.08-1.47.1-2.2.1-4.01-.13-7.91-1.21-11.29-3.27-.02-.01-.04-.02-.07-.04-1.38-.85-2.67-1.86-3.85-3.04l-2.08-2.08c-1.33-1.33-2.46-2.81-3.42-4.39-1.66-2.87-2.65-6.09-3-9.43-.16-1.56-.2-3.14-.08-4.72.03-.32.03-.65.04-.98,0-.12.02-.23.02-.35,0,0,0,0,0-.01,0-.02,0-.03,0-.05,0-.02,0-.03,0-.05,0-.48-.02-.96-.06-1.44-.54-6.9,1.59-13.74,6.48-18.63l1.21-1.21c2.81-2.81,6.27-4.88,10-5.99,2.65-.79,5.44-1.11,8.25-.81.02,0,.04,0,.05,0,.64.07,1.29.1,1.94.1,0,0,0,0,0,0,.03,0,.06,0,.09,0,.63,0,1.25-.04,1.87-.1.04,0,.07,0,.11,0,1.12-.12,2.22-.36,3.27-.68.21-.07.42-.15.63-.22.3-.1.6-.21.89-.33.31-.12.61-.26.91-.4.17-.08.34-.16.51-.24.37-.19.73-.39,1.08-.6.07-.04.14-.08.21-.13,3-1.84,5.43-4.51,6.96-7.69.06-.11.11-.23.16-.34.15-.33.29-.66.42-1,.09-.22.17-.45.25-.68.09-.27.18-.54.26-.81.1-.33.18-.66.26-1,.05-.2.1-.41.14-.61.09-.43.15-.87.2-1.32.02-.14.04-.27.05-.41,0-.04.01-.07.02-.11.02-.19,0-.37.02-.56.02-.38.06-.75.06-1.14,0-.08-.01-.15-.01-.23,0-.27-.03-.53-.04-.79-.02-.4-.05-.8-.09-1.19-.03-.27-.08-.54-.12-.81-.06-.38-.13-.75-.22-1.11-.06-.27-.13-.53-.2-.79-.1-.36-.21-.71-.33-1.06-.09-.26-.18-.51-.28-.76-.14-.34-.29-.68-.44-1.02-.11-.24-.22-.48-.34-.71-.18-.34-.37-.66-.57-.99-.13-.21-.25-.43-.38-.63-.23-.35-.48-.68-.73-1.01-.13-.17-.24-.34-.37-.5-.39-.48-.8-.93-1.23-1.37,0,0-.01-.01-.02-.02-.14-.14-.29-.26-.43-.39-.31-.29-.62-.59-.95-.86-.16-.13-.33-.24-.49-.37-.33-.25-.67-.51-1.02-.74-.2-.14-.42-.26-.63-.38-.33-.2-.65-.39-.99-.57-.23-.12-.47-.23-.71-.34-.33-.16-.67-.31-1.02-.44-.25-.1-.5-.19-.76-.28-.35-.12-.7-.23-1.06-.33-.26-.07-.52-.14-.79-.2-.37-.08-.74-.15-1.12-.22-.27-.04-.54-.09-.81-.12-.39-.05-.79-.07-1.19-.09-.26-.01-.52-.04-.79-.04-.08,0-.15-.01-.23-.01-.38,0-.76.03-1.13.06-.19.01-.37,0-.56.02-.04,0-.08.01-.11.02-.14.01-.27.04-.41.05-.44.05-.88.12-1.31.2-.21.04-.41.09-.61.14-.34.08-.67.16-1,.26-.27.08-.53.17-.79.26-.23.08-.46.16-.69.25-.33.13-.66.26-.98.41-.12.06-.24.11-.36.17-2.73,1.32-5.08,3.28-6.86,5.7,0,0-.01.02-.02.03-.27.37-.53.76-.77,1.15-.06.09-.12.19-.17.28-.2.34-.39.68-.57,1.03-.1.19-.19.39-.28.58-.13.28-.26.56-.38.84-.14.35-.27.7-.39,1.06-.05.16-.12.31-.16.47-.32,1.04-.55,2.11-.68,3.21,0,.06,0,.11-.01.16-.05.47-.07.95-.09,1.44,0,.18-.03.36-.03.53,0,.02,0,.04,0,.06,0,.64.03,1.28.1,1.91,0,0,0,.01,0,.02.69,6.58-1.88,13.08-6.56,17.75l-1.84,1.84c-4.66,4.66-11.14,7.24-17.7,6.56-1.33-.14-2.71-.13-4.12.04-8.36.99-15.13,7.82-16.03,16.19,0,.09,0,.18-.01.27-.01.11,0,.23-.02.34-.02.21-.02.41-.03.62-.01.22-.03.43-.04.65,0,.08,0,.15,0,.23,0,.02,0,.04,0,.05,0,.39.03.78.06,1.16.01.18,0,.36.02.55,0,.04.01.07.01.11.01.13.04.25.05.38.05.45.12.9.2,1.34.04.2.09.4.14.59.08.34.16.68.26,1.02.08.27.16.53.25.79.08.24.17.47.26.71.13.33.26.65.41.97.06.13.12.25.18.38,1.32,2.72,3.28,5.07,5.7,6.84.01.01.03.02.04.03.36.26.74.51,1.12.75.11.07.21.13.32.2.32.19.65.38.99.55.2.11.41.2.62.3.27.12.53.25.8.36.35.14.71.27,1.07.39.15.05.3.11.46.16,1.05.32,2.13.56,3.24.68.05,0,.1,0,.15,0,.51.05,1.02.08,1.54.09.14,0,.28.02.42.02.01,0,.02,0,.03,0,.65,0,1.29-.04,1.93-.1.01,0,.03,0,.04,0,.73-.08,1.47-.1,2.2-.1,2.94.1,5.81.71,8.46,1.83.97.41,1.92.88,2.83,1.43.02.01.04.02.07.04,1.38.85,2.67,1.86,3.85,3.04l2.08,2.08c1.33,1.33,2.46,2.81,3.42,4.39,2.44,4.21,3.46,9.16,3.07,14.15-.03.38-.04.76-.04,1.15,0,.08,0,.16,0,.24,0,.02,0,.03,0,.05,0,.48.02.96.06,1.44.54,6.9-1.59,13.74-6.48,18.63l-1.21,1.21c-4.81,4.81-11.49,7.54-18.25,6.8-.02,0-.04,0-.05,0-.64-.07-1.29-.1-1.94-.1,0,0,0,0,0,0-.04,0-.08,0-.11,0-.43,0-.85.04-1.27.07-.19.01-.39.01-.58.03-.04,0-.07,0-.11,0-1.12.12-2.22.36-3.27.68-.21.07-.42.15-.63.22-.3.1-.6.21-.89.33-.31.12-.61.26-.91.4-.17.08-.34.16-.51.24-.37.19-.73.39-1.08.6-.07.04-.14.09-.21.13-3,1.84-5.43,4.51-6.97,7.69-.05.11-.11.23-.16.34-.15.33-.29.66-.42,1-.09.22-.17.45-.25.68-.09.27-.18.54-.26.81-.1.33-.18.66-.26,1-.05.2-.1.41-.14.61-.09.43-.15.87-.2,1.32-.02.14-.04.27-.05.41,0,.04-.01.07-.02.11-.02.19,0,.37-.02.56-.02.38-.06.75-.06,1.14,0,.08.01.15.01.23,0,.27.03.53.04.79.02.4.05.8.09,1.19.03.27.08.54.12.81.06.38.13.75.22,1.12.06.27.13.53.2.79.1.36.21.71.33,1.06.09.26.18.51.28.76.14.35.29.68.44,1.02.11.24.22.48.34.71.18.34.37.67.57.99.13.21.25.43.38.63.23.35.48.68.73,1.01.13.17.24.34.37.5.39.48.8.93,1.23,1.37,0,0,.01.01.02.02.44.44.9.85,1.39,1.25.16.13.33.24.49.37.33.25.67.51,1.02.74.2.13.42.25.63.38.33.2.65.39.99.57.23.12.47.23.7.34.34.16.67.31,1.02.44.25.1.5.19.76.28.35.12.7.23,1.06.33.26.07.52.14.79.2.36.08.73.15,1.1.21,0,0,.01,0,.02,0,.27.04.53.09.8.12.39.05.79.07,1.2.1.26.01.52.04.79.04.08,0,.15.01.23.01.38,0,.76-.03,1.14-.06.19-.01.37,0,.56-.02.04,0,.08-.01.11-.02.14-.01.28-.04.42-.06.44-.05.87-.11,1.3-.2.21-.04.41-.09.61-.14.34-.08.67-.16,1-.26.27-.08.53-.17.8-.26.23-.08.46-.16.69-.25.33-.13.66-.26.98-.41.12-.06.24-.11.36-.17,2.73-1.32,5.08-3.28,6.86-5.7,0,0,.01-.02.02-.02.27-.37.53-.76.78-1.15.06-.09.11-.19.17-.28.2-.34.39-.68.57-1.03.1-.19.19-.38.28-.58.13-.28.26-.56.38-.85.14-.35.27-.7.39-1.06.05-.16.12-.31.17-.47.32-1.04.55-2.11.68-3.21,0-.05,0-.11,0-.16.05-.47.07-.95.09-1.44,0-.18.03-.36.03-.53,0-.02,0-.04,0-.06,0-.64-.03-1.28-.1-1.91,0,0,0-.01,0-.02-.69-6.58,1.88-13.08,6.56-17.75l1.84-1.84c4.66-4.66,11.14-7.23,17.7-6.56,1.33.14,2.71.13,4.12-.04,8.36-.99,15.13-7.82,16.03-16.19.04-.41.05-.82.07-1.23.01-.22.03-.43.04-.65,0-.32-.02-.64-.03-.96-.01-.35,0-.69-.04-1.03Z"/></svg>