<svg width="791" height="1077" viewBox="0 0 791 1077" fill="none" xmlns="http://www.w3.org/2000/svg">
<g opacity="0.5" filter="url(#filter0_f_166_10875)">
<path d="M-334.873 840.26C-330.768 838.092 -326.487 839.404 -322.538 839.697C-267.765 843.923 -212.88 848.809 -158.942 847.084C-126.314 846.035 -129.436 848.253 -139.376 821.7C-159.092 769.027 -188.64 718.686 -215.218 667.651C-236.527 626.733 -256.677 585.624 -268.534 543.01C-280.02 501.788 -282.303 461.886 -264.943 425.488C-246.478 386.765 -212.755 362.161 -166.939 348.876C-150.868 344.206 -150.923 344.127 -152.294 328.211C-159.217 248.764 -109.237 189.738 -22.0737 173.664C28.6635 164.303 81.717 165.107 135.376 168.261C191.502 171.564 247.96 177.593 303.74 177.921C318.401 178.011 332.863 177.406 347.271 176.33C355.41 175.734 357.093 173.159 354.757 166.045C343.824 132.982 327.723 100.983 311.317 69.0537C288.081 23.7955 262.156 -20.7675 242.384 -66.8903C225.716 -105.789 211.55 -144.931 211.947 -184.703C212.654 -254.979 251.219 -299.778 323.9 -320.643C335.155 -323.876 338.465 -328.098 337.43 -338.814C329.26 -422.174 382.763 -483.077 473.595 -497.349C525.621 -505.528 579.488 -503.666 633.815 -500.575C639.584 -500.253 644.924 -498.297 649.895 -495.217C665.148 -485.741 680.375 -476.193 695.529 -466.582C697.994 -465.033 702.117 -463.427 701.423 -460.734C700.553 -457.255 695.939 -459.235 692.919 -459.405C683.386 -459.925 673.841 -460.738 662.185 -461.608C672.893 -450.524 684.378 -443.219 694.88 -435.109C728.088 -409.47 761.692 -384.216 795.188 -358.855C807.26 -349.715 809.749 -349.595 819.098 -357.855C823.592 -361.836 827.994 -365.962 831.737 -370.503C835.858 -375.484 840.884 -375.038 846.895 -371.326C859.566 -363.472 872.106 -355.439 884.831 -347.66C892.048 -343.234 891.194 -339.701 887.221 -334.999C864.729 -308.479 832.363 -294.531 794.481 -287.376C748.311 -278.646 699.701 -280.376 650.917 -283.224C595.511 -286.468 539.783 -292.41 484.732 -292.96C459.449 -293.203 434.32 -292.65 409.879 -289.433C401.732 -288.36 398.374 -285.897 400.63 -277.084C410.917 -237.206 429.33 -198.874 448.901 -160.733C473.42 -113.005 500.851 -66.0078 521.672 -17.3661C535.473 14.8732 546.839 47.4207 548.633 80.4728C552.129 145.229 513.47 192.288 443.761 209.047C435.796 210.956 424.582 209.248 420.558 215.493C416.845 221.234 421.839 229.865 422.812 237.216C427.295 270.929 422.595 302.286 403.256 328.446C382.527 356.469 350.819 372.887 312.155 380.842C263.432 390.856 211.929 388.86 160.217 385.989C97.8581 382.532 35.0527 375.578 -26.7767 376.436C-46.1704 376.699 -64.8396 379.342 -83.8411 380.967C-93.0478 381.746 -89.6014 387.96 -88.3904 392.66C-80.6595 422.353 -68.4911 451.4 -54.5321 480.128C-28.0238 534.708 3.72703 587.965 28.5282 642.981C47.3147 684.677 62.5342 726.604 59.0222 769.166C54.4706 824.16 20.9248 858.328 -35.8572 875.575C-43.0639 877.763 -50.5989 879.549 -58.2762 880.676C-67.5373 882.033 -70.7304 885.628 -68.6966 894.783C-62.6941 921.881 -63.3485 948.011 -72.4793 972.447C-74.2889 977.328 -76.6022 982.044 -79.2539 986.526C-86.2603 998.403 -86.3877 998.345 -100.509 989.492C-111.184 982.783 -121.761 975.94 -132.568 969.411C-138.797 965.649 -140.762 962.292 -137.959 956.439C-127.508 934.692 -127.946 934.789 -154.292 918.363C-167.233 910.297 -179.589 901.393 -191.899 892.541C-199.44 887.124 -207.279 884.714 -216.173 884.288C-230.919 883.577 -245.794 881.997 -260.528 881.424C-269.899 881.071 -277.888 878.129 -285.889 872.838C-301.464 862.525 -317.401 852.706 -333.171 842.621C-333.734 842.267 -333.97 841.506 -334.851 840.23L-334.873 840.26ZM131.915 208.272C129.828 206.786 129.34 206.37 122.859 206.17C94.4814 205.316 66.6369 206.679 39.5516 210.686C29.5178 212.17 29.3391 213.655 37.5797 220.168C90.3086 261.73 143.123 303.213 195.86 344.802C198.774 347.093 201.572 348.457 205.079 348.232C233.205 346.368 261.171 344.14 286.544 335.229C291.684 333.426 293.037 331.148 287.667 326.985C281.7 322.36 275.767 317.69 269.756 313.125C224.623 278.766 179.487 244.449 131.934 208.285L131.915 208.272ZM687.547 -324.25C691.124 -321.083 695.231 -321.588 699.144 -321.71C724.71 -322.514 749.134 -326.289 772.212 -333.339C782.096 -336.361 782.168 -338.088 772.694 -345.355C722.933 -383.498 673.118 -421.566 623.422 -459.798C619.254 -463.008 615.272 -463.411 610.83 -463.379C584.194 -463.204 557.427 -463.549 531.95 -458.992C528.267 -458.331 522.495 -459.463 521.861 -455.726C521.176 -451.649 526.748 -449.197 530.193 -446.508C563.17 -420.707 596.169 -394.936 629.232 -369.213C648.592 -354.158 668.101 -339.228 687.536 -324.235L687.547 -324.25ZM-204.053 578.062C-201.648 579.267 -199.263 580.459 -196.869 581.679C-162.434 599.206 -128.011 616.748 -93.565 634.259C-68.3154 647.107 -43.0742 659.929 -17.7563 672.645C-14.8333 674.11 -11.4238 676.537 -8.31125 675.145C-5.67504 673.979 -7.50996 671.141 -8.26037 669.029C-17.3273 643.528 -27.8398 618.3 -40.4078 593.444C-42.7677 588.766 -46.2739 585.425 -51.2474 582.89C-103.327 556.178 -155.344 529.419 -207.468 502.767C-217.121 497.838 -219.537 498.858 -219.774 507.593C-220.267 527.611 -216.897 547.846 -211.771 568.157C-210.726 572.271 -208.482 575.673 -204.034 578.074L-204.053 578.062ZM290.05 -64.5272C301.854 -35.4467 314.375 -9.63499 327.567 16.0729C332.169 25.0476 338.693 31.4675 348.204 36.5912C388.95 58.5432 429.662 80.5403 470.164 102.865C478.684 107.562 482.061 106.118 484.392 99.2458C490.819 80.3316 492.773 60.6407 489.736 39.7174C488.854 33.7147 486.072 30.5444 479.651 27.4717C441.308 9.1304 403.154 -9.66183 364.937 -28.2524C340.887 -39.9526 316.814 -51.5807 290.022 -64.5666L290.05 -64.5272ZM481.083 1.633C472.179 -27.1134 460.592 -52.3817 447.763 -77.4238C445.733 -81.3907 441.469 -83.5013 437.338 -85.6381C385.007 -112.705 332.663 -139.714 280.467 -167.003C272.636 -171.092 269.552 -170.36 269.31 -163.051C268.68 -144.629 271.434 -126.072 275.88 -107.348C277.476 -100.656 280.854 -96.1699 288.359 -92.5257C327.98 -73.3372 367.391 -53.6678 406.919 -34.2749C430.582 -22.6649 454.378 -11.277 481.072 1.64801L481.083 1.633ZM-7.35852 704.387C-9.9221 702.972 -11.2335 702.17 -12.6021 701.485C-71.0711 672.005 -129.54 642.525 -188.02 613.06C-190.043 612.03 -192.332 610.241 -194.274 611.231C-197.085 612.637 -194.655 615.28 -193.867 617.264C-183.471 643.271 -170.411 668.655 -156.78 693.917C-154.639 697.888 -151.277 700.263 -147.004 702.555C-132.164 710.502 -117.584 718.921 -102.832 726.989C-75.3068 742.033 -47.7352 756.975 -20.1771 771.974C-11.5472 776.676 -6.68888 775.725 -4.09521 767.639C0.965211 751.914 2.34215 735.493 1.64956 718.494C1.37795 712.043 -1.27401 707.029 -7.35006 704.414L-7.35852 704.387ZM160.081 345.861C135.203 326.922 110.198 308.079 85.4489 289.003C59.7173 269.178 34.0818 249.26 8.73465 229.064C0.332845 222.383 -6.84233 221.157 -15.2523 225.302C-30.4641 232.788 -45.0404 240.761 -56.8765 251.921C-62.5695 257.271 -61.464 260.526 -54.0603 265.704C-21.0805 288.749 11.5562 312.148 44.3521 335.406C48.3802 338.266 52.4455 341.346 57.5964 341.738C91.5389 344.317 125.519 347.116 160.092 345.846L160.081 345.861ZM531.081 -336.28C537.449 -332.126 543.422 -327.781 551.67 -327.324C580.455 -325.711 609.284 -323.654 638.081 -321.902C641.182 -321.726 645.807 -320.11 646.812 -323.308C647.79 -326.391 643.484 -328.288 640.875 -330.299C591.735 -368.052 542.51 -405.726 493.511 -443.631C488.476 -447.517 484.757 -448.279 479.573 -446.263C461.439 -439.235 445.785 -429.555 432.126 -417.527C427.579 -413.513 427.586 -410.227 433.933 -405.735C466.41 -382.699 498.714 -359.466 531.092 -336.295L531.081 -336.28ZM172.294 207.894C177.831 212.643 180.487 215.209 183.445 217.44C206.646 234.953 229.9 252.433 253.175 269.883C272.826 284.618 292.563 299.275 312.14 314.073C316.591 317.439 320.289 319.084 324.659 315.66C339.66 303.928 351.636 290.251 358.433 273.079C360.114 268.84 359.084 265.327 354.141 261.936C333.468 247.785 312.903 233.525 292.37 219.221C288.329 216.419 284.135 215.84 279.573 215.534C265.193 214.593 250.773 213.32 236.398 212.295C216.18 210.857 195.956 209.504 172.324 207.891L172.294 207.894ZM425.588 -118.011C424.725 -121.441 424.672 -122.416 424.219 -123.269C409.634 -151.45 394.936 -179.593 380.433 -207.809C378.194 -212.148 374.72 -215.185 370.362 -217.748C353.904 -227.435 337.263 -236.908 321.002 -246.865C313.979 -251.169 309.518 -249.443 305.994 -245.356C295.479 -233.058 285.345 -220.544 278.654 -205.843C275.424 -198.748 278.537 -195.217 286.517 -191.099C312.726 -177.626 338.561 -163.447 364.623 -149.694C384.203 -139.358 403.898 -129.257 425.588 -118.011ZM-64.9223 548.695C-65.4909 546.062 -65.4721 545.068 -65.9332 544.187C-80.5127 516.076 -95.1225 487.967 -109.732 459.858C-111.376 456.681 -113.548 453.762 -117.221 452.044C-134.323 444.054 -149.592 433.321 -165.415 423.464C-173.162 418.639 -178.432 419.069 -183.473 424.107C-193.715 434.366 -201.581 446.139 -208.12 458.616C-214.524 470.871 -212.905 472.764 -197.685 480.578C-172.551 493.507 -147.27 506.157 -122.488 519.762C-104.207 529.784 -85.8571 539.981 -64.9611 548.671L-64.9223 548.695ZM356.354 70.2463C372.586 101.059 387.893 130.306 400.037 160.279C402.749 166.994 407.494 166.081 412.424 164.256C430.659 157.555 446.662 148.443 459.982 136.027C466.046 130.363 464.36 127.05 456.518 122.822C435.703 111.579 415.251 99.6448 394.106 89.0477C382.248 83.1053 371.768 74.4624 356.313 70.2641L356.354 70.2463ZM-131.775 738.383C-131.863 739.86 -132.143 740.515 -131.88 741.008C-116.815 770.082 -102.013 799.208 -89.0713 828.785C-86.3485 834.982 -81.9441 835.233 -76.577 833.508C-56.7291 827.12 -40.6024 816.599 -26.7844 803.423C-22.399 799.243 -24.5795 796.8 -30.2298 793.796C-45.4348 785.729 -60.4072 777.304 -75.5002 769.044C-94.1238 758.872 -112.769 748.73 -131.775 738.383ZM494.563 -331.419C468.776 -350.819 446.053 -368.753 421.73 -385.002C415.989 -388.851 410.606 -391.096 407.339 -384.725C399.977 -370.424 395.525 -355.104 394.477 -338.63C394.237 -334.929 395.132 -332.2 400.641 -332.414C430.708 -333.563 461.135 -332.646 494.563 -331.419ZM-81.487 284.287C-89.3498 298.383 -93.3871 313.832 -94.9995 330.149C-95.5425 335.737 -92.5212 337.92 -86.1932 337.477C-60.2546 335.66 -33.754 336.757 -7.27378 337.688C-4.54144 337.785 -0.394419 339.319 0.366194 336.34C1.03513 333.719 -2.53688 331.824 -4.95056 330.089C-26.7899 314.395 -48.7885 298.841 -70.4661 282.964C-76.3315 278.665 -79.1126 280.069 -81.487 284.287ZM-154.24 888.637C-148.423 892.731 -143.25 896.31 -138.142 899.979C-133.7 903.165 -129.462 909.767 -124.454 907.991C-119.898 906.368 -122.73 899.468 -122.767 894.828C-122.788 891.446 -122.25 887.144 -128.837 887.36C-136.997 887.636 -145.601 886.233 -154.24 888.637ZM335.147 218.315C342.108 223.827 346.584 227.778 351.519 231.142C355.718 234 360.36 240.09 364.454 238.44C368.807 236.668 366.245 229.981 366.418 225.363C366.629 219.763 362.982 217.778 357.166 217.908C350.726 218.04 344.296 218.157 335.147 218.315Z" fill="#19BFCD"/>
</g>
<defs>
<filter id="filter0_f_166_10875" x="-415.473" y="-583.804" width="1386.32" height="1660.23" filterUnits="userSpaceOnUse" color-interpolation-filters="sRGB">
<feFlood flood-opacity="0" result="BackgroundImageFix"/>
<feBlend mode="normal" in="SourceGraphic" in2="BackgroundImageFix" result="shape"/>
<feGaussianBlur stdDeviation="40.3" result="effect1_foregroundBlur_166_10875"/>
</filter>
</defs>
</svg>
