<svg width="1005" height="1332" viewBox="0 0 1005 1332" fill="none" xmlns="http://www.w3.org/2000/svg">
<mask id="mask0_451_14466" style="mask-type:alpha" maskUnits="userSpaceOnUse" x="137" y="169" width="678" height="993">
<ellipse cx="475.82" cy="665.896" rx="169.586" ry="575.846" transform="rotate(32.132 475.82 665.896)" fill="#D9D9D9"/>
</mask>
<g mask="url(#mask0_451_14466)">
<circle cx="162.561" cy="879.628" r="11.7002" transform="rotate(41.5808 162.561 879.628)" fill="#0ACDDD"/>
<circle cx="162.561" cy="879.628" r="11.7002" transform="rotate(41.5808 162.561 879.628)" fill="url(#paint0_radial_451_14466)" style="mix-blend-mode:overlay"/>
<circle cx="162.561" cy="879.628" r="11.7002" transform="rotate(41.5808 162.561 879.628)" fill="url(#paint1_radial_451_14466)" style="mix-blend-mode:screen"/>
<circle cx="162.561" cy="879.628" r="11.7002" transform="rotate(41.5808 162.561 879.628)" fill="url(#paint2_radial_451_14466)" style="mix-blend-mode:screen"/>
<path d="M170.282 888.693C172.404 890.576 174.708 891.713 176.602 894.084C180.62 899.116 185.336 903.532 189.495 908.442C196.088 916.227 204.249 922.816 212.366 928.896C217.732 932.916 223.498 936.56 229.488 939.764C234.713 942.559 238.676 946.797 243.549 950.024C253.974 956.927 261.07 967.814 271.137 975.204C278.794 980.824 285.758 987.257 292.858 993.556C295.14 995.582 298.282 996.352 300.768 998.197C303.051 999.891 304.847 1002.25 306.977 1004.14C310.663 1007.41 313.094 1012.65 317.393 1015.11C320.793 1017.06 323.198 1020.48 326.144 1023.09C331.246 1027.62 335.869 1032.69 340.981 1037.23C344.582 1040.42 347.889 1043.78 351.224 1047.23C352.622 1048.68 353.644 1050.41 355.144 1051.74C355.46 1052.02 358.259 1054.9 357.966 1053.27" stroke="url(#paint3_linear_451_14466)" stroke-width="4.31741" stroke-linecap="round"/>
<path d="M171.482 887.342C173.604 889.224 175.007 891.376 177.587 892.974C183.061 896.365 188.007 900.522 193.378 904.067C201.893 909.686 209.407 917.004 216.41 924.339C221.04 929.189 225.345 934.48 229.239 940.045C232.636 944.9 237.316 948.33 241.1 952.785C249.196 962.314 260.85 968.062 269.386 977.179C275.878 984.112 283.094 990.26 290.194 996.559C292.477 998.584 293.616 1001.61 295.744 1003.86C297.697 1005.93 300.251 1007.43 302.382 1009.32C306.068 1012.59 311.557 1014.38 314.515 1018.35C316.854 1021.5 320.535 1023.48 323.481 1026.09C328.583 1030.62 334.172 1034.61 339.284 1039.14C342.885 1042.34 346.615 1045.22 350.439 1048.12C352.041 1049.33 353.878 1050.14 355.378 1051.47C355.694 1051.75 358.892 1054.19 357.234 1054.09" stroke="url(#paint4_linear_451_14466)" stroke-width="4.31741" stroke-linecap="round"/>
<circle cx="377.583" cy="1070.4" r="25.0697" transform="rotate(41.5808 377.583 1070.4)" fill="#0ACDDD"/>
<circle cx="377.583" cy="1070.4" r="25.0697" transform="rotate(41.5808 377.583 1070.4)" fill="url(#paint5_radial_451_14466)" style="mix-blend-mode:overlay"/>
<circle cx="377.583" cy="1070.4" r="25.0697" transform="rotate(41.5808 377.583 1070.4)" fill="url(#paint6_radial_451_14466)" style="mix-blend-mode:screen"/>
<circle cx="377.583" cy="1070.4" r="25.0697" transform="rotate(41.5808 377.583 1070.4)" fill="url(#paint7_radial_451_14466)" style="mix-blend-mode:screen"/>
<circle cx="251.019" cy="815.174" r="8.35418" transform="rotate(41.5808 251.019 815.174)" fill="#0ACDDD"/>
<circle cx="251.019" cy="815.174" r="8.35418" transform="rotate(41.5808 251.019 815.174)" fill="url(#paint8_radial_451_14466)" style="mix-blend-mode:overlay"/>
<circle cx="251.019" cy="815.174" r="8.35418" transform="rotate(41.5808 251.019 815.174)" fill="url(#paint9_radial_451_14466)" style="mix-blend-mode:screen"/>
<circle cx="251.019" cy="815.174" r="8.35418" transform="rotate(41.5808 251.019 815.174)" fill="url(#paint10_radial_451_14466)" style="mix-blend-mode:screen"/>
<path d="M257.053 821.808C258.674 823.246 260.54 823.995 261.906 825.897C264.804 829.934 268.379 833.338 271.413 837.251C276.222 843.453 282.533 848.4 288.864 852.896C293.05 855.869 297.627 858.458 302.45 860.626C306.657 862.518 309.599 865.851 313.451 868.171C321.689 873.134 326.571 882.056 334.442 887.498C340.428 891.636 345.718 896.584 351.141 901.395C352.884 902.942 355.52 903.264 357.462 904.626C359.245 905.876 360.527 907.777 362.154 909.221C364.97 911.719 366.466 916.127 369.908 917.83C372.63 919.177 374.317 921.958 376.567 923.955C380.465 927.413 383.882 931.417 387.787 934.882C390.537 937.322 393.014 939.946 395.503 942.647C396.546 943.779 397.231 945.207 398.377 946.224C398.618 946.438 400.709 948.695 400.647 947.265" stroke="url(#paint11_linear_451_14466)" stroke-width="4.31741" stroke-linecap="round"/>
<path d="M258.253 820.456C259.874 821.894 260.84 823.658 262.891 824.788C267.245 827.184 271.05 830.329 275.296 832.875C282.027 836.911 287.69 842.588 292.908 848.339C296.358 852.141 299.474 856.377 302.201 860.908C304.58 864.859 308.239 867.384 311.002 870.932C316.91 878.52 326.351 882.305 332.69 889.473C337.512 894.923 343.054 899.586 348.477 904.398C350.221 905.945 350.855 908.524 352.438 910.29C353.891 911.911 355.932 912.957 357.559 914.401C360.374 916.899 364.929 917.86 367.03 921.075C368.691 923.617 371.653 924.961 373.904 926.957C377.801 930.415 382.184 933.332 386.089 936.796C388.84 939.237 391.74 941.383 394.718 943.533C395.966 944.434 397.465 944.944 398.611 945.961C398.852 946.175 401.342 947.982 399.915 948.09" stroke="url(#paint12_linear_451_14466)" stroke-width="4.31741" stroke-linecap="round"/>
<circle cx="423.54" cy="968.24" r="31.7545" transform="rotate(41.5808 423.54 968.24)" fill="#0ACDDD"/>
<circle cx="423.54" cy="968.24" r="31.7545" transform="rotate(41.5808 423.54 968.24)" fill="url(#paint13_radial_451_14466)" style="mix-blend-mode:overlay"/>
<circle cx="423.54" cy="968.24" r="31.7545" transform="rotate(41.5808 423.54 968.24)" fill="url(#paint14_radial_451_14466)" style="mix-blend-mode:screen"/>
<circle cx="423.54" cy="968.24" r="31.7545" transform="rotate(41.5808 423.54 968.24)" fill="url(#paint15_radial_451_14466)" style="mix-blend-mode:screen"/>
<circle cx="460.777" cy="715.024" r="6.68479" transform="rotate(41.5808 460.777 715.024)" fill="#0ACDDD"/>
<circle cx="460.777" cy="715.024" r="6.68479" transform="rotate(41.5808 460.777 715.024)" fill="url(#paint16_radial_451_14466)" style="mix-blend-mode:overlay"/>
<circle cx="460.777" cy="715.024" r="6.68479" transform="rotate(41.5808 460.777 715.024)" fill="url(#paint17_radial_451_14466)" style="mix-blend-mode:screen"/>
<circle cx="460.777" cy="715.024" r="6.68479" transform="rotate(41.5808 460.777 715.024)" fill="url(#paint18_radial_451_14466)" style="mix-blend-mode:screen"/>
<path d="M465.223 720.682C465.439 720.873 466.077 720.532 465.961 721.12C465.715 722.368 466.091 722.933 465.969 724.045C465.775 725.809 466.894 726.15 468.219 726.204C469.094 726.239 470.336 725.869 471.886 725.133C473.237 724.492 473.318 725.285 474.302 725.061C476.407 724.583 475.079 727.996 476.789 727.971C478.09 727.952 478.684 728.733 479.405 729.373C479.636 729.578 480.855 728.643 481.268 728.648C481.648 728.654 481.49 729.277 481.706 729.469C482.08 729.801 480.953 731.881 481.992 731.452C482.814 731.113 482.485 732.106 482.784 732.371C483.302 732.831 483.338 733.835 483.857 734.296C484.222 734.62 484.368 735.176 484.487 735.774C484.537 736.024 484.275 736.612 484.427 736.747C484.459 736.776 484.564 737.271 485.147 736.414" stroke="url(#paint19_linear_451_14466)" stroke-width="4.31741" stroke-linecap="round"/>
<path d="M466.423 719.33C466.639 719.521 466.376 720.196 466.947 720.011C468.156 719.618 468.762 719.924 469.852 719.67C471.58 719.267 472.052 720.338 472.263 721.647C472.402 722.512 472.183 723.789 471.637 725.415C471.16 726.833 471.958 726.819 471.853 727.822C471.628 729.969 474.859 728.245 475.038 729.946C475.174 731.239 476.02 731.736 476.741 732.375C476.973 732.581 476.189 733.902 476.244 734.312C476.294 734.689 476.894 734.457 477.111 734.649C477.485 734.981 479.416 733.614 479.114 734.697C478.875 735.553 479.822 735.109 480.121 735.374C480.639 735.834 481.64 735.749 482.159 736.21C482.525 736.534 483.094 736.613 483.702 736.66C483.956 736.679 484.509 736.349 484.661 736.484C484.693 736.513 485.197 736.558 484.416 737.239" stroke="url(#paint20_linear_451_14466)" stroke-width="4.31741" stroke-linecap="round"/>
<circle cx="503.14" cy="752.611" r="36.7699" transform="rotate(41.5808 503.14 752.611)" fill="#0ACDDD"/>
<circle cx="503.14" cy="752.611" r="36.7699" transform="rotate(41.5808 503.14 752.611)" fill="url(#paint21_radial_451_14466)" style="mix-blend-mode:overlay"/>
<circle cx="503.14" cy="752.611" r="36.7699" transform="rotate(41.5808 503.14 752.611)" fill="url(#paint22_radial_451_14466)" style="mix-blend-mode:screen"/>
<circle cx="503.14" cy="752.611" r="36.7699" transform="rotate(41.5808 503.14 752.611)" fill="url(#paint23_radial_451_14466)" style="mix-blend-mode:screen"/>
<circle cx="36.7676" cy="36.7676" r="36.7676" transform="matrix(0.748021 0.663675 0.663675 -0.748021 532.492 573.095)" fill="#0ACDDD"/>
<circle cx="36.7676" cy="36.7676" r="36.7676" transform="matrix(0.748021 0.663675 0.663675 -0.748021 532.492 573.095)" fill="url(#paint24_radial_451_14466)" style="mix-blend-mode:overlay"/>
<circle cx="36.7676" cy="36.7676" r="36.7676" transform="matrix(0.748021 0.663675 0.663675 -0.748021 532.492 573.095)" fill="url(#paint25_radial_451_14466)" style="mix-blend-mode:screen"/>
<circle cx="36.7676" cy="36.7676" r="36.7676" transform="matrix(0.748021 0.663675 0.663675 -0.748021 532.492 573.095)" fill="url(#paint26_radial_451_14466)" style="mix-blend-mode:screen"/>
<path d="M602.454 586.789C602.669 586.98 603.308 586.64 603.192 587.228C602.946 588.476 603.322 589.041 603.199 590.153C603.005 591.917 604.125 592.258 605.449 592.311C606.325 592.347 607.567 591.977 609.116 591.241C610.468 590.599 610.548 591.393 611.532 591.169C613.637 590.691 612.31 594.104 614.02 594.079C615.32 594.06 615.914 594.841 616.635 595.48C616.867 595.686 618.085 594.75 618.499 594.756C618.879 594.761 618.72 595.385 618.936 595.577C619.311 595.909 618.184 597.989 619.223 597.56C620.044 597.221 619.716 598.214 620.015 598.479C620.533 598.939 620.568 599.943 621.087 600.403C621.453 600.728 621.598 601.284 621.718 601.881C621.767 602.132 621.505 602.72 621.658 602.855C621.69 602.883 621.795 603.378 622.378 602.521" stroke="url(#paint27_linear_451_14466)" stroke-width="4.31741" stroke-linecap="round"/>
<path d="M603.654 585.438C603.869 585.629 603.607 586.303 604.177 586.118C605.387 585.726 605.992 586.031 607.082 585.777C608.81 585.375 609.282 586.446 609.493 587.754C609.632 588.619 609.413 589.896 608.867 591.523C608.391 592.941 609.188 592.926 609.083 593.93C608.859 596.077 612.09 594.353 612.269 596.054C612.405 597.347 613.251 597.844 613.971 598.483C614.203 598.689 613.419 600.01 613.474 600.42C613.525 600.796 614.125 600.565 614.341 600.757C614.715 601.089 616.647 599.722 616.344 600.805C616.105 601.661 617.052 601.217 617.351 601.482C617.869 601.942 618.871 601.857 619.39 602.318C619.755 602.642 620.324 602.72 620.932 602.767C621.187 602.787 621.739 602.457 621.892 602.592C621.924 602.62 622.428 602.666 621.646 603.347" stroke="url(#paint28_linear_451_14466)" stroke-width="4.31741" stroke-linecap="round"/>
<circle cx="6.68502" cy="6.68502" r="6.68502" transform="matrix(0.748021 0.663675 0.663675 -0.748021 618.123 608.854)" fill="#0ACDDD"/>
<circle cx="6.68502" cy="6.68502" r="6.68502" transform="matrix(0.748021 0.663675 0.663675 -0.748021 618.123 608.854)" fill="url(#paint29_radial_451_14466)" style="mix-blend-mode:overlay"/>
<circle cx="6.68502" cy="6.68502" r="6.68502" transform="matrix(0.748021 0.663675 0.663675 -0.748021 618.123 608.854)" fill="url(#paint30_radial_451_14466)" style="mix-blend-mode:screen"/>
<circle cx="6.68502" cy="6.68502" r="6.68502" transform="matrix(0.748021 0.663675 0.663675 -0.748021 618.123 608.854)" fill="url(#paint31_radial_451_14466)" style="mix-blend-mode:screen"/>
<circle cx="33.4251" cy="33.4251" r="33.4251" transform="matrix(0.748021 0.663675 0.663675 -0.748021 593.188 474.855)" fill="#0ACDDD"/>
<circle cx="33.4251" cy="33.4251" r="33.4251" transform="matrix(0.748021 0.663675 0.663675 -0.748021 593.188 474.855)" fill="url(#paint32_radial_451_14466)" style="mix-blend-mode:overlay"/>
<circle cx="33.4251" cy="33.4251" r="33.4251" transform="matrix(0.748021 0.663675 0.663675 -0.748021 593.188 474.855)" fill="url(#paint33_radial_451_14466)" style="mix-blend-mode:screen"/>
<circle cx="33.4251" cy="33.4251" r="33.4251" transform="matrix(0.748021 0.663675 0.663675 -0.748021 593.188 474.855)" fill="url(#paint34_radial_451_14466)" style="mix-blend-mode:screen"/>
<path d="M665.505 495.48C666.429 496.3 667.686 496.509 668.318 497.76C669.657 500.415 671.647 502.411 673.116 504.936C675.446 508.938 679.183 511.602 683.033 513.896C685.578 515.413 688.502 516.536 691.702 517.265C694.494 517.901 696.018 519.975 698.448 521.034C703.646 523.3 705.45 529.492 710.268 532.224C713.932 534.301 716.894 537.184 719.986 539.928C720.981 540.81 722.914 540.508 724.098 541.198C725.186 541.831 725.754 543.099 726.682 543.922C728.287 545.347 728.483 548.601 730.734 549.247C732.514 549.758 733.202 551.653 734.485 552.792C736.708 554.763 738.449 557.281 740.675 559.257C742.244 560.648 743.565 562.247 744.88 563.906C745.43 564.6 745.646 565.612 746.299 566.192C746.437 566.314 747.544 567.698 747.801 566.552" stroke="url(#paint35_linear_451_14466)" stroke-width="4.31741" stroke-linecap="round"/>
<path d="M666.704 494.128C667.629 494.949 667.986 496.172 669.303 496.65C672.098 497.664 674.318 499.402 676.999 500.56C681.25 502.396 684.341 505.79 687.077 509.339C688.886 511.686 690.348 514.455 691.453 517.546C692.417 520.242 694.658 521.508 695.999 523.795C698.868 528.686 705.23 529.741 708.517 534.198C711.016 537.589 714.23 540.187 717.323 542.93C718.317 543.813 718.248 545.768 719.074 546.862C719.832 547.866 721.158 548.279 722.086 549.102C723.692 550.527 726.946 550.334 727.856 552.492C728.575 554.198 730.538 554.656 731.822 555.794C734.044 557.766 736.751 559.195 738.978 561.171C740.546 562.562 742.291 563.684 744.094 564.792C744.85 565.256 745.88 565.349 746.533 565.929C746.671 566.051 748.177 566.985 747.069 567.377" stroke="url(#paint36_linear_451_14466)" stroke-width="4.31741" stroke-linecap="round"/>
<circle cx="8.35627" cy="8.35627" r="8.35627" transform="matrix(0.748021 0.663675 0.663675 -0.748021 742.338 573.675)" fill="#0ACDDD"/>
<circle cx="8.35627" cy="8.35627" r="8.35627" transform="matrix(0.748021 0.663675 0.663675 -0.748021 742.338 573.675)" fill="url(#paint37_radial_451_14466)" style="mix-blend-mode:overlay"/>
<circle cx="8.35627" cy="8.35627" r="8.35627" transform="matrix(0.748021 0.663675 0.663675 -0.748021 742.338 573.675)" fill="url(#paint38_radial_451_14466)" style="mix-blend-mode:screen"/>
<circle cx="8.35627" cy="8.35627" r="8.35627" transform="matrix(0.748021 0.663675 0.663675 -0.748021 742.338 573.675)" fill="url(#paint39_radial_451_14466)" style="mix-blend-mode:screen"/>
<circle cx="21.7263" cy="21.7263" r="21.7263" transform="matrix(0.748021 0.663675 0.663675 -0.748021 680.711 247.954)" fill="#0ACDDD"/>
<circle cx="21.7263" cy="21.7263" r="21.7263" transform="matrix(0.748021 0.663675 0.663675 -0.748021 680.711 247.954)" fill="url(#paint40_radial_451_14466)" style="mix-blend-mode:overlay"/>
<circle cx="21.7263" cy="21.7263" r="21.7263" transform="matrix(0.748021 0.663675 0.663675 -0.748021 680.711 247.954)" fill="url(#paint41_radial_451_14466)" style="mix-blend-mode:screen"/>
<circle cx="21.7263" cy="21.7263" r="21.7263" transform="matrix(0.748021 0.663675 0.663675 -0.748021 680.711 247.954)" fill="url(#paint42_radial_451_14466)" style="mix-blend-mode:screen"/>
<path d="M727.231 260.577C729.72 262.785 732.344 264.206 734.624 266.92C739.463 272.679 745.014 277.836 749.996 283.477C757.894 292.42 767.409 300.21 776.832 307.449C783.062 312.235 789.698 316.651 796.541 320.612C802.511 324.068 807.221 328.969 812.843 332.86C824.867 341.183 833.583 353.506 845.258 362.322C854.137 369.027 862.326 376.547 870.652 383.935C873.329 386.31 876.84 387.408 879.725 389.607C882.374 391.626 884.545 394.316 887.044 396.533C891.367 400.368 894.482 406.212 899.408 409.232C903.303 411.62 906.235 415.505 909.69 418.571C915.674 423.88 921.179 429.737 927.174 435.056C931.397 438.803 935.312 442.703 939.266 446.703C940.922 448.379 942.191 450.325 943.95 451.887C944.321 452.215 947.638 455.56 947.177 453.776" stroke="url(#paint43_linear_451_14466)" stroke-width="4.31741" stroke-linecap="round"/>
<path d="M728.431 259.225C730.919 261.433 732.643 263.869 735.61 265.81C741.904 269.929 747.685 274.826 753.879 279.101C763.699 285.878 772.567 294.398 780.876 302.892C786.37 308.508 791.545 314.571 796.292 320.894C800.434 326.41 805.861 330.502 810.394 335.621C820.089 346.569 833.363 353.755 843.506 364.297C851.221 372.315 859.662 379.55 867.988 386.937C870.665 389.313 872.174 392.668 874.701 395.271C877.02 397.661 879.95 399.496 882.449 401.713C886.771 405.548 892.945 407.945 896.53 412.477C899.365 416.06 903.571 418.508 907.026 421.573C913.01 426.883 919.481 431.651 925.476 436.97C929.699 440.717 934.038 444.14 938.48 447.589C940.341 449.034 942.425 450.062 944.185 451.624C944.555 451.952 948.271 454.848 946.445 454.602" stroke="url(#paint44_linear_451_14466)" stroke-width="4.31741" stroke-linecap="round"/>
<g filter="url(#filter0_f_451_14466)">
<path d="M1006.47 153.222C1005.24 164.536 986.584 179.008 977.593 184.689C971.733 188.391 966.795 196.516 962.69 201.952C958.151 207.962 952.218 215.524 948.671 222.29C939.956 238.914 927.698 251.277 914.605 264.167C901.222 277.341 889.428 292.542 877.353 306.587C861.913 324.546 841.392 338.044 824.494 354.678C812.836 366.155 801.793 382.427 794.4 396.928C789.691 406.164 781.332 413.836 776.472 423.369C772.145 431.855 769.47 438.241 762.893 445.641C750.42 459.671 735.977 466.919 721.857 478.035C710.84 486.708 694.857 495.446 686.756 506.954C677.687 519.836 667.922 532.597 658.285 545.126C639.806 569.151 623.53 594.619 601.051 615.108C586.721 628.169 571.518 640.498 556.791 653.156C548.008 660.705 532.171 670.309 527.487 681.553C520.915 697.33 506.569 708.822 498.529 723.811C490.404 738.96 476.294 750.046 465.956 763.542C453.379 779.961 438.392 792.848 423.132 806.713C399.411 828.268 374.955 848.389 353.325 872.166C347.154 878.949 341.608 886.856 335.097 893.265C296.027 931.728 263.137 976.279 223.955 1014.85C210.133 1028.46 198.349 1044.05 185.107 1058.05C164.756 1079.57 148.883 1110.55 121.201 1124.12C113.21 1128.04 103.673 1141.65 101.913 1150.1C99.5097 1161.64 89.7868 1169.46 82.3785 1178.57" stroke="url(#paint45_linear_451_14466)" stroke-width="4.31741" stroke-linecap="round" stroke-dasharray="109.37 296.46"/>
</g>
<g filter="url(#filter1_f_451_14466)">
<path d="M995.804 160.006C994.582 171.321 975.922 185.792 966.93 191.473C961.071 195.175 956.133 203.3 952.027 208.737C947.489 214.747 941.556 222.309 938.009 229.074C929.294 245.699 917.036 258.062 903.942 270.951C890.56 284.125 878.766 299.326 866.691 313.372C851.251 331.331 830.729 344.828 813.832 361.463C802.174 372.94 791.131 389.212 783.738 403.712C779.029 412.949 770.669 420.621 765.81 430.153C761.483 438.64 758.808 445.026 752.23 452.425C739.758 466.456 725.315 473.704 711.195 484.82C700.178 493.492 684.195 502.231 676.094 513.739C667.025 526.621 657.26 539.381 647.623 551.911C629.144 575.935 612.867 601.404 590.389 621.892C576.059 634.953 560.856 647.282 546.128 659.941C537.346 667.49 521.509 677.094 516.825 688.338C510.252 704.115 495.907 715.606 487.867 730.596C479.741 745.745 465.632 756.83 455.294 770.326C442.717 786.745 427.73 799.632 412.47 813.498C388.749 835.053 364.293 855.174 342.663 878.95C336.492 885.733 330.946 893.641 324.435 900.05C285.365 938.512 252.475 983.063 213.293 1021.64C199.47 1035.24 187.687 1050.84 174.444 1064.84C154.094 1086.36 138.221 1117.33 110.539 1130.91C102.548 1134.82 93.0104 1148.43 91.2512 1156.88C88.8476 1168.43 79.1247 1176.24 71.7164 1185.35" stroke="url(#paint46_linear_451_14466)" stroke-width="4.31741" stroke-linecap="round" stroke-dasharray="0 440.38"/>
</g>
<g filter="url(#filter2_f_451_14466)">
<path d="M1026.48 130.057C1025.26 141.372 1006.6 155.843 997.608 161.524C991.749 165.226 986.81 173.351 982.705 178.788C978.167 184.798 972.233 192.36 968.687 199.125C959.971 215.75 947.714 228.113 934.62 241.003C921.238 254.177 909.443 269.378 897.368 283.423C881.929 301.382 861.407 314.88 844.509 331.514C832.852 342.991 821.809 359.263 814.416 373.763C809.706 383 801.347 390.672 796.487 400.205C792.161 408.691 789.486 415.077 782.908 422.477C770.436 436.507 755.993 443.755 741.873 454.871C730.856 463.543 714.873 472.282 706.772 483.79C697.703 496.672 687.938 509.433 678.3 521.962C659.822 545.986 643.545 571.455 621.067 591.943C606.737 605.005 591.534 617.334 576.806 629.992C568.023 637.541 552.187 647.145 547.503 658.389C540.93 674.166 526.585 685.658 518.545 700.647C510.419 715.796 496.31 726.881 485.972 740.377C473.395 756.797 458.407 769.684 443.148 783.549C419.426 805.104 394.971 825.225 373.34 849.002C367.169 855.784 361.623 863.692 355.113 870.101C316.043 908.563 283.153 953.115 243.97 991.687C230.148 1005.29 218.365 1020.89 205.122 1034.89C184.772 1056.41 168.899 1087.39 141.217 1100.96C133.226 1104.87 123.688 1118.48 121.929 1126.93C119.525 1138.48 109.802 1146.29 102.394 1155.41" stroke="url(#paint47_linear_451_14466)" stroke-width="4.31741" stroke-linecap="round" stroke-dasharray="28.78 8.63"/>
</g>
<circle cx="16.7125" cy="16.7125" r="16.7125" transform="matrix(0.748021 0.663675 0.663675 -0.748021 752.652 160.275)" fill="#0ACDDD"/>
<circle cx="16.7125" cy="16.7125" r="16.7125" transform="matrix(0.748021 0.663675 0.663675 -0.748021 752.652 160.275)" fill="url(#paint48_radial_451_14466)" style="mix-blend-mode:overlay"/>
<circle cx="16.7125" cy="16.7125" r="16.7125" transform="matrix(0.748021 0.663675 0.663675 -0.748021 752.652 160.275)" fill="url(#paint49_radial_451_14466)" style="mix-blend-mode:screen"/>
<circle cx="16.7125" cy="16.7125" r="16.7125" transform="matrix(0.748021 0.663675 0.663675 -0.748021 752.652 160.275)" fill="url(#paint50_radial_451_14466)" style="mix-blend-mode:screen"/>
<path d="M783.391 166.42C786.112 168.834 788.854 170.53 791.444 173.389C796.938 179.455 803.039 185.057 808.656 191.033C817.56 200.507 827.873 209.126 838.019 217.217C844.727 222.565 851.777 227.624 858.965 232.286C865.236 236.353 870.486 241.598 876.479 246.024C889.299 255.491 899.467 268.244 912.017 278.125C921.561 285.64 930.549 293.821 939.653 301.898C942.579 304.495 946.138 306.012 949.242 308.473C952.092 310.732 954.572 313.553 957.303 315.977C962.029 320.17 965.864 326.076 971.062 329.59C975.172 332.368 978.556 336.414 982.333 339.766C988.875 345.57 995.029 351.822 1001.58 357.637C1006.2 361.734 1010.54 365.931 1014.93 370.227C1016.77 372.026 1018.27 374.026 1020.2 375.733C1020.6 376.092 1024.28 379.686 1023.59 377.951" stroke="url(#paint51_linear_451_14466)" stroke-width="4.31741" stroke-linecap="round"/>
<path d="M784.365 165.321C787.085 167.735 789.096 170.256 792.243 172.487C798.921 177.219 805.209 182.61 811.811 187.475C822.278 195.188 832.064 204.401 841.305 213.512C847.414 219.535 853.277 225.933 858.761 232.515C863.546 238.257 869.378 242.845 874.487 248.269C885.413 259.87 899.286 268.447 910.591 279.731C919.188 288.312 928.382 296.263 937.485 304.339C940.412 306.936 942.342 310.288 945.155 313.078C947.737 315.638 950.834 317.765 953.566 320.188C958.291 324.381 964.612 327.485 968.72 332.228C971.968 335.978 976.388 338.856 980.165 342.207C986.708 348.012 993.647 353.378 1000.2 359.193C1004.82 363.29 1009.5 367.099 1014.29 370.947C1016.3 372.559 1018.46 373.812 1020.38 375.519C1020.79 375.878 1024.8 379.107 1022.99 378.623" stroke="url(#paint52_linear_451_14466)" stroke-width="4.31741" stroke-linecap="round"/>
<path d="M783.442 166.231C786.162 168.645 788.905 170.341 791.495 173.2C796.989 179.267 803.09 184.868 808.707 190.844C817.611 200.318 827.924 208.938 838.07 217.028C844.777 222.377 851.828 227.436 859.016 232.098C865.287 236.165 870.537 241.409 876.53 245.835C889.35 255.302 899.518 268.056 912.067 277.937C921.612 285.451 930.6 293.633 939.703 301.71C942.63 304.306 946.188 305.824 949.293 308.284C952.143 310.543 954.623 313.365 957.354 315.788C962.08 319.981 965.915 325.888 971.112 329.401C975.223 332.18 978.606 336.226 982.384 339.577C988.926 345.382 995.08 351.633 1001.63 357.449C1006.25 361.545 1010.59 365.742 1014.98 370.038C1016.82 371.838 1018.32 373.837 1020.25 375.544C1020.65 375.903 1024.34 379.498 1023.64 377.763" stroke="url(#paint53_linear_451_14466)" stroke-width="4.31741" stroke-linecap="round"/>
<path d="M784.416 165.132C787.136 167.546 789.147 170.067 792.294 172.298C798.971 177.031 805.26 182.422 811.862 187.287C822.328 195 832.115 204.213 841.356 213.323C847.465 219.346 853.327 225.744 858.812 232.326C863.597 238.068 869.429 242.656 874.537 248.08C885.464 259.682 899.337 268.258 910.642 279.542C919.239 288.124 928.433 296.074 937.536 304.151C940.463 306.748 942.393 310.1 945.206 312.889C947.788 315.45 950.885 317.576 953.616 320C958.342 324.193 964.663 327.297 968.771 332.039C972.019 335.79 976.439 338.667 980.216 342.019C986.759 347.823 993.698 353.189 1000.25 359.005C1004.87 363.101 1009.55 366.911 1014.34 370.759C1016.35 372.371 1018.51 373.624 1020.44 375.33C1020.84 375.689 1024.85 378.918 1023.04 378.434" stroke="url(#paint54_linear_451_14466)" stroke-width="4.31741" stroke-linecap="round"/>
<circle cx="31.7538" cy="31.7538" r="31.7538" transform="matrix(0.748021 0.663675 0.663675 -0.748021 638.613 365.734)" fill="#0ACDDD"/>
<circle cx="31.7538" cy="31.7538" r="31.7538" transform="matrix(0.748021 0.663675 0.663675 -0.748021 638.613 365.734)" fill="url(#paint55_radial_451_14466)" style="mix-blend-mode:overlay"/>
<circle cx="31.7538" cy="31.7538" r="31.7538" transform="matrix(0.748021 0.663675 0.663675 -0.748021 638.613 365.734)" fill="url(#paint56_radial_451_14466)" style="mix-blend-mode:screen"/>
<circle cx="31.7538" cy="31.7538" r="31.7538" transform="matrix(0.748021 0.663675 0.663675 -0.748021 638.613 365.734)" fill="url(#paint57_radial_451_14466)" style="mix-blend-mode:screen"/>
<path d="M706.456 384.682C708.076 386.12 709.943 386.868 711.308 388.771C714.206 392.808 717.782 396.212 720.815 400.124C725.624 406.327 731.935 411.274 738.267 415.77C742.452 418.742 747.029 421.332 751.852 423.5C756.059 425.392 759.002 428.724 762.853 431.045C771.091 436.008 775.973 444.93 783.844 450.372C789.83 454.51 795.12 459.457 800.543 464.269C802.287 465.816 804.923 466.138 806.865 467.5C808.647 468.75 809.929 470.651 811.557 472.095C814.372 474.593 815.868 479 819.31 480.704C822.032 482.051 823.719 484.832 825.97 486.828C829.867 490.286 833.284 494.291 837.189 497.756C839.94 500.196 842.416 502.82 844.906 505.521C845.949 506.652 846.633 508.08 847.779 509.097C848.02 509.311 850.112 511.568 850.049 510.138" stroke="url(#paint58_linear_451_14466)" stroke-width="4.31741" stroke-linecap="round"/>
<path d="M707.656 383.33C709.276 384.768 710.242 386.532 712.294 387.661C716.647 390.058 720.452 393.203 724.698 395.749C731.429 399.785 737.092 405.462 742.311 411.213C745.76 415.015 748.876 419.251 751.603 423.781C753.982 427.733 757.642 430.258 760.404 433.806C766.313 441.394 775.753 445.179 782.093 452.346C786.914 457.797 792.456 462.46 797.88 467.272C799.623 468.819 800.257 471.398 801.84 473.164C803.293 474.785 805.334 475.831 806.961 477.275C809.777 479.773 814.331 480.733 816.432 483.948C818.094 486.491 821.056 487.835 823.306 489.831C827.203 493.289 831.587 496.205 835.491 499.67C838.242 502.11 841.142 504.256 844.12 506.407C845.368 507.308 846.867 507.817 848.013 508.834C848.255 509.048 850.745 510.856 849.317 510.964" stroke="url(#paint59_linear_451_14466)" stroke-width="4.31741" stroke-linecap="round"/>
<circle cx="36.7699" cy="36.7699" r="36.7699" transform="matrix(0.748021 0.663675 0.663675 -0.748021 494.797 660.869)" fill="#0ACDDD"/>
<circle cx="36.7699" cy="36.7699" r="36.7699" transform="matrix(0.748021 0.663675 0.663675 -0.748021 494.797 660.869)" fill="url(#paint60_radial_451_14466)" style="mix-blend-mode:overlay"/>
<circle cx="36.7699" cy="36.7699" r="36.7699" transform="matrix(0.748021 0.663675 0.663675 -0.748021 494.797 660.869)" fill="url(#paint61_radial_451_14466)" style="mix-blend-mode:screen"/>
<circle cx="36.7699" cy="36.7699" r="36.7699" transform="matrix(0.748021 0.663675 0.663675 -0.748021 494.797 660.869)" fill="url(#paint62_radial_451_14466)" style="mix-blend-mode:screen"/>
<path d="M518.075 634.004C518.193 634.109 518.746 633.692 518.527 634.189C518.062 635.243 518.215 635.61 517.873 636.528C517.331 637.982 518.09 638.003 519.066 637.748C519.711 637.579 520.721 637.003 522.043 636.066C523.196 635.248 523.077 635.864 523.861 635.464C525.54 634.606 523.78 637.637 525.062 637.231C526.037 636.923 526.304 637.414 526.697 637.764C526.824 637.876 527.944 636.853 528.251 636.764C528.533 636.683 528.275 637.217 528.393 637.322C528.597 637.503 527.288 639.422 528.159 638.845C528.849 638.388 528.38 639.256 528.543 639.401C528.826 639.652 528.627 640.448 528.91 640.7C529.11 640.877 529.093 641.289 529.047 641.74C529.028 641.929 528.7 642.459 528.783 642.533C528.801 642.548 528.768 642.921 529.396 642.103" stroke="url(#paint63_linear_451_14466)" stroke-width="4.31741" stroke-linecap="round"/>
<path d="M519.277 632.653C519.394 632.757 519.047 633.356 519.514 633.079C520.505 632.493 520.888 632.601 521.758 632.152C523.138 631.441 523.249 632.191 523.112 633.191C523.021 633.852 522.569 634.923 521.796 636.347C521.121 637.589 521.719 637.398 521.414 638.224C520.763 639.993 523.562 637.885 523.313 639.206C523.123 640.21 523.642 640.417 524.036 640.766C524.162 640.879 523.28 642.112 523.229 642.428C523.181 642.718 523.681 642.397 523.799 642.502C524.004 642.684 525.753 641.155 525.283 642.089C524.912 642.828 525.719 642.259 525.882 642.404C526.165 642.655 526.931 642.362 527.214 642.614C527.414 642.791 527.821 642.725 528.264 642.626C528.449 642.585 528.936 642.196 529.019 642.27C529.037 642.285 529.403 642.208 528.666 642.929" stroke="url(#paint64_linear_451_14466)" stroke-width="4.31741" stroke-linecap="round"/>
<circle cx="36.7699" cy="36.7699" r="36.7699" transform="matrix(0.748021 0.663675 0.663675 -0.748021 494.797 660.869)" fill="#0ACDDD"/>
<circle cx="36.7699" cy="36.7699" r="36.7699" transform="matrix(0.748021 0.663675 0.663675 -0.748021 494.797 660.869)" fill="url(#paint65_radial_451_14466)" style="mix-blend-mode:overlay"/>
<circle cx="36.7699" cy="36.7699" r="36.7699" transform="matrix(0.748021 0.663675 0.663675 -0.748021 494.797 660.869)" fill="url(#paint66_radial_451_14466)" style="mix-blend-mode:screen"/>
<circle cx="36.7699" cy="36.7699" r="36.7699" transform="matrix(0.748021 0.663675 0.663675 -0.748021 494.797 660.869)" fill="url(#paint67_radial_451_14466)" style="mix-blend-mode:screen"/>
<circle cx="351.228" cy="760.151" r="8.35418" transform="rotate(41.5808 351.228 760.151)" fill="#0ACDDD"/>
<circle cx="351.228" cy="760.151" r="8.35418" transform="rotate(41.5808 351.228 760.151)" fill="url(#paint68_radial_451_14466)" style="mix-blend-mode:overlay"/>
<circle cx="351.228" cy="760.151" r="8.35418" transform="rotate(41.5808 351.228 760.151)" fill="url(#paint69_radial_451_14466)" style="mix-blend-mode:screen"/>
<circle cx="351.228" cy="760.151" r="8.35418" transform="rotate(41.5808 351.228 760.151)" fill="url(#paint70_radial_451_14466)" style="mix-blend-mode:screen"/>
<path d="M355.633 765.398C356.582 766.24 357.861 766.468 358.518 767.742C359.913 770.445 361.958 772.491 363.482 775.064C365.898 779.143 369.726 781.888 373.663 784.259C376.266 785.827 379.248 787.001 382.505 787.78C385.346 788.46 386.92 790.579 389.4 791.682C394.705 794.043 396.617 800.33 401.542 803.157C405.287 805.307 408.331 808.262 411.505 811.079C412.525 811.984 414.484 811.705 415.694 812.418C416.806 813.072 417.399 814.363 418.352 815.208C420 816.67 420.241 819.964 422.534 820.648C424.347 821.188 425.07 823.114 426.387 824.283C428.668 826.307 430.468 828.877 432.754 830.904C434.364 832.333 435.725 833.967 437.081 835.663C437.649 836.373 437.881 837.399 438.552 837.994C438.693 838.119 439.834 839.534 440.081 838.378" stroke="url(#paint71_linear_451_14466)" stroke-width="4.31741" stroke-linecap="round"/>
<path d="M356.833 764.047C357.782 764.888 358.16 766.131 359.504 766.632C362.353 767.694 364.628 769.481 367.365 770.688C371.703 772.602 374.884 776.076 377.707 779.702C379.573 782.099 381.094 784.92 382.256 788.062C383.269 790.802 385.56 792.112 386.951 794.443C389.926 799.429 396.397 800.579 399.79 805.132C402.371 808.595 405.667 811.265 408.841 814.081C409.862 814.987 409.818 816.964 410.67 818.082C411.452 819.108 412.804 819.543 413.756 820.388C415.404 821.85 418.704 821.697 419.656 823.893C420.408 825.628 422.407 826.117 423.724 827.286C426.005 829.31 428.771 830.791 431.056 832.819C432.666 834.247 434.451 835.404 436.296 836.549C437.069 837.028 438.115 837.136 438.786 837.731C438.927 837.856 440.467 838.821 439.349 839.203" stroke="url(#paint72_linear_451_14466)" stroke-width="4.31741" stroke-linecap="round"/>
<circle cx="464.993" cy="861.087" r="33.4239" transform="rotate(41.5808 464.993 861.087)" fill="#0ACDDD"/>
<circle cx="464.993" cy="861.087" r="33.4239" transform="rotate(41.5808 464.993 861.087)" fill="url(#paint73_radial_451_14466)" style="mix-blend-mode:overlay"/>
<circle cx="464.993" cy="861.087" r="33.4239" transform="rotate(41.5808 464.993 861.087)" fill="url(#paint74_radial_451_14466)" style="mix-blend-mode:screen"/>
<circle cx="464.993" cy="861.087" r="33.4239" transform="rotate(41.5808 464.993 861.087)" fill="url(#paint75_radial_451_14466)" style="mix-blend-mode:screen"/>
<path d="M88.8365 960.305C91.3005 962.491 93.9033 963.893 96.1581 966.585C100.942 972.295 106.437 977.403 111.365 982.995C119.176 991.861 128.601 999.571 137.937 1006.73C144.109 1011.47 150.687 1015.83 157.473 1019.74C163.393 1023.15 168.053 1028.01 173.625 1031.86C185.543 1040.09 194.15 1052.31 205.718 1061.04C214.516 1067.67 222.623 1075.11 230.868 1082.43C233.518 1084.78 237.005 1085.86 239.864 1088.03C242.488 1090.03 244.634 1092.7 247.108 1094.89C251.388 1098.69 254.458 1104.49 259.342 1107.48C263.205 1109.84 266.101 1113.69 269.522 1116.73C275.447 1121.98 280.894 1127.79 286.83 1133.05C291.012 1136.76 294.886 1140.63 298.798 1144.59C300.437 1146.25 301.69 1148.18 303.432 1149.73C303.799 1150.06 307.082 1153.37 306.632 1151.6" stroke="url(#paint76_linear_451_14466)" stroke-width="4.31741" stroke-linecap="round"/>
<path d="M90.0365 958.953C92.5005 961.139 94.2025 963.557 97.1435 965.475C103.383 969.545 109.108 974.393 115.247 978.619C124.98 985.319 133.758 993.759 141.981 1002.18C147.416 1007.74 152.533 1013.75 157.224 1020.02C161.317 1025.5 166.693 1029.54 171.176 1034.62C180.765 1045.47 193.93 1052.56 203.967 1063.01C211.6 1070.95 219.96 1078.12 228.204 1085.43C230.855 1087.78 232.339 1091.12 234.839 1093.7C237.134 1096.07 240.039 1097.88 242.513 1100.07C246.793 1103.87 252.921 1106.23 256.464 1110.72C259.266 1114.28 263.438 1116.69 266.859 1119.73C272.784 1124.99 279.196 1129.7 285.132 1134.97C289.314 1138.68 293.612 1142.07 298.013 1145.48C299.857 1146.91 301.924 1147.92 303.666 1149.47C304.033 1149.79 307.715 1152.66 305.9 1152.42" stroke="url(#paint77_linear_451_14466)" stroke-width="4.31741" stroke-linecap="round"/>
<circle cx="322.856" cy="1167.35" r="21.7238" transform="rotate(41.5808 322.856 1167.35)" fill="#0ACDDD"/>
<circle cx="322.856" cy="1167.35" r="21.7238" transform="rotate(41.5808 322.856 1167.35)" fill="url(#paint78_radial_451_14466)" style="mix-blend-mode:overlay"/>
<circle cx="322.856" cy="1167.35" r="21.7238" transform="rotate(41.5808 322.856 1167.35)" fill="url(#paint79_radial_451_14466)" style="mix-blend-mode:screen"/>
<circle cx="322.856" cy="1167.35" r="21.7238" transform="rotate(41.5808 322.856 1167.35)" fill="url(#paint80_radial_451_14466)" style="mix-blend-mode:screen"/>
</g>
<defs>
<filter id="filter0_f_451_14466" x="69.4252" y="140.269" width="949.993" height="1051.25" filterUnits="userSpaceOnUse" color-interpolation-filters="sRGB">
<feFlood flood-opacity="0" result="BackgroundImageFix"/>
<feBlend mode="normal" in="SourceGraphic" in2="BackgroundImageFix" result="shape"/>
<feGaussianBlur stdDeviation="5.39676" result="effect1_foregroundBlur_451_14466"/>
</filter>
<filter id="filter1_f_451_14466" x="58.7631" y="165.065" width="938.298" height="1033.24" filterUnits="userSpaceOnUse" color-interpolation-filters="sRGB">
<feFlood flood-opacity="0" result="BackgroundImageFix"/>
<feBlend mode="normal" in="SourceGraphic" in2="BackgroundImageFix" result="shape"/>
<feGaussianBlur stdDeviation="5.39676" result="effect1_foregroundBlur_451_14466"/>
</filter>
<filter id="filter2_f_451_14466" x="89.4409" y="117.105" width="949.993" height="1051.25" filterUnits="userSpaceOnUse" color-interpolation-filters="sRGB">
<feFlood flood-opacity="0" result="BackgroundImageFix"/>
<feBlend mode="normal" in="SourceGraphic" in2="BackgroundImageFix" result="shape"/>
<feGaussianBlur stdDeviation="5.39676" result="effect1_foregroundBlur_451_14466"/>
</filter>
<radialGradient id="paint0_radial_451_14466" cx="0" cy="0" r="1" gradientUnits="userSpaceOnUse" gradientTransform="translate(166.607 878.234) rotate(107.17) scale(13.705)">
<stop stop-color="#0A8F98"/>
<stop offset="1" stop-color="#064448"/>
</radialGradient>
<radialGradient id="paint1_radial_451_14466" cx="0" cy="0" r="1" gradientUnits="userSpaceOnUse" gradientTransform="translate(155.973 879.628) rotate(4.688) scale(16.1085)">
<stop stop-color="white"/>
<stop offset="1" stop-color="#033D3A" stop-opacity="0"/>
</radialGradient>
<radialGradient id="paint2_radial_451_14466" cx="0" cy="0" r="1" gradientUnits="userSpaceOnUse" gradientTransform="translate(165.981 888.45) rotate(-19.5025) scale(10.6172 4.88436)">
<stop stop-color="white" stop-opacity="0.62"/>
<stop offset="1" stop-color="#033D3A" stop-opacity="0"/>
</radialGradient>
<linearGradient id="paint3_linear_451_14466" x1="266.892" y1="968.057" x2="261.784" y2="973.814" gradientUnits="userSpaceOnUse">
<stop stop-color="#34E0EC" stop-opacity="0"/>
<stop offset="0.43" stop-color="#33DFEB"/>
<stop offset="1" stop-color="#34E0EC" stop-opacity="0"/>
</linearGradient>
<linearGradient id="paint4_linear_451_14466" x1="261.784" y1="973.814" x2="266.893" y2="968.057" gradientUnits="userSpaceOnUse">
<stop stop-color="#34E0EC" stop-opacity="0"/>
<stop offset="0.43" stop-color="#33DFEB"/>
<stop offset="1" stop-color="#34E0EC" stop-opacity="0"/>
</linearGradient>
<radialGradient id="paint5_radial_451_14466" cx="0" cy="0" r="1" gradientUnits="userSpaceOnUse" gradientTransform="translate(386.252 1067.42) rotate(107.17) scale(29.3654)">
<stop stop-color="#0A8F98"/>
<stop offset="1" stop-color="#064448"/>
</radialGradient>
<radialGradient id="paint6_radial_451_14466" cx="0" cy="0" r="1" gradientUnits="userSpaceOnUse" gradientTransform="translate(363.468 1070.4) rotate(4.688) scale(34.5154)">
<stop stop-color="white"/>
<stop offset="1" stop-color="#033D3A" stop-opacity="0"/>
</radialGradient>
<radialGradient id="paint7_radial_451_14466" cx="0" cy="0" r="1" gradientUnits="userSpaceOnUse" gradientTransform="translate(384.912 1089.31) rotate(-19.5025) scale(22.7493 10.4656)">
<stop stop-color="white" stop-opacity="0.62"/>
<stop offset="1" stop-color="#033D3A" stop-opacity="0"/>
</radialGradient>
<radialGradient id="paint8_radial_451_14466" cx="0" cy="0" r="1" gradientUnits="userSpaceOnUse" gradientTransform="translate(253.908 814.179) rotate(107.17) scale(9.78565)">
<stop stop-color="#0A8F98"/>
<stop offset="1" stop-color="#064448"/>
</radialGradient>
<radialGradient id="paint9_radial_451_14466" cx="0" cy="0" r="1" gradientUnits="userSpaceOnUse" gradientTransform="translate(246.315 815.174) rotate(4.688) scale(11.5018)">
<stop stop-color="white"/>
<stop offset="1" stop-color="#033D3A" stop-opacity="0"/>
</radialGradient>
<radialGradient id="paint10_radial_451_14466" cx="0" cy="0" r="1" gradientUnits="userSpaceOnUse" gradientTransform="translate(253.461 821.474) rotate(-19.5025) scale(7.58092 3.48754)">
<stop stop-color="white" stop-opacity="0.62"/>
<stop offset="1" stop-color="#033D3A" stop-opacity="0"/>
</radialGradient>
<linearGradient id="paint11_linear_451_14466" x1="331.595" y1="881.592" x2="326.487" y2="887.349" gradientUnits="userSpaceOnUse">
<stop stop-color="#34E0EC" stop-opacity="0"/>
<stop offset="0.43" stop-color="#33DFEB"/>
<stop offset="1" stop-color="#34E0EC" stop-opacity="0"/>
</linearGradient>
<linearGradient id="paint12_linear_451_14466" x1="326.488" y1="887.349" x2="331.596" y2="881.592" gradientUnits="userSpaceOnUse">
<stop stop-color="#34E0EC" stop-opacity="0"/>
<stop offset="0.43" stop-color="#33DFEB"/>
<stop offset="1" stop-color="#34E0EC" stop-opacity="0"/>
</linearGradient>
<radialGradient id="paint13_radial_451_14466" cx="0" cy="0" r="1" gradientUnits="userSpaceOnUse" gradientTransform="translate(434.52 964.457) rotate(107.17) scale(37.1956)">
<stop stop-color="#0A8F98"/>
<stop offset="1" stop-color="#064448"/>
</radialGradient>
<radialGradient id="paint14_radial_451_14466" cx="0" cy="0" r="1" gradientUnits="userSpaceOnUse" gradientTransform="translate(405.661 968.24) rotate(4.688) scale(43.7188)">
<stop stop-color="white"/>
<stop offset="1" stop-color="#033D3A" stop-opacity="0"/>
</radialGradient>
<radialGradient id="paint15_radial_451_14466" cx="0" cy="0" r="1" gradientUnits="userSpaceOnUse" gradientTransform="translate(432.823 992.185) rotate(-19.5025) scale(28.8153 13.2563)">
<stop stop-color="white" stop-opacity="0.62"/>
<stop offset="1" stop-color="#033D3A" stop-opacity="0"/>
</radialGradient>
<radialGradient id="paint16_radial_451_14466" cx="0" cy="0" r="1" gradientUnits="userSpaceOnUse" gradientTransform="translate(463.088 714.227) rotate(107.17) scale(7.83021)">
<stop stop-color="#0A8F98"/>
<stop offset="1" stop-color="#064448"/>
</radialGradient>
<radialGradient id="paint17_radial_451_14466" cx="0" cy="0" r="1" gradientUnits="userSpaceOnUse" gradientTransform="translate(457.013 715.023) rotate(4.688) scale(9.20344)">
<stop stop-color="white"/>
<stop offset="1" stop-color="#033D3A" stop-opacity="0"/>
</radialGradient>
<radialGradient id="paint18_radial_451_14466" cx="0" cy="0" r="1" gradientUnits="userSpaceOnUse" gradientTransform="translate(462.731 720.064) rotate(-19.5025) scale(6.06604 2.79064)">
<stop stop-color="white" stop-opacity="0.62"/>
<stop offset="1" stop-color="#033D3A" stop-opacity="0"/>
</radialGradient>
<linearGradient id="paint19_linear_451_14466" x1="477.866" y1="725.546" x2="472.758" y2="731.303" gradientUnits="userSpaceOnUse">
<stop stop-color="#34E0EC" stop-opacity="0"/>
<stop offset="0.43" stop-color="#33DFEB"/>
<stop offset="1" stop-color="#34E0EC" stop-opacity="0"/>
</linearGradient>
<linearGradient id="paint20_linear_451_14466" x1="472.759" y1="731.303" x2="477.867" y2="725.546" gradientUnits="userSpaceOnUse">
<stop stop-color="#34E0EC" stop-opacity="0"/>
<stop offset="0.43" stop-color="#33DFEB"/>
<stop offset="1" stop-color="#34E0EC" stop-opacity="0"/>
</linearGradient>
<radialGradient id="paint21_radial_451_14466" cx="0" cy="0" r="1" gradientUnits="userSpaceOnUse" gradientTransform="translate(515.855 748.23) rotate(107.17) scale(43.0703)">
<stop stop-color="#0A8F98"/>
<stop offset="1" stop-color="#064448"/>
</radialGradient>
<radialGradient id="paint22_radial_451_14466" cx="0" cy="0" r="1" gradientUnits="userSpaceOnUse" gradientTransform="translate(482.437 752.611) rotate(4.688) scale(50.6239)">
<stop stop-color="white"/>
<stop offset="1" stop-color="#033D3A" stop-opacity="0"/>
</radialGradient>
<radialGradient id="paint23_radial_451_14466" cx="0" cy="0" r="1" gradientUnits="userSpaceOnUse" gradientTransform="translate(513.89 780.337) rotate(-19.5025) scale(33.3665 15.35)">
<stop stop-color="white" stop-opacity="0.62"/>
<stop offset="1" stop-color="#033D3A" stop-opacity="0"/>
</radialGradient>
<radialGradient id="paint24_radial_451_14466" cx="0" cy="0" r="1" gradientUnits="userSpaceOnUse" gradientTransform="translate(49.4818 32.3871) rotate(107.17) scale(43.0676)">
<stop stop-color="#0A8F98"/>
<stop offset="1" stop-color="#064448"/>
</radialGradient>
<radialGradient id="paint25_radial_451_14466" cx="0" cy="0" r="1" gradientUnits="userSpaceOnUse" gradientTransform="translate(16.066 36.7676) rotate(4.688) scale(50.6207)">
<stop stop-color="white"/>
<stop offset="1" stop-color="#033D3A" stop-opacity="0"/>
</radialGradient>
<radialGradient id="paint26_radial_451_14466" cx="0" cy="0" r="1" gradientUnits="userSpaceOnUse" gradientTransform="translate(47.5162 64.4925) rotate(-19.5025) scale(33.3644 15.349)">
<stop stop-color="white" stop-opacity="0.62"/>
<stop offset="1" stop-color="#033D3A" stop-opacity="0"/>
</radialGradient>
<linearGradient id="paint27_linear_451_14466" x1="615.096" y1="591.654" x2="609.988" y2="597.411" gradientUnits="userSpaceOnUse">
<stop stop-color="#34E0EC" stop-opacity="0"/>
<stop offset="0.43" stop-color="#33DFEB"/>
<stop offset="1" stop-color="#34E0EC" stop-opacity="0"/>
</linearGradient>
<linearGradient id="paint28_linear_451_14466" x1="609.989" y1="597.411" x2="615.097" y2="591.654" gradientUnits="userSpaceOnUse">
<stop stop-color="#34E0EC" stop-opacity="0"/>
<stop offset="0.43" stop-color="#33DFEB"/>
<stop offset="1" stop-color="#34E0EC" stop-opacity="0"/>
</linearGradient>
<radialGradient id="paint29_radial_451_14466" cx="0" cy="0" r="1" gradientUnits="userSpaceOnUse" gradientTransform="translate(8.99669 5.88856) rotate(107.17) scale(7.83048)">
<stop stop-color="#0A8F98"/>
<stop offset="1" stop-color="#064448"/>
</radialGradient>
<radialGradient id="paint30_radial_451_14466" cx="0" cy="0" r="1" gradientUnits="userSpaceOnUse" gradientTransform="translate(2.92109 6.68502) rotate(4.688) scale(9.20376)">
<stop stop-color="white"/>
<stop offset="1" stop-color="#033D3A" stop-opacity="0"/>
</radialGradient>
<radialGradient id="paint31_radial_451_14466" cx="0" cy="0" r="1" gradientUnits="userSpaceOnUse" gradientTransform="translate(8.63931 11.7259) rotate(-19.5025) scale(6.06625 2.79073)">
<stop stop-color="white" stop-opacity="0.62"/>
<stop offset="1" stop-color="#033D3A" stop-opacity="0"/>
</radialGradient>
<radialGradient id="paint32_radial_451_14466" cx="0" cy="0" r="1" gradientUnits="userSpaceOnUse" gradientTransform="translate(44.9835 29.4428) rotate(107.17) scale(39.1524)">
<stop stop-color="#0A8F98"/>
<stop offset="1" stop-color="#064448"/>
</radialGradient>
<radialGradient id="paint33_radial_451_14466" cx="0" cy="0" r="1" gradientUnits="userSpaceOnUse" gradientTransform="translate(14.6055 33.4251) rotate(4.688) scale(46.0188)">
<stop stop-color="white"/>
<stop offset="1" stop-color="#033D3A" stop-opacity="0"/>
</radialGradient>
<radialGradient id="paint34_radial_451_14466" cx="0" cy="0" r="1" gradientUnits="userSpaceOnUse" gradientTransform="translate(43.1965 58.6295) rotate(-19.5025) scale(30.3313 13.9537)">
<stop stop-color="white" stop-opacity="0.62"/>
<stop offset="1" stop-color="#033D3A" stop-opacity="0"/>
</radialGradient>
<linearGradient id="paint35_linear_451_14466" x1="709.366" y1="528.043" x2="704.258" y2="533.801" gradientUnits="userSpaceOnUse">
<stop stop-color="#34E0EC" stop-opacity="0"/>
<stop offset="0.43" stop-color="#33DFEB"/>
<stop offset="1" stop-color="#34E0EC" stop-opacity="0"/>
</linearGradient>
<linearGradient id="paint36_linear_451_14466" x1="704.258" y1="533.801" x2="709.367" y2="528.043" gradientUnits="userSpaceOnUse">
<stop stop-color="#34E0EC" stop-opacity="0"/>
<stop offset="0.43" stop-color="#33DFEB"/>
<stop offset="1" stop-color="#34E0EC" stop-opacity="0"/>
</linearGradient>
<radialGradient id="paint37_radial_451_14466" cx="0" cy="0" r="1" gradientUnits="userSpaceOnUse" gradientTransform="translate(11.2459 7.3607) rotate(107.17) scale(9.7881)">
<stop stop-color="#0A8F98"/>
<stop offset="1" stop-color="#064448"/>
</radialGradient>
<radialGradient id="paint38_radial_451_14466" cx="0" cy="0" r="1" gradientUnits="userSpaceOnUse" gradientTransform="translate(3.65136 8.35627) rotate(4.688) scale(11.5047)">
<stop stop-color="white"/>
<stop offset="1" stop-color="#033D3A" stop-opacity="0"/>
</radialGradient>
<radialGradient id="paint39_radial_451_14466" cx="0" cy="0" r="1" gradientUnits="userSpaceOnUse" gradientTransform="translate(10.7991 14.6574) rotate(-19.5025) scale(7.58281 3.48842)">
<stop stop-color="white" stop-opacity="0.62"/>
<stop offset="1" stop-color="#033D3A" stop-opacity="0"/>
</radialGradient>
<radialGradient id="paint40_radial_451_14466" cx="0" cy="0" r="1" gradientUnits="userSpaceOnUse" gradientTransform="translate(29.2393 19.1378) rotate(107.17) scale(25.4491)">
<stop stop-color="#0A8F98"/>
<stop offset="1" stop-color="#064448"/>
</radialGradient>
<radialGradient id="paint41_radial_451_14466" cx="0" cy="0" r="1" gradientUnits="userSpaceOnUse" gradientTransform="translate(9.49354 21.7263) rotate(4.688) scale(29.9122)">
<stop stop-color="white"/>
<stop offset="1" stop-color="#033D3A" stop-opacity="0"/>
</radialGradient>
<radialGradient id="paint42_radial_451_14466" cx="0" cy="0" r="1" gradientUnits="userSpaceOnUse" gradientTransform="translate(28.0777 38.1092) rotate(-19.5025) scale(19.7153 9.06988)">
<stop stop-color="white" stop-opacity="0.62"/>
<stop offset="1" stop-color="#033D3A" stop-opacity="0"/>
</radialGradient>
<linearGradient id="paint43_linear_451_14466" x1="839.989" y1="354.267" x2="834.88" y2="360.025" gradientUnits="userSpaceOnUse">
<stop stop-color="#34E0EC" stop-opacity="0"/>
<stop offset="0.43" stop-color="#33DFEB"/>
<stop offset="1" stop-color="#34E0EC" stop-opacity="0"/>
</linearGradient>
<linearGradient id="paint44_linear_451_14466" x1="834.881" y1="360.025" x2="839.989" y2="354.267" gradientUnits="userSpaceOnUse">
<stop stop-color="#34E0EC" stop-opacity="0"/>
<stop offset="0.43" stop-color="#33DFEB"/>
<stop offset="1" stop-color="#34E0EC" stop-opacity="0"/>
</linearGradient>
<linearGradient id="paint45_linear_451_14466" x1="548.471" y1="149.629" x2="540.373" y2="1182.16" gradientUnits="userSpaceOnUse">
<stop stop-color="#88D4DA" stop-opacity="0"/>
<stop offset="0.305" stop-color="white" stop-opacity="0.523256"/>
<stop offset="0.495" stop-color="#78E0E8"/>
<stop offset="0.74" stop-color="white" stop-opacity="0.45"/>
<stop offset="1" stop-color="#BAF2F6" stop-opacity="0"/>
</linearGradient>
<linearGradient id="paint46_linear_451_14466" x1="537.809" y1="156.414" x2="529.711" y2="1188.95" gradientUnits="userSpaceOnUse">
<stop stop-color="#88D4DA" stop-opacity="0"/>
<stop offset="0.305" stop-color="white" stop-opacity="0.523256"/>
<stop offset="0.495" stop-color="#78E0E8"/>
<stop offset="0.74" stop-color="white" stop-opacity="0.45"/>
<stop offset="1" stop-color="#BAF2F6" stop-opacity="0"/>
</linearGradient>
<linearGradient id="paint47_linear_451_14466" x1="568.487" y1="126.465" x2="560.389" y2="1159" gradientUnits="userSpaceOnUse">
<stop stop-color="#88D4DA" stop-opacity="0"/>
<stop offset="0.305" stop-color="white" stop-opacity="0.523256"/>
<stop offset="0.495" stop-color="#78E0E8"/>
<stop offset="0.74" stop-color="white" stop-opacity="0.45"/>
<stop offset="1" stop-color="#BAF2F6" stop-opacity="0"/>
</linearGradient>
<radialGradient id="paint48_radial_451_14466" cx="0" cy="0" r="1" gradientUnits="userSpaceOnUse" gradientTransform="translate(22.4917 14.7214) rotate(107.17) scale(19.5762)">
<stop stop-color="#0A8F98"/>
<stop offset="1" stop-color="#064448"/>
</radialGradient>
<radialGradient id="paint49_radial_451_14466" cx="0" cy="0" r="1" gradientUnits="userSpaceOnUse" gradientTransform="translate(7.30273 16.7125) rotate(4.688) scale(23.0094)">
<stop stop-color="white"/>
<stop offset="1" stop-color="#033D3A" stop-opacity="0"/>
</radialGradient>
<radialGradient id="paint50_radial_451_14466" cx="0" cy="0" r="1" gradientUnits="userSpaceOnUse" gradientTransform="translate(21.5983 29.3148) rotate(-19.5025) scale(15.1656 6.97683)">
<stop stop-color="white" stop-opacity="0.62"/>
<stop offset="1" stop-color="#033D3A" stop-opacity="0"/>
</radialGradient>
<linearGradient id="paint51_linear_451_14466" x1="905.786" y1="269.849" x2="901.633" y2="274.53" gradientUnits="userSpaceOnUse">
<stop stop-color="#34E0EC" stop-opacity="0"/>
<stop offset="0.43" stop-color="#33DFEB"/>
<stop offset="1" stop-color="#34E0EC" stop-opacity="0"/>
</linearGradient>
<linearGradient id="paint52_linear_451_14466" x1="901.631" y1="274.529" x2="905.784" y2="269.849" gradientUnits="userSpaceOnUse">
<stop stop-color="#34E0EC" stop-opacity="0"/>
<stop offset="0.43" stop-color="#33DFEB"/>
<stop offset="1" stop-color="#34E0EC" stop-opacity="0"/>
</linearGradient>
<linearGradient id="paint53_linear_451_14466" x1="905.836" y1="269.66" x2="901.683" y2="274.341" gradientUnits="userSpaceOnUse">
<stop stop-color="#34E0EC" stop-opacity="0"/>
<stop offset="0.43" stop-color="#33DFEB"/>
<stop offset="1" stop-color="#34E0EC" stop-opacity="0"/>
</linearGradient>
<linearGradient id="paint54_linear_451_14466" x1="901.682" y1="274.341" x2="905.835" y2="269.66" gradientUnits="userSpaceOnUse">
<stop stop-color="#34E0EC" stop-opacity="0"/>
<stop offset="0.43" stop-color="#33DFEB"/>
<stop offset="1" stop-color="#34E0EC" stop-opacity="0"/>
</linearGradient>
<radialGradient id="paint55_radial_451_14466" cx="0" cy="0" r="1" gradientUnits="userSpaceOnUse" gradientTransform="translate(42.7343 27.9706) rotate(107.17) scale(37.1948)">
<stop stop-color="#0A8F98"/>
<stop offset="1" stop-color="#064448"/>
</radialGradient>
<radialGradient id="paint56_radial_451_14466" cx="0" cy="0" r="1" gradientUnits="userSpaceOnUse" gradientTransform="translate(13.8752 31.7538) rotate(4.688) scale(43.7179)">
<stop stop-color="white"/>
<stop offset="1" stop-color="#033D3A" stop-opacity="0"/>
</radialGradient>
<radialGradient id="paint57_radial_451_14466" cx="0" cy="0" r="1" gradientUnits="userSpaceOnUse" gradientTransform="translate(41.0367 55.698) rotate(-19.5025) scale(28.8147 13.256)">
<stop stop-color="white" stop-opacity="0.62"/>
<stop offset="1" stop-color="#033D3A" stop-opacity="0"/>
</radialGradient>
<linearGradient id="paint58_linear_451_14466" x1="780.997" y1="444.466" x2="775.889" y2="450.223" gradientUnits="userSpaceOnUse">
<stop stop-color="#34E0EC" stop-opacity="0"/>
<stop offset="0.43" stop-color="#33DFEB"/>
<stop offset="1" stop-color="#34E0EC" stop-opacity="0"/>
</linearGradient>
<linearGradient id="paint59_linear_451_14466" x1="775.89" y1="450.223" x2="780.998" y2="444.466" gradientUnits="userSpaceOnUse">
<stop stop-color="#34E0EC" stop-opacity="0"/>
<stop offset="0.43" stop-color="#33DFEB"/>
<stop offset="1" stop-color="#34E0EC" stop-opacity="0"/>
</linearGradient>
<radialGradient id="paint60_radial_451_14466" cx="0" cy="0" r="1" gradientUnits="userSpaceOnUse" gradientTransform="translate(49.4849 32.3891) rotate(107.17) scale(43.0703)">
<stop stop-color="#0A8F98"/>
<stop offset="1" stop-color="#064448"/>
</radialGradient>
<radialGradient id="paint61_radial_451_14466" cx="0" cy="0" r="1" gradientUnits="userSpaceOnUse" gradientTransform="translate(16.067 36.7699) rotate(4.688) scale(50.6239)">
<stop stop-color="white"/>
<stop offset="1" stop-color="#033D3A" stop-opacity="0"/>
</radialGradient>
<radialGradient id="paint62_radial_451_14466" cx="0" cy="0" r="1" gradientUnits="userSpaceOnUse" gradientTransform="translate(47.5192 64.4965) rotate(-19.5025) scale(33.3665 15.35)">
<stop stop-color="white" stop-opacity="0.62"/>
<stop offset="1" stop-color="#033D3A" stop-opacity="0"/>
</radialGradient>
<linearGradient id="paint63_linear_451_14466" x1="526.412" y1="635.048" x2="521.303" y2="640.806" gradientUnits="userSpaceOnUse">
<stop stop-color="#34E0EC" stop-opacity="0"/>
<stop offset="0.43" stop-color="#33DFEB"/>
<stop offset="1" stop-color="#34E0EC" stop-opacity="0"/>
</linearGradient>
<linearGradient id="paint64_linear_451_14466" x1="521.306" y1="640.806" x2="526.414" y2="635.049" gradientUnits="userSpaceOnUse">
<stop stop-color="#34E0EC" stop-opacity="0"/>
<stop offset="0.43" stop-color="#33DFEB"/>
<stop offset="1" stop-color="#34E0EC" stop-opacity="0"/>
</linearGradient>
<radialGradient id="paint65_radial_451_14466" cx="0" cy="0" r="1" gradientUnits="userSpaceOnUse" gradientTransform="translate(49.4849 32.3891) rotate(107.17) scale(43.0703)">
<stop stop-color="#0A8F98"/>
<stop offset="1" stop-color="#064448"/>
</radialGradient>
<radialGradient id="paint66_radial_451_14466" cx="0" cy="0" r="1" gradientUnits="userSpaceOnUse" gradientTransform="translate(16.067 36.7699) rotate(4.688) scale(50.6239)">
<stop stop-color="white"/>
<stop offset="1" stop-color="#033D3A" stop-opacity="0"/>
</radialGradient>
<radialGradient id="paint67_radial_451_14466" cx="0" cy="0" r="1" gradientUnits="userSpaceOnUse" gradientTransform="translate(47.5192 64.4965) rotate(-19.5025) scale(33.3665 15.35)">
<stop stop-color="white" stop-opacity="0.62"/>
<stop offset="1" stop-color="#033D3A" stop-opacity="0"/>
</radialGradient>
<radialGradient id="paint68_radial_451_14466" cx="0" cy="0" r="1" gradientUnits="userSpaceOnUse" gradientTransform="translate(354.117 759.155) rotate(107.17) scale(9.78565)">
<stop stop-color="#0A8F98"/>
<stop offset="1" stop-color="#064448"/>
</radialGradient>
<radialGradient id="paint69_radial_451_14466" cx="0" cy="0" r="1" gradientUnits="userSpaceOnUse" gradientTransform="translate(346.524 760.151) rotate(4.688) scale(11.5018)">
<stop stop-color="white"/>
<stop offset="1" stop-color="#033D3A" stop-opacity="0"/>
</radialGradient>
<radialGradient id="paint70_radial_451_14466" cx="0" cy="0" r="1" gradientUnits="userSpaceOnUse" gradientTransform="translate(353.67 766.45) rotate(-19.5025) scale(7.58092 3.48754)">
<stop stop-color="white" stop-opacity="0.62"/>
<stop offset="1" stop-color="#033D3A" stop-opacity="0"/>
</radialGradient>
<linearGradient id="paint71_linear_451_14466" x1="400.571" y1="798.916" x2="395.463" y2="804.674" gradientUnits="userSpaceOnUse">
<stop stop-color="#34E0EC" stop-opacity="0"/>
<stop offset="0.43" stop-color="#33DFEB"/>
<stop offset="1" stop-color="#34E0EC" stop-opacity="0"/>
</linearGradient>
<linearGradient id="paint72_linear_451_14466" x1="395.464" y1="804.674" x2="400.572" y2="798.916" gradientUnits="userSpaceOnUse">
<stop stop-color="#34E0EC" stop-opacity="0"/>
<stop offset="0.43" stop-color="#33DFEB"/>
<stop offset="1" stop-color="#34E0EC" stop-opacity="0"/>
</linearGradient>
<radialGradient id="paint73_radial_451_14466" cx="0" cy="0" r="1" gradientUnits="userSpaceOnUse" gradientTransform="translate(476.551 857.105) rotate(107.17) scale(39.151)">
<stop stop-color="#0A8F98"/>
<stop offset="1" stop-color="#064448"/>
</radialGradient>
<radialGradient id="paint74_radial_451_14466" cx="0" cy="0" r="1" gradientUnits="userSpaceOnUse" gradientTransform="translate(446.174 861.087) rotate(4.688) scale(46.0172)">
<stop stop-color="white"/>
<stop offset="1" stop-color="#033D3A" stop-opacity="0"/>
</radialGradient>
<radialGradient id="paint75_radial_451_14466" cx="0" cy="0" r="1" gradientUnits="userSpaceOnUse" gradientTransform="translate(474.764 886.291) rotate(-19.5025) scale(30.3302 13.9532)">
<stop stop-color="white" stop-opacity="0.62"/>
<stop offset="1" stop-color="#033D3A" stop-opacity="0"/>
</radialGradient>
<linearGradient id="paint76_linear_451_14466" x1="200.518" y1="1053.04" x2="195.409" y2="1058.8" gradientUnits="userSpaceOnUse">
<stop stop-color="#34E0EC" stop-opacity="0"/>
<stop offset="0.43" stop-color="#33DFEB"/>
<stop offset="1" stop-color="#34E0EC" stop-opacity="0"/>
</linearGradient>
<linearGradient id="paint77_linear_451_14466" x1="195.41" y1="1058.8" x2="200.518" y2="1053.04" gradientUnits="userSpaceOnUse">
<stop stop-color="#34E0EC" stop-opacity="0"/>
<stop offset="0.43" stop-color="#33DFEB"/>
<stop offset="1" stop-color="#34E0EC" stop-opacity="0"/>
</linearGradient>
<radialGradient id="paint78_radial_451_14466" cx="0" cy="0" r="1" gradientUnits="userSpaceOnUse" gradientTransform="translate(330.368 1164.76) rotate(107.17) scale(25.4461)">
<stop stop-color="#0A8F98"/>
<stop offset="1" stop-color="#064448"/>
</radialGradient>
<radialGradient id="paint79_radial_451_14466" cx="0" cy="0" r="1" gradientUnits="userSpaceOnUse" gradientTransform="translate(310.624 1167.35) rotate(4.688) scale(29.9087)">
<stop stop-color="white"/>
<stop offset="1" stop-color="#033D3A" stop-opacity="0"/>
</radialGradient>
<radialGradient id="paint80_radial_451_14466" cx="0" cy="0" r="1" gradientUnits="userSpaceOnUse" gradientTransform="translate(329.206 1183.73) rotate(-19.5025) scale(19.713 9.06881)">
<stop stop-color="white" stop-opacity="0.62"/>
<stop offset="1" stop-color="#033D3A" stop-opacity="0"/>
</radialGradient>
</defs>
</svg>
