<svg xmlns="http://www.w3.org/2000/svg" viewBox="0 0 64 64" width="64" height="64" fill="none" stroke="white" stroke-width="2" stroke-linecap="round" stroke-linejoin="round">
  <!-- Brain to represent intelligence -->
  <path d="M22 28c-2 0-4-1.5-4-4s2-4 4-4 4 1.5 4 4-2 4-4 4zm20 0c-2 0-4-1.5-4-4s2-4 4-4 4 1.5 4 4-2 4-4 4z" stroke="white"/>
  <path d="M26 20c0-4 2-6 6-6s6 2 6 6v20c0 4-2 6-6 6s-6-2-6-6V20zm12 0c0-4 2-6 6-6s6 2 6 6v20c0 4-2 6-6 6s-6-2-6-6V20z" stroke="white"/>

  <!-- Circuit lines for AI connections -->
  <line x1="8" y1="20" x2="16" y2="20" stroke="white"/>
  <line x1="8" y1="28" x2="16" y2="28" stroke="white"/>
  <line x1="48" y1="20" x2="56" y2="20" stroke="white"/>
  <line x1="48" y1="28" x2="56" y2="28" stroke="white"/>
  
  <!-- Neural-like nodes -->
  <circle cx="8" cy="20" r="2" fill="white"/>
  <circle cx="8" cy="28" r="2" fill="white"/>
  <circle cx="56" cy="20" r="2" fill="white"/>
  <circle cx="56" cy="28" r="2" fill="white"/>
</svg>
