<svg width="443" height="538" viewBox="0 0 443 538" fill="none" xmlns="http://www.w3.org/2000/svg">
<path d="M419.822 28.959H23.1328V537.308H419.822V28.959Z" fill="#1F3B60"/>
<path d="M442.95 0H0V57.9205H442.95V0Z" fill="#1F3B60"/>
<path d="M442.95 180.605H0V238.526H442.95V180.605Z" fill="#1F3B60"/>
<path d="M442.95 361.205H0V419.126H442.95V361.205Z" fill="#1F3B60"/>
<path opacity="0.6" d="M117.307 75.627H41.7148V164.141H117.307V75.627Z" fill="#A7AFB2"/>
<path opacity="0.6" d="M212.206 75.627H136.617V164.141H212.206V75.627Z" fill="#A7AFB2"/>
<path opacity="0.6" d="M307.105 75.627H231.516V164.141H307.105V75.627Z" fill="#A7AFB2"/>
<path opacity="0.6" d="M402.006 75.627H326.414V164.141H402.006V75.627Z" fill="#A7AFB2"/>
<path d="M35.4766 83.0371H29.1289V156.734H35.4766V83.0371Z" fill="#F5F7FA"/>
<path d="M130.379 83.0371H124.031V156.734H130.379V83.0371Z" fill="#F5F7FA"/>
<path d="M225.496 83.0371H219.148V156.734H225.496V83.0371Z" fill="#F5F7FA"/>
<path d="M319.5 83.0371H313.152V156.734H319.5V83.0371Z" fill="#F5F7FA"/>
<path d="M413.813 83.0371H407.465V156.734H413.813V83.0371Z" fill="#F5F7FA"/>
<path opacity="0.2" d="M67.2087 164.142H44.3622L109.813 75.6285H117.296V96.4091L67.2087 164.142ZM41.707 97.3862V151.887L98.1008 75.625H57.7956L41.707 97.3862Z" fill="#F5F7FA"/>
<g opacity="0.2">
<path d="M212.206 99.0771V75.627H206.694L141.246 164.141H164.093L212.206 99.0771Z" fill="#F5F7FA"/>
<path d="M136.617 100.054V154.555L194.982 75.627H154.677L136.617 100.054Z" fill="#F5F7FA"/>
</g>
<g opacity="0.2">
<path d="M231.52 101.321V155.822L290.819 75.627H250.514L231.52 101.321Z" fill="#F5F7FA"/>
<path d="M307.101 100.344V75.627H302.526L237.078 164.141H259.922L307.101 100.344Z" fill="#F5F7FA"/>
</g>
<g opacity="0.2">
<path d="M402.012 97.3567V75.627H395.228L329.777 164.141H352.621L402.012 97.3567Z" fill="#F5F7FA"/>
<path d="M326.418 98.3338V152.835L383.511 75.627H343.206L326.418 98.3338Z" fill="#F5F7FA"/>
</g>
<path opacity="0.6" d="M117.307 256.521H41.7148V345.039H117.307V256.521Z" fill="#A7AFB2"/>
<path opacity="0.6" d="M212.206 256.521H136.617V345.039H212.206V256.521Z" fill="#A7AFB2"/>
<path opacity="0.6" d="M307.105 256.521H231.516V345.039H307.105V256.521Z" fill="#A7AFB2"/>
<path opacity="0.6" d="M402.006 256.521H326.414V345.039H402.006V256.521Z" fill="#A7AFB2"/>
<path d="M35.4766 263.93H29.1289V337.627H35.4766V263.93Z" fill="#F5F7FA"/>
<path d="M130.379 263.93H124.031V337.627H130.379V263.93Z" fill="#F5F7FA"/>
<path d="M225.496 263.93H219.148V337.627H225.496V263.93Z" fill="#F5F7FA"/>
<path d="M319.5 263.93H313.152V337.627H319.5V263.93Z" fill="#F5F7FA"/>
<path d="M413.813 263.93H407.465V337.627H413.813V263.93Z" fill="#F5F7FA"/>
<path opacity="0.2" d="M67.2087 345.039H44.3622L109.813 256.521H117.296V277.302L67.2087 345.039ZM41.707 278.279V332.78L98.1008 256.518H57.7956L41.707 278.279Z" fill="#F5F7FA"/>
<g opacity="0.2">
<path d="M212.206 279.968V256.521H206.694L141.246 345.039H164.093L212.206 279.968Z" fill="#F5F7FA"/>
<path d="M136.617 280.949V335.449L194.982 256.521H154.677L136.617 280.949Z" fill="#F5F7FA"/>
</g>
<g opacity="0.2">
<path d="M231.52 282.215V336.716L290.819 256.521H250.514L231.52 282.215Z" fill="#F5F7FA"/>
<path d="M307.101 281.238V256.521H302.526L237.078 345.039H259.922L307.101 281.238Z" fill="#F5F7FA"/>
</g>
<g opacity="0.2">
<path d="M402.012 278.248V256.521H395.228L329.777 345.039H352.621L402.012 278.248Z" fill="#F5F7FA"/>
<path d="M326.418 279.228V333.729L383.511 256.521H343.206L326.418 279.228Z" fill="#F5F7FA"/>
</g>
<path d="M41.9356 196.531H22.668V222.588H41.9356V196.531Z" fill="#F5F7FA"/>
<path d="M104.997 196.531H85.7266V222.588H104.997V196.531Z" fill="#F5F7FA"/>
<path d="M168.051 196.531H148.781V222.588H168.051V196.531Z" fill="#F5F7FA"/>
<path d="M231.104 196.531H211.836V222.588H231.104V196.531Z" fill="#F5F7FA"/>
<path d="M294.161 196.531H274.891V222.588H294.161V196.531Z" fill="#F5F7FA"/>
<path d="M357.219 196.531H337.949V222.588H357.219V196.531Z" fill="#F5F7FA"/>
<path d="M420.272 196.531H401.004V222.588H420.272V196.531Z" fill="#F5F7FA"/>
<path d="M41.9356 377.139H22.668V403.199H41.9356V377.139Z" fill="#F5F7FA"/>
<path d="M104.997 377.139H85.7266V403.199H104.997V377.139Z" fill="#F5F7FA"/>
<path d="M168.051 377.139H148.781V403.199H168.051V377.139Z" fill="#F5F7FA"/>
<path d="M231.104 377.139H211.836V403.199H231.104V377.139Z" fill="#F5F7FA"/>
<path d="M294.161 377.139H274.891V403.199H294.161V377.139Z" fill="#F5F7FA"/>
<path d="M357.219 377.139H337.949V403.199H357.219V377.139Z" fill="#F5F7FA"/>
<path d="M420.272 377.139H401.004V403.199H420.272V377.139Z" fill="#F5F7FA"/>
<path opacity="0.6" d="M117.303 433.924H41.7109V522.438H117.303V433.924Z" fill="#A7AFB2"/>
<path opacity="0.6" d="M212.202 433.924H136.613V522.438H212.202V433.924Z" fill="#A7AFB2"/>
<path opacity="0.6" d="M307.101 433.924H231.512V522.438H307.101V433.924Z" fill="#A7AFB2"/>
<path opacity="0.6" d="M402.002 433.924H326.41V522.438H402.002V433.924Z" fill="#A7AFB2"/>
<path d="M35.4727 441.332H29.125V515.026H35.4727V441.332Z" fill="#F5F7FA"/>
<path d="M130.375 441.332H124.027V515.026H130.375V441.332Z" fill="#F5F7FA"/>
<path d="M319.496 441.332H313.148V515.026H319.496V441.332Z" fill="#F5F7FA"/>
<path d="M413.809 441.332H407.461V515.026H413.809V441.332Z" fill="#F5F7FA"/>
<path opacity="0.2" d="M67.2048 522.438H44.3583L109.809 433.924H117.292V454.704L67.2048 522.438ZM41.7031 455.681V510.182L98.0969 433.924H57.7916L41.7031 455.681Z" fill="#F5F7FA"/>
<g opacity="0.2">
<path d="M212.202 457.37V433.924H206.69L141.242 522.438H164.089L212.202 457.37Z" fill="#F5F7FA"/>
<path d="M136.613 458.351V512.852L194.978 433.924H154.673L136.613 458.351Z" fill="#F5F7FA"/>
</g>
<g opacity="0.2">
<path d="M231.516 459.618V514.119L290.815 433.924H250.51L231.516 459.618Z" fill="#F5F7FA"/>
<path d="M307.101 458.641V433.924H302.526L237.078 522.438H259.922L307.101 458.641Z" fill="#F5F7FA"/>
</g>
<g opacity="0.2">
<path d="M402.008 455.647V433.924H395.224L329.773 522.438H352.617L402.008 455.647Z" fill="#F5F7FA"/>
<path d="M326.414 456.627V511.131L383.507 433.924H343.202L326.414 456.627Z" fill="#F5F7FA"/>
</g>
<path d="M214.052 430.762H168.047V528.398H214.052V430.762Z" fill="#1F3B60"/>
<path d="M275.664 430.762H228.926V528.398H275.664V430.762Z" fill="#1F3B60"/>
<path opacity="0.5" d="M419.822 491.707H23.1328V537.309H419.822V491.707Z" fill="#F5F7FA"/>
<path opacity="0.2" d="M419.822 491.707H23.1328V498.896H419.822V491.707Z" fill="#F5F7FA"/>
<path opacity="0.5" d="M419.822 315.607H23.1328V361.21H419.822V315.607Z" fill="#F5F7FA"/>
<path opacity="0.2" d="M419.822 315.607H23.1328V322.796H419.822V315.607Z" fill="#F5F7FA"/>
<path opacity="0.5" d="M419.822 134.998H23.1328V180.6H419.822V134.998Z" fill="#F5F7FA"/>
<path opacity="0.2" d="M419.822 134.998H23.1328V142.187H419.822V134.998Z" fill="#F5F7FA"/>
<path opacity="0.6" d="M266.927 433.92H176.344V537.307H266.927V433.92Z" fill="#A7AFB2"/>
<path opacity="0.6" d="M266.927 444.432H176.344V526.786H266.927V444.432Z" fill="#A7AFB2"/>
<g opacity="0.3">
<path d="M200.189 444.432L176.344 476.683V526.786H178.798L239.692 444.432H200.189Z" fill="#F5F7FA"/>
<path d="M266.929 448.598V444.432H249.55L188.656 526.786H209.116L266.929 448.598Z" fill="#F5F7FA"/>
</g>
<path d="M221.637 433.92H218.688V537.307H221.637V433.92Z" fill="#F5F7FA"/>
</svg>
