<svg width="577" height="593" viewBox="0 0 577 593" fill="none" xmlns="http://www.w3.org/2000/svg">
<path d="M372.823 99.625H248.16V592.999H372.823V99.625Z" fill="#1F3B60"/>
<path d="M342.25 103.756H334.453V111.873H342.25V103.756Z" fill="#1F3B60"/>
<path d="M354.644 103.756H346.848V111.873H354.644V103.756Z" fill="#1F3B60"/>
<path d="M367.039 103.756H359.242V111.873H367.039V103.756Z" fill="#1F3B60"/>
<path d="M376.092 91.8262H244.883V99.6259H376.092V91.8262Z" fill="#1F3B60"/>
<path d="M356.717 79.4688H264.262V91.8219H356.717V79.4688Z" fill="#F5F0E4"/>
<path d="M322.053 49.4844H298.93V79.4719H322.053V49.4844Z" fill="#1F3B60"/>
<path d="M248.158 194.051H238.371V200.229H248.158V194.051Z" fill="#1F3B60"/>
<path d="M248.154 200.225H244.223V218.132H248.154V200.225Z" fill="#1F3B60"/>
<path d="M248.158 237.248H238.371V243.426H248.158V237.248Z" fill="#1F3B60"/>
<path d="M248.154 243.426H244.223V261.334H248.154V243.426Z" fill="#1F3B60"/>
<path d="M248.158 280.867H238.371V287.045H248.158V280.867Z" fill="#1F3B60"/>
<path d="M248.154 287.043H244.223V304.951H248.154V287.043Z" fill="#1F3B60"/>
<path d="M248.158 324.281H238.371V330.46H248.158V324.281Z" fill="#1F3B60"/>
<path d="M248.154 330.457H244.223V348.365H248.154V330.457Z" fill="#1F3B60"/>
<path opacity="0.7" d="M307.184 176.903C319.364 164.222 319.364 143.661 307.184 130.979C295.004 118.298 275.257 118.298 263.077 130.979C250.897 143.661 250.897 164.222 263.077 176.903C275.257 189.585 295.004 189.585 307.184 176.903Z" fill="#9898A3"/>
<path d="M314.442 169.351C326.622 156.669 326.622 136.108 314.442 123.427C302.262 110.745 282.515 110.745 270.335 123.427C258.155 136.108 258.155 156.669 270.335 169.351C282.515 182.032 302.262 182.032 314.442 169.351Z" fill="white"/>
<path d="M292.395 175.412C307.792 175.412 320.273 162.416 320.273 146.385C320.273 130.353 307.792 117.357 292.395 117.357C276.997 117.357 264.516 130.353 264.516 146.385C264.516 162.416 276.997 175.412 292.395 175.412Z" fill="#1F3B60"/>
<path d="M292.395 172.841C306.429 172.841 317.806 160.995 317.806 146.383C317.806 131.771 306.429 119.926 292.395 119.926C278.361 119.926 266.984 131.771 266.984 146.383C266.984 160.995 278.361 172.841 292.395 172.841Z" fill="white"/>
<path d="M310.488 140.818H274.293V151.946H310.488V140.818Z" fill="#1F3B60"/>
<path d="M297.735 127.543H287.047V165.229H297.735V127.543Z" fill="#1F3B60"/>
<path d="M310.485 194.045H274.289V218.129H310.485V194.045Z" fill="#A7AFB2"/>
<path d="M310.485 222.324H274.289V233.261H310.485V222.324Z" fill="#A7AFB2"/>
<path d="M310.485 237.451H274.289V261.535H310.485V237.451Z" fill="#A7AFB2"/>
<path d="M310.485 265.73H274.289V276.667H310.485V265.73Z" fill="#A7AFB2"/>
<path d="M310.485 280.867H274.289V304.951H310.485V280.867Z" fill="#A7AFB2"/>
<path d="M310.485 309.145H274.289V320.081H310.485V309.145Z" fill="#A7AFB2"/>
<path d="M310.485 324.275H274.289V348.36H310.485V324.275Z" fill="#A7AFB2"/>
<path d="M309.579 194.045H274.289V218.129H286.447C294.158 210.101 301.869 202.072 309.579 194.045Z" fill="#A7AFB2"/>
<path d="M291.184 261.54H310.483V241.445L291.184 261.54Z" fill="#A7AFB2"/>
<path d="M276.652 276.667H310.485V265.73H287.156L276.652 276.667Z" fill="#A7AFB2"/>
<path d="M310.485 295.129V280.867H274.289V304.951H301.05L310.485 295.129Z" fill="#A7AFB2"/>
<path d="M297.022 309.145H274.289V320.081H286.518L297.022 309.145Z" fill="#A7AFB2"/>
<g opacity="0.7">
<path d="M274.289 284.8H306.707V304.951H310.485V280.867H274.289V284.8Z" fill="#9898A3"/>
<path d="M274.289 328.209H306.707V348.36H310.485V324.275H274.289V328.209Z" fill="#9898A3"/>
<path d="M274.289 313.078H306.707V320.081H310.485V309.145H274.289V313.078Z" fill="#9898A3"/>
<path d="M274.289 269.662H306.707V276.667H310.485V265.73H274.289V269.662Z" fill="#9898A3"/>
<path d="M274.289 194.045V197.976H306.707V218.129H310.485V194.045H274.289Z" fill="#9898A3"/>
<path d="M274.289 241.384H306.707V261.535H310.485V237.451H274.289V241.384Z" fill="#9898A3"/>
<path d="M274.289 226.256H306.707V233.261H310.485V222.324H274.289V226.256Z" fill="#9898A3"/>
</g>
<path d="M313.873 49.481L312.391 13.6621H308.589L307.105 49.481H313.873Z" fill="#34495E"/>
<path d="M315.585 11.2681C315.585 14.1983 313.304 16.5732 310.49 16.5732C307.676 16.5732 305.395 14.1983 305.395 11.2681C305.395 8.33783 307.676 5.96289 310.49 5.96289C313.304 5.96289 315.585 8.33783 315.585 11.2681Z" fill="#1F3B60"/>
<path d="M310.782 22.5397L310.605 17.6087C310.891 17.5968 311.179 17.566 311.462 17.5131L312.289 22.3706C311.793 22.4628 311.286 22.5209 310.782 22.5397ZM304.954 21.0481C304.519 20.7884 304.097 20.4928 303.697 20.1699L306.596 16.2675C306.826 16.452 307.065 16.6195 307.312 16.7664L304.954 21.0481ZM317.679 19.6215L314.502 15.9617C314.714 15.7618 314.916 15.5448 315.098 15.3175L318.733 18.4835C318.408 18.8851 318.054 19.2678 317.679 19.6215ZM300.144 15.1347C299.97 14.6426 299.827 14.1335 299.719 13.6192L304.348 12.5633C304.41 12.8554 304.491 13.1459 304.589 13.4227L300.144 15.1347ZM321.17 12.77L316.477 12.0917C316.516 11.7978 316.536 11.4971 316.536 11.1964L321.273 11.0495V11.2391C321.273 11.7226 321.237 12.2523 321.17 12.77ZM304.566 9.04015L300.103 7.38111C300.273 6.8822 300.48 6.39526 300.715 5.92881L304.909 8.22515C304.776 8.48486 304.661 8.75994 304.566 9.04015ZM315.568 7.74333C315.413 7.49217 315.239 7.24955 315.054 7.02402L318.651 3.81358C318.979 4.21168 319.283 4.63711 319.555 5.07964L315.568 7.74333ZM307.251 5.66227L304.849 1.40959C305.282 1.14305 305.74 0.907265 306.206 0.705651L308.019 5.26417C307.755 5.37864 307.497 5.51191 307.251 5.66227ZM312.22 5.07452C311.951 4.98567 311.673 4.91733 311.391 4.86778L312.166 0C312.668 0.0871381 313.167 0.210156 313.649 0.369055L312.22 5.07452Z" fill="#1F3B60"/>
<path opacity="0.7" d="M508.696 227.647H514.566V213.924H508.696V178.929H504.957V184.447H372.573V178.929H338.939V167.079H372.573V161.398H333.886V178.929H296.667V213.924H289.461V227.647H296.667V257.11H289.461V266.715H296.667V296.178H289.461V305.785H296.667V334.988H289.461V344.595H296.667V374.058H289.461V383.663H296.667L255.878 413.126H248.672V422.733H255.878V452.196H248.672V461.801H255.878V491.264H248.672V500.871H255.878V530.334H248.672V539.939H255.878V592.921H508.696V539.939H514.566V530.334H508.696V500.871H514.566V491.264H508.696V461.801H514.566V452.196H508.696V422.733H514.566V413.126H508.696V383.663H514.566V374.058H508.696V344.595H514.566V334.988H508.696V305.785H514.566V296.178H508.696V266.715H514.566V257.11H508.696V227.647Z" fill="#9898A3"/>
<path d="M552.19 227.588H340.512V592.996H552.19V227.588Z" fill="#1F3B60"/>
<path d="M380.764 552.594C380.758 552.859 380.727 553.117 380.727 553.383V592.942H433.389V553.383C433.389 553.117 433.358 552.859 433.352 552.594H380.764Z" fill="#ECF0F1"/>
<path d="M384.245 552.594C384.237 552.859 384.207 553.117 384.207 553.383V592.942H429.91V553.383C429.91 553.117 429.881 552.859 429.873 552.594H384.245Z" fill="#A7AFB2"/>
<path d="M384.245 552.594C384.237 552.859 384.207 553.117 384.207 553.383V584.753C394.987 573.556 406.226 562.792 417.77 552.594H384.245Z" fill="#A7AFB2"/>
<path d="M433.389 552.109H380.727V555.667H433.389V552.109Z" fill="#ECF0F1"/>
<path d="M401.422 578.093C401.422 581.116 402.272 583.568 403.322 583.568C404.371 583.568 405.222 581.118 405.222 578.093C405.222 575.071 404.372 572.619 403.322 572.619C402.272 572.619 401.422 575.071 401.422 578.093Z" fill="#1F3B60"/>
<path d="M408.891 578.093C408.891 581.116 409.741 583.568 410.791 583.568C411.839 583.568 412.691 581.118 412.691 578.093C412.691 575.071 411.841 572.619 410.791 572.619C409.741 572.619 408.891 575.071 408.891 578.093Z" fill="#1F3B60"/>
<path d="M552.19 178.855H340.512V213.863H552.19V178.855Z" fill="#BAC2CE"/>
<path d="M519.46 186.412H511.664V194.53H519.46V186.412Z" fill="#1F3B60"/>
<path d="M531.847 186.412H524.051V194.53H531.847V186.412Z" fill="#1F3B60"/>
<path d="M544.242 186.412H536.445V194.53H544.242V186.412Z" fill="#1F3B60"/>
<path d="M552.183 227.59H372.809V258.749H552.183V227.59Z" fill="#A7AFB2"/>
<path d="M552.183 263.703H372.809V298.634H552.183V263.703Z" fill="#A7AFB2"/>
<path d="M552.183 303.594H372.809V337.461H552.183V303.594Z" fill="#A7AFB2"/>
<path d="M552.183 342.416H372.809V377.346H552.183V342.416Z" fill="#A7AFB2"/>
<path d="M552.183 382.301H372.809V415.104H552.183V382.301Z" fill="#A7AFB2"/>
<path d="M552.183 420.059H372.809V453.926H552.183V420.059Z" fill="#A7AFB2"/>
<path d="M552.183 496.645H372.809V532.106H552.183V496.645Z" fill="#A7AFB2"/>
<path d="M552.183 458.883H372.809V491.686H552.183V458.883Z" fill="#A7AFB2"/>
<path d="M361.608 227.59H340.512V258.749H361.608V227.59Z" fill="#A7AFB2"/>
<path d="M361.608 263.703H340.512V298.634H361.608V263.703Z" fill="#A7AFB2"/>
<path d="M361.608 303.594H340.512V337.461H361.608V303.594Z" fill="#A7AFB2"/>
<path d="M361.608 342.416H340.512V377.346H361.608V342.416Z" fill="#A7AFB2"/>
<path d="M361.608 382.301H340.512V415.104H361.608V382.301Z" fill="#A7AFB2"/>
<path d="M361.608 420.059H340.512V453.926H361.608V420.059Z" fill="#A7AFB2"/>
<path d="M361.608 458.883H340.512V491.686H361.608V458.883Z" fill="#A7AFB2"/>
<path d="M361.608 496.645H340.512V532.106H361.608V496.645Z" fill="#A7AFB2"/>
<g opacity="0.5">
<path d="M517.938 227.59H372.809V258.749H488.011L517.938 227.59Z" fill="#A7AFB2"/>
<path d="M483.251 263.703H372.809V298.635H449.702L483.251 263.703Z" fill="#A7AFB2"/>
<path d="M444.942 303.594H372.809V337.461H412.416L444.942 303.594Z" fill="#A7AFB2"/>
<path d="M552.192 330.21V303.594H542.024L509.496 337.461H545.226C547.549 335.044 549.871 332.628 552.192 330.21Z" fill="#A7AFB2"/>
<path d="M407.655 342.416H372.809V377.346H374.107L407.655 342.416Z" fill="#A7AFB2"/>
<path d="M540.465 342.416H504.736L471.188 377.346H506.917C518.099 365.702 529.282 354.058 540.465 342.416Z" fill="#A7AFB2"/>
<path d="M502.153 382.301H466.423C455.921 393.236 445.419 404.171 434.918 415.104H470.647C481.148 404.171 491.651 393.236 502.153 382.301Z" fill="#A7AFB2"/>
<path d="M465.89 420.059H430.161L397.633 453.926H433.362L465.89 420.059Z" fill="#3C9EE1"/>
<path d="M392.332 496.645H372.809V516.972L392.332 496.645Z" fill="#A7AFB2"/>
<path d="M428.598 458.883H392.866L372.809 479.769V491.688H397.092L428.598 458.883Z" fill="#A7AFB2"/>
<path d="M361.608 227.59H340.512V258.749H361.608V227.59Z" fill="#A7AFB2"/>
<path d="M361.608 263.703H340.512V298.634H361.608V263.703Z" fill="#A7AFB2"/>
<path d="M361.608 303.594H340.512V337.461H361.608V303.594Z" fill="#A7AFB2"/>
<path d="M361.608 342.416H340.512V377.346H361.608V342.416Z" fill="#A7AFB2"/>
<path d="M361.607 390.365V382.301H340.512V412.331L361.607 390.365Z" fill="#A7AFB2"/>
<path d="M361.607 528.641V496.645H356.608L340.512 513.404V532.108H358.279L361.607 528.641Z" fill="#A7AFB2"/>
</g>
<path opacity="0.7" d="M552.189 245.834V213.863H340.512V245.834H354.349V264.622H340.512V274.231H354.349V303.704H340.512V313.314H354.349V342.529H340.512V352.138H354.349V381.611H340.512V391.22H354.349V420.693H340.512V430.302H354.349V459.776H340.512V469.385H354.349V498.858H340.512V508.469H354.349V537.942H340.512V547.551H354.349V592.994H365.557V547.551H480.416V592.994H517.948V547.551H550.791V537.942H517.948V508.469H550.791V498.858H517.948V469.385H552.189V459.776H517.948V430.302H552.189V420.693H517.948V391.22H552.189V381.611H517.948V352.138H552.189V342.529H517.948V313.314H552.189V303.704H517.948V274.231H552.189V264.622H517.948V245.834H552.189ZM480.416 537.945H365.557V508.472H480.416V537.945ZM480.416 498.861H365.557V469.388H480.416V498.861ZM480.416 459.779H365.557V430.306H480.416V459.779ZM480.416 420.697H365.557V391.224H480.416V420.697ZM480.416 381.613H365.557V352.14H480.416V381.613ZM480.416 342.53H365.557V313.315H480.416V342.53ZM480.416 303.706H365.557V274.233H480.416V303.706ZM480.416 264.622H365.557V245.834H480.416V264.622Z" fill="#9898A3"/>
<path d="M372.814 227.588H361.605V592.996H372.814V227.588Z" fill="#BAC2CE"/>
<path d="M487.68 592.998H525.211V227.59H487.68L487.68 592.998Z" fill="#BAC2CE"/>
<path d="M558.053 213.863H333.32V227.592H558.053V213.863Z" fill="#1F3B60"/>
<path d="M558.053 334.971H333.32V344.58H558.053V334.971Z" fill="#BAC2CE"/>
<path d="M558.053 374.055H333.32V383.664H558.053V374.055Z" fill="#BAC2CE"/>
<path d="M558.053 413.139H333.32V422.748H558.053V413.139Z" fill="#BAC2CE"/>
<path d="M558.053 452.223H333.32V461.832H558.053V452.223Z" fill="#BAC2CE"/>
<path d="M558.053 257.062H333.32V266.672H558.053V257.062Z" fill="#BAC2CE"/>
<path d="M558.053 296.145H333.32V305.754H558.053V296.145Z" fill="#BAC2CE"/>
<path d="M558.053 491.305H333.32V500.914H558.053V491.305Z" fill="#BAC2CE"/>
<path d="M558.053 530.387H333.32V539.996H558.053V530.387Z" fill="#BAC2CE"/>
<path d="M421.412 166.252H416.367V178.849H421.412V166.252Z" fill="#2A3C59"/>
<path d="M460.107 166.252H455.062V178.849H460.107V166.252Z" fill="#2A3C59"/>
<path d="M382.712 166.252H377.668V178.849H382.712V166.252Z" fill="#2A3C59"/>
<path d="M498.814 166.252H493.77V178.849H498.814V166.252Z" fill="#2A3C59"/>
<path d="M537.509 166.252H532.465V178.849H537.509V166.252Z" fill="#2A3C59"/>
<path d="M545.012 161.316H377.668V166.999H545.012C546.295 166.999 547.334 165.935 547.334 164.624V163.691C547.336 162.379 546.295 161.316 545.012 161.316Z" fill="#33496D"/>
<path opacity="0.7" d="M256.979 521.213H14.8125V592.998H256.979V521.213Z" fill="#1F3B60"/>
<path d="M59.5517 545.697H27.4883V592.996H59.5517V545.697Z" fill="#ECF0F1"/>
<path d="M55.9974 549.32H31.0312V592.995H55.9974V549.32Z" fill="#A7AFB2"/>
<path d="M55.9974 558.557V549.32H31.0312V584.191C38.0646 574.903 46.752 566.362 55.9974 558.557Z" fill="#A7AFB2"/>
<path d="M47.9492 575.792C47.9492 579.293 48.9338 582.132 50.1498 582.132C51.3658 582.132 52.3504 579.294 52.3504 575.792C52.3504 572.291 51.3658 569.451 50.1498 569.451C48.9338 569.451 47.9492 572.291 47.9492 575.792Z" fill="#1F3B60"/>
<path d="M119.306 545.697H87.2422V592.996H119.306V545.697Z" fill="#ECF0F1"/>
<path d="M115.751 549.32H90.7852V592.995H115.751V549.32Z" fill="#A7AFB2"/>
<path d="M115.751 558.557V549.32H90.7852V584.191C97.8185 574.903 106.506 566.362 115.751 558.557Z" fill="#A7AFB2"/>
<path d="M107.703 575.792C107.703 579.293 108.688 582.132 109.904 582.132C111.12 582.132 112.104 579.294 112.104 575.792C112.104 572.291 111.12 569.451 109.904 569.451C108.688 569.451 107.703 572.291 107.703 575.792Z" fill="#1F3B60"/>
<path d="M179.056 545.697H146.992V592.996H179.056V545.697Z" fill="#ECF0F1"/>
<path d="M175.501 549.32H150.535V592.995H175.501V549.32Z" fill="#A7AFB2"/>
<path d="M175.501 558.557V549.32H150.535V584.191C157.568 574.903 166.256 566.362 175.501 558.557Z" fill="#A7AFB2"/>
<path d="M169.654 582.132C170.869 582.132 171.854 579.294 171.854 575.792C171.854 572.29 170.869 569.451 169.654 569.451C168.438 569.451 167.453 572.29 167.453 575.792C167.453 579.294 168.438 582.132 169.654 582.132Z" fill="#1F3B60"/>
<path d="M238.798 545.697H206.734V592.996H238.798V545.697Z" fill="#ECF0F1"/>
<path d="M235.243 549.32H210.277V592.995H235.243V549.32Z" fill="#A7AFB2"/>
<path d="M235.243 558.557V549.32H210.277V584.191C217.311 574.903 225.998 566.362 235.243 558.557Z" fill="#A7AFB2"/>
<path d="M229.396 582.132C230.611 582.132 231.596 579.294 231.596 575.792C231.596 572.29 230.611 569.451 229.396 569.451C228.181 569.451 227.195 572.29 227.195 575.792C227.195 579.294 228.181 582.132 229.396 582.132Z" fill="#1F3B60"/>
<path d="M20.6124 532.229H6.68359V592.996H20.6124V532.229Z" fill="#1F3B60"/>
<path opacity="0.7" d="M233.198 532.229H187.376H173.449H127.628H113.699H67.8789H53.9501H20.6133V556.145H53.9501V592.995H67.8789V556.145H113.699V592.995H127.628V556.145H173.449V592.995H187.376V556.145H233.198V592.995H247.125V532.229H233.198Z" fill="#F5F7FA"/>
<path d="M80.3646 532.229H66.4375V592.996H80.3646V532.229Z" fill="#1F3B60"/>
<path d="M140.115 532.229H126.188V592.996H140.115V532.229Z" fill="#1F3B60"/>
<path d="M199.857 532.229H185.93V592.996H199.857V532.229Z" fill="#1F3B60"/>
<path d="M259.608 532.229H245.68V592.996H259.608V532.229Z" fill="#1F3B60"/>
<path d="M208.554 381.242H158.087H107.62H57.1508H6.68359V431.57V481.899V532.229H57.1508H107.62H158.087H208.554H259.023V481.899V431.57V381.242H208.554Z" fill="#1F3B60"/>
<path d="M156.014 383.412H109.707V429.411H156.014V383.412Z" fill="#A7AFB2"/>
<path d="M105.549 383.412H59.2422V429.411H105.549V383.412Z" fill="#A7AFB2"/>
<path d="M55.0791 433.74H8.77344V479.739H55.0791V433.74Z" fill="#A7AFB2"/>
<path d="M105.549 433.74H59.2422V479.739H105.549V433.74Z" fill="#A7AFB2"/>
<path d="M156.014 433.74H109.707V479.739H156.014V433.74Z" fill="#A7AFB2"/>
<path d="M206.481 383.412H160.176V429.411H206.481V383.412Z" fill="#A7AFB2"/>
<path d="M206.481 433.74H160.176V479.739H206.481V433.74Z" fill="#A7AFB2"/>
<path d="M55.0791 383.412H8.77344V429.411H55.0791V383.412Z" fill="#A7AFB2"/>
<path d="M256.952 433.74H210.645V479.739H256.952V433.74Z" fill="#A7AFB2"/>
<path d="M256.952 484.072H210.645V530.066H256.952V484.072Z" fill="#A7AFB2"/>
<path d="M256.952 383.412H210.645V429.411H256.952V383.412Z" fill="#A7AFB2"/>
<path d="M55.0791 484.072H8.77344V530.066H55.0791V484.072Z" fill="#A7AFB2"/>
<path d="M206.481 484.072H160.176V530.066H206.481V484.072Z" fill="#A7AFB2"/>
<path d="M105.549 484.072H59.2422V530.066H105.549V484.072Z" fill="#A7AFB2"/>
<path d="M156.014 484.072H109.707V530.066H156.014V484.072Z" fill="#A7AFB2"/>
<g opacity="0.6">
<path d="M158.088 383.051V381.24H107.621V431.568H111.491L158.088 383.051Z" fill="#A7AFB2"/>
<path d="M107.623 381.24H57.1562V431.568H107.623V381.24Z" fill="#A7AFB2"/>
<path d="M57.1547 431.566H6.6875V481.896H57.1547V431.566Z" fill="#A7AFB2"/>
<path d="M107.625 435.595V431.566H57.1562V481.895H63.1557L107.625 435.595Z" fill="#A7AFB2"/>
<path d="M141.527 481.897H158.092V464.65L141.527 481.897Z" fill="#A7AFB2"/>
<path d="M189.863 431.568H208.558V412.104L189.863 431.568Z" fill="#A7AFB2"/>
<path d="M208.557 433.396V431.566H189.863L158.09 464.648V481.895H161.977L208.557 433.396Z" fill="#A7AFB2"/>
<path d="M57.1547 381.24H6.6875V431.568H57.1547V381.24Z" fill="#A7AFB2"/>
<path d="M240.352 481.899H259.028V462.453L240.352 481.899Z" fill="#A7AFB2"/>
<path d="M259.027 491.33V481.898H240.351L208.559 515.001V532.228H219.749L259.027 491.33Z" fill="#A7AFB2"/>
<path d="M258.655 381.24H238.203L208.559 412.104V431.568H210.318L258.655 381.24Z" fill="#A7AFB2"/>
<path d="M57.1547 488.145V481.898H6.6875V532.228H14.817L57.1547 488.145Z" fill="#A7AFB2"/>
<path d="M192.016 532.226H208.56V514.998L192.016 532.226Z" fill="#A7AFB2"/>
<path d="M93.1953 532.228H107.63V517.197L93.1953 532.228Z" fill="#A7AFB2"/>
<path d="M158.088 485.948V481.898H141.524L107.621 517.198V532.228H113.639L158.088 485.948Z" fill="#A7AFB2"/>
</g>
<path d="M25.16 354.167H14.7407V361.731H26.3777V367.638H8.31641V335.779H25.7901V341.689H14.7407V348.307H25.16V354.167Z" fill="#1F3B60"/>
<path d="M54.6831 355.445C54.5571 351.616 54.431 346.984 54.431 342.351H54.305C53.4213 346.417 52.2461 350.952 51.1543 354.688L47.7106 367.118H42.7121L39.6874 354.781C38.7627 351.049 37.7955 346.509 37.1244 342.351H37.0393C36.8723 346.653 36.7463 351.57 36.5352 355.537L36.0311 367.638H30.1094L31.9147 335.779H40.442L43.2146 346.415C44.0968 350.101 44.9775 354.073 45.6076 357.805H45.7337C46.5323 354.119 47.4996 349.914 48.4227 346.369L51.4474 335.779H59.8077L61.361 367.638H55.1022L54.6831 355.445Z" fill="#1F3B60"/>
<path d="M83.1068 354.167H72.6876V361.731H84.3246V367.638H66.2617V335.779H83.7354V341.689H72.6876V348.307H83.1068V354.167Z" fill="#1F3B60"/>
<path d="M88.6953 336.208C90.7543 335.827 93.8199 335.543 97.2211 335.543C101.423 335.543 104.364 336.254 106.379 338.048C108.059 339.563 108.984 341.784 108.984 344.716C108.984 348.778 106.421 351.57 103.986 352.561V352.704C105.959 353.601 107.051 355.73 107.766 358.657C108.649 362.248 109.529 366.412 110.077 367.639H103.524C103.061 366.742 102.39 364.14 101.55 360.218C100.794 356.249 99.5761 355.163 96.9706 355.111H95.0407V367.639H88.6983V336.208H88.6953ZM95.0377 349.916H97.5567C100.748 349.916 102.64 348.118 102.64 345.33C102.64 342.398 100.874 340.934 97.9348 340.887C96.3814 340.887 95.4977 341.028 95.0377 341.125V349.916Z" fill="#1F3B60"/>
<path d="M137.07 366.175C135.096 366.928 131.356 367.969 127.619 367.969C122.454 367.969 118.714 366.505 116.11 363.67C113.504 360.928 112.077 356.766 112.118 352.086C112.159 341.501 119.005 335.449 128.289 335.449C131.944 335.449 134.757 336.254 136.145 337.011L134.801 342.777C133.247 342.02 131.314 341.407 128.207 341.407C122.871 341.407 118.838 344.809 118.838 351.71C118.838 358.281 122.493 362.156 127.744 362.156C129.214 362.156 130.39 361.965 130.895 361.683V355.019H126.526V349.396H137.068V366.175H137.07Z" fill="#1F3B60"/>
<path d="M158.904 354.167H148.484V361.731H160.121V367.638H142.059V335.779H159.532V341.689H148.484V348.307H158.904V354.167Z" fill="#1F3B60"/>
<path d="M164.484 367.638V335.779H171.961L177.842 347.456C179.523 350.811 181.203 354.779 182.462 358.372H182.588C182.168 354.167 182.042 349.863 182.042 345.091V335.779H187.922V367.638H181.203L175.154 355.346C173.473 351.944 171.625 347.832 170.241 344.097L170.115 344.148C170.282 348.353 170.367 352.843 170.367 358.042V367.638H164.484Z" fill="#1F3B60"/>
<path d="M214.248 366.74C213.071 367.4 210.426 368.111 206.979 368.111C197.192 368.111 192.152 361.257 192.152 352.181C192.152 341.308 199.04 335.258 207.611 335.258C210.929 335.258 213.448 336.015 214.584 336.676L213.281 342.396C211.978 341.783 210.173 341.216 207.904 341.216C202.821 341.216 198.873 344.664 198.873 351.754C198.873 358.134 202.234 362.154 207.945 362.154C209.878 362.154 212.021 361.681 213.281 361.114L214.248 366.74Z" fill="#1F3B60"/>
<path d="M225.29 367.638V354.594L216.344 335.779H223.653L226.552 343.437C227.434 345.752 228.022 347.456 228.737 349.533H228.819C229.449 347.55 230.122 345.704 230.961 343.437L233.817 335.779H241.001L231.677 354.357V367.638H225.29Z" fill="#1F3B60"/>
<path d="M21.5462 374.58H14.0469V381.247H21.5462V374.58Z" fill="#2A3C59"/>
<path d="M79.0736 374.58H71.5742V381.247H79.0736V374.58Z" fill="#2A3C59"/>
<path d="M136.609 374.58H129.109V381.247H136.609V374.58Z" fill="#2A3C59"/>
<path d="M194.136 374.58H186.637V381.247H194.136V374.58Z" fill="#2A3C59"/>
<path d="M251.671 374.58H244.172V381.247H251.671V374.58Z" fill="#2A3C59"/>
<path d="M263.096 374.577H2.61575C1.17167 374.577 0 373.357 0 371.854V370.786C0 369.282 1.17167 368.062 2.61575 368.062H263.096C264.54 368.062 265.712 369.282 265.712 370.786V371.854C265.713 373.357 264.542 374.577 263.096 374.577Z" fill="#33496D"/>
<path opacity="0.9" d="M577 413.484H575.446V408.665H559.437V396.839H566.965C568.223 396.839 569.244 395.779 569.244 394.468V393.539C569.244 392.23 568.223 391.168 566.965 391.168H393.264C392.005 391.168 390.986 392.228 390.986 393.539V394.468C390.986 395.777 392.005 396.839 393.264 396.839H399.855V408.665H384.784V413.484H383.23V415.996H384.784V430.19H391.063V435.157V440.124H395.972V445.311V530.23H393.042V540.424H395.972V592.919H425.486H470.242H489.987H534.742H564.257V540.424H567.186V530.23H564.257V445.311V440.124H569.165V435.157V430.19H575.446V415.996H577V413.484ZM443.527 396.839H477.129V408.665H443.527V396.839ZM482.165 396.839H515.766V408.665H482.165V396.839ZM554.402 408.665H520.802V396.839H554.402V408.665ZM404.891 396.839H438.491V408.665H404.891V396.839Z" fill="#1F3B60"/>
</svg>
