<svg width="409" height="642" viewBox="0 0 409 642" fill="none" xmlns="http://www.w3.org/2000/svg">
<path d="M161.811 29.3906H15.2109V88.1689H161.811V29.3906Z" fill="#BAC2CE"/>
<path d="M84.3579 0H15.2109V58.7783H84.3579V0Z" fill="#BAC2CE"/>
<path d="M409 183.73H262.402V242.509H409V183.73Z" fill="#BAC2CE"/>
<path d="M409 154.34H339.855V213.118H409V154.34Z" fill="#BAC2CE"/>
<path d="M199.842 75.1992H15.2109V642H199.842V75.1992Z" fill="#1F3B60"/>
<path d="M408.996 208.117H224.367V641.994H408.996V208.117Z" fill="#1F3B60"/>
<path d="M360.967 279.359H105.109V641.993H360.967V279.359Z" fill="#1F3B60"/>
<path d="M215.061 53.7148H0V122.62H215.061V53.7148Z" fill="#1F3B60"/>
<path d="M27.8959 88.1756C27.8959 93.2708 25.3391 97.4015 22.1888 97.4015C19.0437 97.4015 16.4844 93.2708 16.4844 88.1756C16.4844 83.0804 19.0437 78.9453 22.1888 78.9453C25.3391 78.9453 27.8959 83.0761 27.8959 88.1756Z" fill="#BAC2CE"/>
<path d="M70.6797 88.1756C70.6797 93.2708 68.1256 97.4015 64.9752 97.4015C61.8249 97.4015 59.2734 93.2708 59.2734 88.1756C59.2734 83.0804 61.8249 78.9453 64.9752 78.9453C68.1256 78.9453 70.6797 83.0761 70.6797 88.1756Z" fill="#BAC2CE"/>
<path d="M113.473 88.1756C113.473 93.2708 110.913 97.4015 107.763 97.4015C104.618 97.4015 102.059 93.2708 102.059 88.1756C102.059 83.0804 104.618 78.9453 107.763 78.9453C110.916 78.9453 113.473 83.0761 113.473 88.1756Z" fill="#BAC2CE"/>
<path d="M156.254 88.1756C156.254 93.2708 153.702 97.4015 150.552 97.4015C147.402 97.4015 144.848 93.2708 144.848 88.1756C144.848 83.0804 147.402 78.9453 150.552 78.9453C153.702 78.9453 156.254 83.0761 156.254 88.1756Z" fill="#BAC2CE"/>
<path d="M199.044 88.1756C199.044 93.2708 196.488 97.4015 193.337 97.4015C190.19 97.4015 187.633 93.2708 187.633 88.1756C187.633 83.0804 190.19 78.9453 193.337 78.9453C196.488 78.9453 199.044 83.0761 199.044 88.1756Z" fill="#BAC2CE"/>
<path d="M408.994 212.246H215.055V285.73H408.994V212.246Z" fill="#1F3B60"/>
<path d="M252.009 250.756C252.009 255.851 249.452 259.982 246.302 259.982C243.157 259.982 240.598 255.851 240.598 250.756C240.598 245.66 243.157 241.525 246.302 241.525C249.455 241.53 252.009 245.66 252.009 250.756Z" fill="#BAC2CE"/>
<path d="M294.797 250.756C294.797 255.851 292.243 259.982 289.092 259.982C285.942 259.982 283.391 255.851 283.391 250.756C283.391 245.66 285.942 241.525 289.092 241.525C292.243 241.53 294.797 245.66 294.797 250.756Z" fill="#BAC2CE"/>
<path d="M337.586 250.756C337.586 255.851 335.027 259.982 331.876 259.982C328.731 259.982 326.172 255.851 326.172 250.756C326.172 245.66 328.731 241.525 331.876 241.525C335.027 241.53 337.586 245.66 337.586 250.756Z" fill="#BAC2CE"/>
<path d="M380.367 250.756C380.367 255.851 377.816 259.982 374.665 259.982C371.515 259.982 368.961 255.851 368.961 250.756C368.961 245.66 371.515 241.525 374.665 241.525C377.816 241.53 380.367 245.66 380.367 250.756Z" fill="#BAC2CE"/>
<path d="M199.846 134.242H15.2148V261.976H199.846V134.242Z" fill="#F1F2F2"/>
<path opacity="0.6" d="M62.4707 142.588H27.8906V248.085H62.4707V142.588Z" fill="#384850"/>
<path opacity="0.3" d="M62.4707 172.016L27.8906 227.943V248.089H38.558L62.4707 209.41V172.016Z" fill="white"/>
<path opacity="0.3" d="M27.8906 209.111L62.4707 153.184V142.588H41.6345L27.8906 164.816V209.111Z" fill="white"/>
<path opacity="0.6" d="M104.814 142.588H70.2344V248.085H104.814V142.588Z" fill="#384850"/>
<path opacity="0.3" d="M104.814 172.016L70.2344 227.943V248.089H80.9018L104.814 209.41V172.016Z" fill="white"/>
<path opacity="0.3" d="M70.2344 209.111L104.814 153.184V142.588H83.9757L70.2344 164.816V209.111Z" fill="white"/>
<path opacity="0.6" d="M147.146 142.588H112.566V248.085H147.146V142.588Z" fill="#384850"/>
<path opacity="0.3" d="M147.146 172.016L112.566 227.943V248.089H123.234L147.146 209.41V172.016Z" fill="white"/>
<path opacity="0.3" d="M112.566 209.111L147.146 153.184V142.588H126.31L112.566 164.816V209.111Z" fill="white"/>
<path opacity="0.6" d="M189.482 142.588H154.902V248.085H189.482V142.588Z" fill="#384850"/>
<path opacity="0.3" d="M189.482 172.016L154.902 227.943V248.089H165.57L189.482 209.41V172.016Z" fill="white"/>
<path opacity="0.3" d="M154.902 209.111L189.482 153.184V142.588H168.644L154.902 164.816V209.111Z" fill="white"/>
<path d="M399.686 312.355H215.055V440.09H399.686V312.355Z" fill="#F1F2F2"/>
<path opacity="0.6" d="M262.322 320.707H227.742V426.208H262.322V320.707Z" fill="#384850"/>
<path opacity="0.3" d="M262.322 350.135L227.742 406.062V426.209H238.41L262.322 387.534V350.135Z" fill="white"/>
<path opacity="0.3" d="M227.742 387.235L262.322 331.303V320.707H241.489L227.742 342.94V387.235Z" fill="white"/>
<path opacity="0.6" d="M304.654 320.707H270.074V426.208H304.654V320.707Z" fill="#384850"/>
<path opacity="0.3" d="M304.654 350.135L270.074 406.062V426.209H280.742L304.654 387.534V350.135Z" fill="white"/>
<path opacity="0.3" d="M270.074 387.235L304.654 331.303V320.707H283.821L270.074 342.94V387.235Z" fill="white"/>
<path opacity="0.6" d="M346.99 320.707H312.41V426.208H346.99V320.707Z" fill="#384850"/>
<path opacity="0.3" d="M346.99 350.135L312.41 406.062V426.209H323.078L346.99 387.534V350.135Z" fill="white"/>
<path opacity="0.3" d="M312.41 387.235L346.99 331.303V320.707H326.157L312.41 342.94V387.235Z" fill="white"/>
<path opacity="0.6" d="M389.318 320.707H354.738V426.208H389.318V320.707Z" fill="#384850"/>
<path opacity="0.3" d="M389.318 350.135L354.738 406.062V426.209H365.406L389.318 387.534V350.135Z" fill="white"/>
<path opacity="0.3" d="M354.738 387.235L389.318 331.303V320.707H368.487L354.738 342.94V387.235Z" fill="white"/>
<path d="M399.69 490.463H215.059V618.197H399.69V490.463Z" fill="#F1F2F2"/>
<path opacity="0.6" d="M262.326 498.811H227.746V604.312H262.326V498.811Z" fill="#384850"/>
<path opacity="0.3" d="M262.326 528.23L227.746 584.158V604.304H238.414L262.326 565.629V528.23Z" fill="white"/>
<path opacity="0.3" d="M227.746 565.33L262.326 509.402V498.811H241.493L227.746 521.039V565.33Z" fill="white"/>
<path opacity="0.6" d="M304.658 498.811H270.078V604.312H304.658V498.811Z" fill="#384850"/>
<path opacity="0.3" d="M304.658 528.23L270.078 584.158V604.304H280.746L304.658 565.629V528.23Z" fill="white"/>
<path opacity="0.3" d="M270.078 565.33L304.658 509.402V498.811H283.825L270.078 521.039V565.33Z" fill="white"/>
<path d="M199.846 312.355H15.2148V440.09H199.846V312.355Z" fill="#F1F2F2"/>
<path opacity="0.6" d="M62.4707 320.707H27.8906V426.208H62.4707V320.707Z" fill="#384850"/>
<path opacity="0.3" d="M62.4707 350.135L27.8906 406.062V426.209H38.558L62.4707 387.534V350.135Z" fill="white"/>
<path opacity="0.3" d="M27.8906 387.235L62.4707 331.303V320.707H41.6345L27.8906 342.94V387.235Z" fill="white"/>
<path opacity="0.6" d="M104.814 320.707H70.2344V426.208H104.814V320.707Z" fill="#384850"/>
<path opacity="0.3" d="M104.814 350.135L70.2344 406.062V426.209H80.9018L104.814 387.534V350.135Z" fill="white"/>
<path opacity="0.3" d="M70.2344 387.235L104.814 331.303V320.707H83.9757L70.2344 342.94V387.235Z" fill="white"/>
<path opacity="0.6" d="M147.146 320.707H112.566V426.208H147.146V320.707Z" fill="#384850"/>
<path opacity="0.3" d="M147.146 350.135L112.566 406.062V426.209H123.234L147.146 387.534V350.135Z" fill="white"/>
<path opacity="0.3" d="M112.566 387.235L147.146 331.303V320.707H126.31L112.566 342.94V387.235Z" fill="white"/>
<path opacity="0.6" d="M189.482 320.707H154.902V426.208H189.482V320.707Z" fill="#384850"/>
<path opacity="0.3" d="M189.482 350.135L154.902 406.062V426.209H165.57L189.482 387.534V350.135Z" fill="white"/>
<path opacity="0.3" d="M154.902 387.235L189.482 331.303V320.707H168.644L154.902 342.94V387.235Z" fill="white"/>
<path d="M199.846 490.459H15.2148V618.193H199.846V490.459Z" fill="#F1F2F2"/>
<path opacity="0.6" d="M62.4707 498.811H27.8906V604.312H62.4707V498.811Z" fill="#384850"/>
<path opacity="0.3" d="M62.4707 528.23L27.8906 584.158V604.304H38.558L62.4707 565.629V528.23Z" fill="white"/>
<path opacity="0.3" d="M27.8906 565.33L62.4707 509.402V498.811H41.6345L27.8906 521.039V565.33Z" fill="white"/>
<path opacity="0.6" d="M104.814 498.811H70.2344V604.312H104.814V498.811Z" fill="#384850"/>
<path opacity="0.3" d="M104.814 528.23L70.2344 584.158V604.304H80.9018L104.814 565.629V528.23Z" fill="white"/>
<path opacity="0.3" d="M70.2344 565.33L104.814 509.402V498.811H83.9757L70.2344 521.039V565.33Z" fill="white"/>
<path opacity="0.6" d="M147.146 498.811H112.566V604.312H147.146V498.811Z" fill="#384850"/>
<path opacity="0.3" d="M147.146 528.23L112.566 584.158V604.304H123.234L147.146 565.629V528.23Z" fill="white"/>
<path opacity="0.3" d="M112.566 565.33L147.146 509.402V498.811H126.31L112.566 521.039V565.33Z" fill="white"/>
<path opacity="0.6" d="M189.482 498.811H154.902V604.312H189.482V498.811Z" fill="#384850"/>
<path opacity="0.3" d="M189.482 528.23L154.902 584.158V604.304H165.57L189.482 565.629V528.23Z" fill="white"/>
<path opacity="0.3" d="M154.902 565.33L189.482 509.402V498.811H168.644L154.902 521.039V565.33Z" fill="white"/>
<path d="M141.678 275.994H76.3281V282.702H141.678V275.994Z" fill="#BAC2CE"/>
<path d="M141.678 291.936H76.3281V298.644H141.678V291.936Z" fill="#BAC2CE"/>
<path d="M141.678 455.57H76.3281V462.283H141.678V455.57Z" fill="#BAC2CE"/>
<path d="M141.678 471.512H76.3281V478.22H141.678V471.512Z" fill="#BAC2CE"/>
<path d="M358.208 498.811H353.902V641.997H358.208V498.811Z" fill="#F1F2F2"/>
<path d="M353.898 498.811H312.41V641.997H353.898V498.811Z" fill="#BAC2CE"/>
<path opacity="0.2" d="M347.671 508.877H318.629V631.926H347.671V508.877Z" fill="white"/>
<path d="M399.693 498.811H358.203V641.997H399.693V498.811Z" fill="#BAC2CE"/>
<path opacity="0.2" d="M393.47 508.877H364.426V631.926H393.47V508.877Z" fill="white"/>
<path d="M362.387 559.23H360.234V581.574H362.387V559.23Z" fill="#F1F2F2"/>
<path d="M351.774 559.23H349.621V581.574H351.774V559.23Z" fill="#F1F2F2"/>
</svg>
