<svg width="331" height="621" viewBox="0 0 331 621" fill="none" xmlns="http://www.w3.org/2000/svg">
<path d="M280.968 12.252H50.3398V58.328H280.968V12.252Z" fill="#1F3B60"/>
<path opacity="0.6" d="M280.968 12.252H50.3398V58.328H280.968V12.252Z" fill="white"/>
<path opacity="0.5" d="M280.97 12.252H50.3398V28.1495L280.97 22.2693V12.252Z" fill="#1F3B60"/>
<path d="M290.161 0.414062H41.1445V12.2535H290.161V0.414062Z" fill="#1F3B60"/>
<path d="M331 99.1504H0.304688V620.999H331V99.1504Z" fill="#1F3B60"/>
<path opacity="0.7" d="M331 99.1504H0.304688V620.999H331V99.1504Z" fill="white"/>
<path d="M30.8824 68.2285H0.304688V620.995H30.8824V68.2285Z" fill="#1F3B60"/>
<path opacity="0.8" d="M30.8824 68.2285H0.304688V620.995H30.8824V68.2285Z" fill="white"/>
<path d="M331.003 68.2305H300.426V620.997H331.003V68.2305Z" fill="#1F3B60"/>
<path opacity="0.8" d="M331.003 68.2305H300.426V620.997H331.003V68.2305Z" fill="white"/>
<path d="M300.426 49.1113H30.8867V99.1486H300.426V49.1113Z" fill="#1F3B60"/>
<path d="M61.3125 87.9727V61.1969C61.3125 59.7905 62.4018 58.7012 63.8082 58.7012C65.2146 58.7012 66.3499 59.7905 66.3499 61.1969V72.0899H78.1039V61.1969C78.1039 59.7905 79.1932 58.7012 80.5996 58.7012C82.0076 58.7012 83.1413 59.7905 83.1413 61.1969V87.9727C83.1413 89.3808 82.0076 90.4684 80.5996 90.4684C79.1932 90.4684 78.1039 89.3791 78.1039 87.9727V77.0813H66.3499V87.9727C66.3499 89.3808 65.2146 90.4684 63.8082 90.4684C62.4018 90.4684 61.3125 89.3791 61.3125 87.9727Z" fill="#1F3B60"/>
<path d="M117.181 62.6477C119.996 65.6429 121.765 69.637 121.765 74.1289C121.765 78.6225 119.996 82.661 117.181 85.6102C114.503 88.561 110.511 90.4668 106.336 90.4668C101.979 90.4668 97.9847 88.561 95.2162 85.6102C92.4018 82.661 90.7227 78.6209 90.7227 74.1289C90.7227 69.6353 92.4018 65.6429 95.2162 62.6477C97.9847 59.6525 101.979 57.791 106.336 57.791C110.511 57.791 114.503 59.6525 117.181 62.6477ZM116.592 74.1289C116.592 71.0434 115.366 68.1829 113.504 66.1867C111.599 64.1445 109.057 62.9648 106.334 62.9648C103.43 62.9648 100.888 64.1445 98.9819 66.1867C97.0761 68.1829 95.8964 71.0434 95.8964 74.1289C95.8964 77.2161 97.0761 80.0749 98.9819 82.0268C100.888 84.069 103.43 85.2931 106.334 85.2931C109.057 85.2931 111.599 84.0674 113.504 82.0268C115.366 80.0749 116.592 77.2161 116.592 74.1289Z" fill="#1F3B60"/>
<path d="M129.479 82.5709C130.296 81.572 131.795 81.4356 132.792 82.2538C134.788 83.887 138.238 85.7928 141.46 85.7485C143.729 85.7485 145.771 85.0683 147.133 84.0693C148.494 83.0704 149.085 81.9367 149.085 80.8031C149.085 80.2132 148.949 79.8041 148.676 79.3507C148.404 78.8972 147.996 78.4421 147.314 77.9886C145.998 77.1261 143.775 76.3539 141.097 75.856H141.005C138.873 75.4469 136.875 74.9031 135.151 74.0865C133.426 73.2699 131.929 72.1346 130.93 70.5459C130.25 69.4566 129.887 68.1865 129.887 66.8245C129.887 64.1004 131.43 61.7411 133.518 60.1983C135.651 58.6555 138.419 57.793 141.368 57.793C145.725 57.793 148.947 59.9256 151.262 61.424C152.306 62.1502 152.623 63.6026 151.898 64.6459C151.218 65.7352 149.766 66.0523 148.676 65.3261C146.361 63.7833 144.138 62.4213 141.37 62.4213C139.328 62.4213 137.512 63.0571 136.286 63.964C135.061 64.871 134.561 65.8699 134.561 66.8229C134.561 67.3667 134.652 67.7298 134.878 68.0929C135.105 68.456 135.514 68.8651 136.104 69.2726C137.284 70.0891 139.326 70.8153 141.777 71.2688H141.868C144.183 71.7223 146.315 72.3121 148.131 73.1747C149.991 74.0832 151.625 75.2629 152.669 76.942C153.349 78.0313 153.758 79.3934 153.758 80.7998C153.758 83.7046 152.125 86.2003 149.856 87.8334C147.633 89.4666 144.682 90.4195 141.46 90.4195C136.559 90.3751 132.429 87.9238 129.843 85.8816C128.844 85.0666 128.709 83.5699 129.479 82.5709Z" fill="#1F3B60"/>
<path d="M171.373 78.1246H165.791V87.9727C165.791 89.3348 164.656 90.4684 163.25 90.4684C161.889 90.4684 160.754 89.3331 160.754 87.9727V61.1969C160.754 59.7905 161.889 58.7012 163.25 58.7012H163.296H171.374C176.775 58.7012 181.132 63.0584 181.132 68.4589C181.13 73.7674 176.773 78.1246 171.373 78.1246ZM165.791 73.0872H171.373C174.006 73.0872 176.047 70.999 176.093 68.4572C176.047 65.8252 174.006 63.7369 171.373 63.7369H165.791V73.0872Z" fill="#1F3B60"/>
<path d="M187.527 61.1969C187.527 59.7905 188.618 58.7012 190.023 58.7012C191.385 58.7012 192.565 59.7905 192.565 61.1969V87.9727C192.565 89.3808 191.385 90.4684 190.023 90.4684C188.617 90.4684 187.527 89.3791 187.527 87.9727V61.1969Z" fill="#1F3B60"/>
<path d="M220.475 63.7386H213.259V87.9727C213.259 89.3808 212.169 90.4684 210.763 90.4684C209.403 90.4684 208.267 89.3791 208.267 87.9727V63.7386H201.097C199.689 63.7386 198.602 62.5589 198.602 61.1969C198.602 59.7905 199.691 58.7012 201.097 58.7012H220.475C221.837 58.7012 222.97 59.7905 222.97 61.1969C222.97 62.5573 221.835 63.7386 220.475 63.7386Z" fill="#1F3B60"/>
<path d="M242.348 82.9767H231.32L229.097 88.8767C228.688 89.8756 227.735 90.4655 226.736 90.4655C226.419 90.4655 226.146 90.4194 225.874 90.3291C224.558 89.8296 223.922 88.3772 224.377 87.0612L234.406 60.3313C234.813 59.3324 235.812 58.6966 236.811 58.7426C237.854 58.6966 238.807 59.3324 239.216 60.3313L249.245 87.0612C249.699 88.3772 249.064 89.8296 247.748 90.3291C247.522 90.4194 247.205 90.4655 246.886 90.4655C245.889 90.4655 244.934 89.8756 244.571 88.8767L242.348 82.9767ZM240.488 77.9853L236.811 68.2276L233.136 77.9853H240.488Z" fill="#1F3B60"/>
<path d="M255.469 87.9727V61.1969C255.469 59.8348 256.558 58.7012 257.964 58.7012C259.371 58.7012 260.505 59.8365 260.505 61.1969V85.431H272.804C274.12 85.431 275.3 86.5663 275.3 87.9727C275.3 89.3348 274.12 90.4684 272.804 90.4684H258.101C258.01 90.4684 258.01 90.4684 258.01 90.4684C257.964 90.4684 257.964 90.4684 257.964 90.4684C256.558 90.4684 255.469 89.3331 255.469 87.9727Z" fill="#1F3B60"/>
<path opacity="0.5" d="M294.681 620.999H300.43V99.1504L288.43 116.252L294.681 620.999Z" fill="#1F3B60"/>
<path opacity="0.5" d="M36.6316 620.999H30.8828V99.1504L42.8833 116.252L36.6316 620.999Z" fill="#1F3B60"/>
<path d="M300.426 191.371H30.8867V198.482H300.426V191.371Z" fill="white"/>
<path opacity="0.5" d="M300.426 198.482H30.8867V203.609L300.426 201.045V198.482Z" fill="#1F3B60"/>
<path opacity="0.5" d="M300.426 294.059H30.8867V299.185L300.426 296.622V294.059Z" fill="#1F3B60"/>
<path opacity="0.5" d="M300.426 389.637H30.8867V394.761L300.426 392.2V389.637Z" fill="#1F3B60"/>
<path d="M300.426 286.947H30.8867V294.056H300.426V286.947Z" fill="white"/>
<path d="M99.6983 116.326H57.6016V177.948H99.6983V116.326Z" fill="#37474F"/>
<path d="M157.698 116.326H115.602V177.948H157.698V116.326Z" fill="#37474F"/>
<path d="M215.698 116.326H173.602V177.948H215.698V116.326Z" fill="#37474F"/>
<path d="M273.698 116.326H231.602V177.948H273.698V116.326Z" fill="#37474F"/>
<path d="M99.6983 211.904H57.6016V273.528H99.6983V211.904Z" fill="#37474F"/>
<path d="M157.698 211.904H115.602V273.528H157.698V211.904Z" fill="#37474F"/>
<path d="M215.698 211.904H173.602V273.528H215.698V211.904Z" fill="#37474F"/>
<path d="M273.698 211.904H231.602V273.528H273.698V211.904Z" fill="#37474F"/>
<path d="M99.6983 307.482H57.6016V369.104H99.6983V307.482Z" fill="#37474F"/>
<path d="M157.698 307.482H115.602V369.104H157.698V307.482Z" fill="#37474F"/>
<path d="M215.698 307.482H173.602V369.104H215.698V307.482Z" fill="#37474F"/>
<path d="M273.698 307.482H231.602V369.104H273.698V307.482Z" fill="#37474F"/>
<path d="M99.6983 403.043H57.6016V464.665H99.6983V403.043Z" fill="#37474F"/>
<path d="M157.698 403.043H115.602V464.665H157.698V403.043Z" fill="#37474F"/>
<path d="M215.698 403.043H173.602V464.665H215.698V403.043Z" fill="#37474F"/>
<path d="M273.698 403.043H231.602V464.665H273.698V403.043Z" fill="#37474F"/>
<path opacity="0.5" d="M300.426 389.621H30.8867V394.746L300.426 392.183V389.621Z" fill="#1F3B60"/>
<path d="M300.426 382.51H30.8867V389.619H300.426V382.51Z" fill="white"/>
<path opacity="0.5" d="M300.426 485.201H30.8867V490.326L300.426 487.763V485.201Z" fill="#1F3B60"/>
<path opacity="0.5" d="M300.426 485.182H30.8867V490.308L300.426 487.745V485.182Z" fill="#1F3B60"/>
<path d="M300.426 478.074H30.8867V485.183H300.426V478.074Z" fill="white"/>
<path d="M217.551 521.43H111.398V620.995H217.551V521.43Z" fill="white"/>
<path d="M161.75 527.979H111.398V620.993H161.75V527.979Z" fill="#37474F"/>
<path d="M217.55 527.979H167.199V620.993H217.55V527.979Z" fill="#37474F"/>
<path d="M111.399 521.43H95.1602V620.995H111.399V521.43Z" fill="white"/>
<path d="M244.605 521.429V505.189L86.7107 505.189V521.429H244.605Z" fill="white"/>
<path d="M233.786 521.43H217.547V620.995H233.786V521.43Z" fill="white"/>
<path d="M95.1602 521.43V524.203L233.793 525.213V521.43H95.1602Z" fill="#EBEBEB"/>
<g opacity="0.2">
<path d="M142.883 527.988L111.387 559.484V540.82L124.218 527.988H142.883Z" fill="white"/>
<path d="M161.747 583.752V593.084L133.832 620.999H124.5L161.747 583.752Z" fill="white"/>
<path d="M217.537 527.988V537.288L167.195 587.629V578.297L217.504 527.988H217.537Z" fill="white"/>
</g>
<g opacity="0.2">
<path d="M79.0997 307.48H97.7805L57.6094 347.652V328.971L79.0997 307.48Z" fill="white"/>
<path d="M115.609 270.972L157.703 228.879V247.56L131.744 273.519H115.609V270.972Z" fill="white"/>
<path d="M174.666 211.906H193.346L173.598 231.655V212.974L174.666 211.906Z" fill="white"/>
<path d="M215.698 170.883V177.948H208.633L215.698 170.883Z" fill="white"/>
<path d="M187.535 464.665L215.696 436.504V455.168L206.2 464.665H187.535Z" fill="white"/>
<path d="M267.83 403.037L231.602 439.265V420.601L249.165 403.037H267.83Z" fill="white"/>
<path d="M173.598 461.363L215.691 419.27V421.405L173.598 463.499V461.363Z" fill="white"/>
<path d="M234.066 403.037L231.602 405.502V403.366L231.93 403.037H234.066Z" fill="white"/>
<path d="M273.696 361.273V363.409L267.995 369.11H265.859L273.696 361.273Z" fill="white"/>
<path d="M57.6094 363.654L99.7028 321.561V323.696L57.6094 365.79V363.654Z" fill="white"/>
<path d="M115.609 307.48H115.922L115.609 307.793V307.48Z" fill="white"/>
<path d="M147.746 273.519L157.703 263.562V265.698L149.882 273.519H147.746Z" fill="white"/>
<path d="M209.349 211.906H211.485L173.598 249.794V247.658L209.349 211.906Z" fill="white"/>
<path d="M273.695 147.568V149.704L245.452 177.947H243.316L273.695 147.568Z" fill="white"/>
<path d="M57.6094 255.759L99.7028 213.666V215.802L57.6094 257.895V255.759Z" fill="white"/>
<path d="M135.418 177.951L157.697 155.672V157.808L137.554 177.951H135.418Z" fill="white"/>
<path d="M199.179 116.318L173.598 141.9V139.764L197.043 116.318H199.179Z" fill="white"/>
<path d="M99.7028 127.572V136.937L58.6938 177.946H57.6094V169.666L99.7028 127.572Z" fill="white"/>
<path d="M57.6094 445.261L99.7028 403.168V412.533L57.6094 454.626V445.261Z" fill="white"/>
<path d="M195.39 307.48H204.755L173.604 338.632L157.7 354.536L143.127 369.109H133.762L157.7 345.171L173.604 329.267L195.39 307.48Z" fill="white"/>
<path d="M273.695 229.193V238.542L238.716 273.521H231.602V271.287L273.695 229.193Z" fill="white"/>
<path d="M58.1992 369.107L99.7012 327.605V336.954L67.5478 369.107H58.1992Z" fill="white"/>
<path d="M119.832 307.48H129.18L115.609 321.052V311.703L119.832 307.48Z" fill="white"/>
<path d="M153.789 273.52L157.699 269.609V273.52H153.789Z" fill="white"/>
<path d="M215.395 211.906H215.691V220.959L173.598 263.053V253.704L215.395 211.906Z" fill="white"/>
<path d="M273.696 153.613V162.962L258.712 177.946H249.363L273.696 153.613Z" fill="white"/>
<path d="M86.1153 403.037H88.2512L57.6094 433.679V431.543L86.1153 403.037Z" fill="white"/>
<path d="M181.672 307.48H183.807L173.605 317.683L157.7 333.588L122.179 369.109H120.043L181.672 307.48Z" fill="white"/>
<path d="M215.633 273.518L215.698 273.453V273.518H215.633Z" fill="white"/>
<path d="M273.695 215.457V217.593L231.602 259.686V257.55L273.695 215.457Z" fill="white"/>
</g>
<path d="M164.309 111.618C181.6 111.618 195.618 97.6002 195.618 80.3088C195.618 63.0174 181.6 49 164.309 49C147.017 49 133 63.0174 133 80.3088C133 97.6002 147.017 111.618 164.309 111.618Z" fill="#37474F"/>
<path d="M169.411 60.7148H159.223V99.9018H169.411V60.7148Z" fill="white"/>
<path d="M144.723 75.2161V85.4043H183.91V75.2161H144.723Z" fill="white"/>
</svg>
