<svg width="16" height="18" viewBox="0 0 16 18" fill="none" xmlns="http://www.w3.org/2000/svg">
<g id="Img" clip-path="url(#clip0_1_2296)">
<path id="Vector" d="M3.65034 15.75H0.388765V5.23478H3.65034V15.75ZM2.0178 3.80041C0.974852 3.80041 0.128906 2.93556 0.128906 1.89142C0.128906 1.38988 0.327914 0.908885 0.68215 0.554243C1.03639 0.199602 1.51683 0.000366211 2.0178 0.000366211C2.51876 0.000366211 2.99921 0.199602 3.35345 0.554243C3.70768 0.908885 3.90669 1.38988 3.90669 1.89142C3.90669 2.93556 3.06039 3.80041 2.0178 3.80041ZM15.8574 15.75H12.6028V10.6313C12.6028 9.41134 12.5782 7.84689 10.9071 7.84689C9.21132 7.84689 8.95146 9.17228 8.95146 10.5434V15.75H5.6934V5.23478H8.82153V6.66916H8.86718C9.30262 5.84298 10.3663 4.97111 11.9532 4.97111C15.2541 4.97111 15.8609 7.14728 15.8609 9.97384V15.75H15.8574Z" fill="white"/>
</g>
<defs>
<clipPath id="clip0_1_2296">
<rect width="15.81" height="18" fill="white" transform="translate(0.0898438)"/>
</clipPath>
</defs>
</svg>
